<?xml version="1.0" encoding="UTF-8"?>
<svg width="480px" height="400px" viewBox="0 0 480 400" version="1.1" xmlns="http://www.w3.org/2000/svg"
    xmlns:xlink="http://www.w3.org/1999/xlink">
    <title>terraform_modules</title>
    <defs>
        <rect id="path-1" x="8.8817842e-16" y="8.8817842e-16" width="25.6" height="25.6" rx="2"></rect>
        <filter x="-44.9%" y="-37.1%" width="189.8%" height="189.8%" filterUnits="objectBoundingBox" id="filter-2">
            <feMorphology radius="1" operator="dilate" in="SourceAlpha" result="shadowSpreadOuter1"></feMorphology>
            <feOffset dx="0" dy="2" in="shadowSpreadOuter1" result="shadowOffsetOuter1"></feOffset>
            <feGaussianBlur stdDeviation="2.5" in="shadowOffsetOuter1" result="shadowBlurOuter1"></feGaussianBlur>
            <feComposite in="shadowBlurOuter1" in2="SourceAlpha" operator="out" result="shadowBlurOuter1"></feComposite>
            <feColorMatrix values="0 0 0 0 0   0 0 0 0 0   0 0 0 0 0  0 0 0 0.1 0" type="matrix" in="shadowBlurOuter1">
            </feColorMatrix>
        </filter>
        <rect id="path-3" x="0" y="8.8817842e-16" width="25.6" height="25.6" rx="2"></rect>
        <filter x="-44.9%" y="-37.1%" width="189.8%" height="189.8%" filterUnits="objectBoundingBox" id="filter-4">
            <feMorphology radius="1" operator="dilate" in="SourceAlpha" result="shadowSpreadOuter1"></feMorphology>
            <feOffset dx="0" dy="2" in="shadowSpreadOuter1" result="shadowOffsetOuter1"></feOffset>
            <feGaussianBlur stdDeviation="2.5" in="shadowOffsetOuter1" result="shadowBlurOuter1"></feGaussianBlur>
            <feComposite in="shadowBlurOuter1" in2="SourceAlpha" operator="out" result="shadowBlurOuter1"></feComposite>
            <feColorMatrix values="0 0 0 0 0   0 0 0 0 0   0 0 0 0 0  0 0 0 0.1 0" type="matrix" in="shadowBlurOuter1">
            </feColorMatrix>
        </filter>
        <rect id="path-5" x="0" y="8.8817842e-16" width="25.6" height="25.6" rx="2"></rect>
        <filter x="-44.9%" y="-37.1%" width="189.8%" height="189.8%" filterUnits="objectBoundingBox" id="filter-6">
            <feMorphology radius="1" operator="dilate" in="SourceAlpha" result="shadowSpreadOuter1"></feMorphology>
            <feOffset dx="0" dy="2" in="shadowSpreadOuter1" result="shadowOffsetOuter1"></feOffset>
            <feGaussianBlur stdDeviation="2.5" in="shadowOffsetOuter1" result="shadowBlurOuter1"></feGaussianBlur>
            <feComposite in="shadowBlurOuter1" in2="SourceAlpha" operator="out" result="shadowBlurOuter1"></feComposite>
            <feColorMatrix values="0 0 0 0 0   0 0 0 0 0   0 0 0 0 0  0 0 0 0.1 0" type="matrix" in="shadowBlurOuter1">
            </feColorMatrix>
        </filter>
        <rect id="path-7" x="0" y="8.8817842e-16" width="25.6" height="25.6" rx="2"></rect>
        <filter x="-44.9%" y="-37.1%" width="189.8%" height="189.8%" filterUnits="objectBoundingBox" id="filter-8">
            <feMorphology radius="1" operator="dilate" in="SourceAlpha" result="shadowSpreadOuter1"></feMorphology>
            <feOffset dx="0" dy="2" in="shadowSpreadOuter1" result="shadowOffsetOuter1"></feOffset>
            <feGaussianBlur stdDeviation="2.5" in="shadowOffsetOuter1" result="shadowBlurOuter1"></feGaussianBlur>
            <feComposite in="shadowBlurOuter1" in2="SourceAlpha" operator="out" result="shadowBlurOuter1"></feComposite>
            <feColorMatrix values="0 0 0 0 0   0 0 0 0 0   0 0 0 0 0  0 0 0 0.1 0" type="matrix" in="shadowBlurOuter1">
            </feColorMatrix>
        </filter>
        <linearGradient x1="50%" y1="99.6888889%" x2="50%" y2="0.188888889%" id="linearGradient-9">
            <stop stop-color="#0078D4" offset="0%"></stop>
            <stop stop-color="#1380DA" offset="16%"></stop>
            <stop stop-color="#3C91E5" offset="53%"></stop>
            <stop stop-color="#559CEC" offset="82%"></stop>
            <stop stop-color="#5EA0EF" offset="100%"></stop>
        </linearGradient>
        <linearGradient x1="76.1393936%" y1="4.55559205%" x2="33.0377628%" y2="60.5796805%" id="linearGradient-10">
            <stop stop-color="#0052CC" offset="18%"></stop>
            <stop stop-color="#2684FF" offset="100%"></stop>
        </linearGradient>
        <rect id="path-11" x="0" y="0" width="48" height="48" rx="2"></rect>
        <filter x="-24.0%" y="-19.8%" width="147.9%" height="147.9%" filterUnits="objectBoundingBox" id="filter-12">
            <feMorphology radius="1" operator="dilate" in="SourceAlpha" result="shadowSpreadOuter1"></feMorphology>
            <feOffset dx="0" dy="2" in="shadowSpreadOuter1" result="shadowOffsetOuter1"></feOffset>
            <feGaussianBlur stdDeviation="2.5" in="shadowOffsetOuter1" result="shadowBlurOuter1"></feGaussianBlur>
            <feComposite in="shadowBlurOuter1" in2="SourceAlpha" operator="out" result="shadowBlurOuter1"></feComposite>
            <feColorMatrix values="0 0 0 0 0   0 0 0 0 0   0 0 0 0 0  0 0 0 0.1 0" type="matrix" in="shadowBlurOuter1">
            </feColorMatrix>
        </filter>
        <rect id="path-13" x="0" y="0" width="48" height="48" rx="2"></rect>
        <filter x="-24.0%" y="-19.8%" width="147.9%" height="147.9%" filterUnits="objectBoundingBox" id="filter-14">
            <feMorphology radius="1" operator="dilate" in="SourceAlpha" result="shadowSpreadOuter1"></feMorphology>
            <feOffset dx="0" dy="2" in="shadowSpreadOuter1" result="shadowOffsetOuter1"></feOffset>
            <feGaussianBlur stdDeviation="2.5" in="shadowOffsetOuter1" result="shadowBlurOuter1"></feGaussianBlur>
            <feComposite in="shadowBlurOuter1" in2="SourceAlpha" operator="out" result="shadowBlurOuter1"></feComposite>
            <feColorMatrix values="0 0 0 0 0   0 0 0 0 0   0 0 0 0 0  0 0 0 0.1 0" type="matrix" in="shadowBlurOuter1">
            </feColorMatrix>
        </filter>
        <rect id="path-15" x="-3.55271368e-15" y="8.8817842e-16" width="169.6" height="48" rx="2"></rect>
        <filter x="-6.8%" y="-19.8%" width="113.6%" height="147.9%" filterUnits="objectBoundingBox" id="filter-16">
            <feMorphology radius="1" operator="dilate" in="SourceAlpha" result="shadowSpreadOuter1"></feMorphology>
            <feOffset dx="0" dy="2" in="shadowSpreadOuter1" result="shadowOffsetOuter1"></feOffset>
            <feGaussianBlur stdDeviation="2.5" in="shadowOffsetOuter1" result="shadowBlurOuter1"></feGaussianBlur>
            <feComposite in="shadowBlurOuter1" in2="SourceAlpha" operator="out" result="shadowBlurOuter1"></feComposite>
            <feColorMatrix values="0 0 0 0 0   0 0 0 0 0   0 0 0 0 0  0 0 0 0.1 0" type="matrix" in="shadowBlurOuter1">
            </feColorMatrix>
        </filter>
        <rect id="path-17" x="21" y="6" width="48" height="48" rx="2"></rect>
        <filter x="-8.3%" y="-16.7%" width="133.3%" height="133.3%" filterUnits="objectBoundingBox" id="filter-18">
            <feOffset dx="4" dy="0" in="SourceAlpha" result="shadowOffsetOuter1"></feOffset>
            <feGaussianBlur stdDeviation="2" in="shadowOffsetOuter1" result="shadowBlurOuter1"></feGaussianBlur>
            <feComposite in="shadowBlurOuter1" in2="SourceAlpha" operator="out" result="shadowBlurOuter1"></feComposite>
            <feColorMatrix values="0 0 0 0 0   0 0 0 0 0   0 0 0 0 0  0 0 0 0.1 0" type="matrix" in="shadowBlurOuter1">
            </feColorMatrix>
        </filter>
        <rect id="path-19" x="-3.55271368e-15" y="8.8817842e-16" width="169.6" height="48" rx="2"></rect>
        <filter x="-6.8%" y="-19.8%" width="113.6%" height="147.9%" filterUnits="objectBoundingBox" id="filter-20">
            <feMorphology radius="1" operator="dilate" in="SourceAlpha" result="shadowSpreadOuter1"></feMorphology>
            <feOffset dx="0" dy="2" in="shadowSpreadOuter1" result="shadowOffsetOuter1"></feOffset>
            <feGaussianBlur stdDeviation="2.5" in="shadowOffsetOuter1" result="shadowBlurOuter1"></feGaussianBlur>
            <feComposite in="shadowBlurOuter1" in2="SourceAlpha" operator="out" result="shadowBlurOuter1"></feComposite>
            <feColorMatrix values="0 0 0 0 0   0 0 0 0 0   0 0 0 0 0  0 0 0 0.1 0" type="matrix" in="shadowBlurOuter1">
            </feColorMatrix>
        </filter>
        <rect id="path-21" x="21" y="6" width="48" height="48" rx="2"></rect>
        <filter x="-8.3%" y="-16.7%" width="133.3%" height="133.3%" filterUnits="objectBoundingBox" id="filter-22">
            <feOffset dx="4" dy="0" in="SourceAlpha" result="shadowOffsetOuter1"></feOffset>
            <feGaussianBlur stdDeviation="2" in="shadowOffsetOuter1" result="shadowBlurOuter1"></feGaussianBlur>
            <feComposite in="shadowBlurOuter1" in2="SourceAlpha" operator="out" result="shadowBlurOuter1"></feComposite>
            <feColorMatrix values="0 0 0 0 0   0 0 0 0 0   0 0 0 0 0  0 0 0 0.1 0" type="matrix" in="shadowBlurOuter1">
            </feColorMatrix>
        </filter>
        <rect id="path-23" x="-3.55271368e-15" y="8.8817842e-16" width="169.6" height="48" rx="2"></rect>
        <filter x="-6.8%" y="-19.8%" width="113.6%" height="147.9%" filterUnits="objectBoundingBox" id="filter-24">
            <feMorphology radius="1" operator="dilate" in="SourceAlpha" result="shadowSpreadOuter1"></feMorphology>
            <feOffset dx="0" dy="2" in="shadowSpreadOuter1" result="shadowOffsetOuter1"></feOffset>
            <feGaussianBlur stdDeviation="2.5" in="shadowOffsetOuter1" result="shadowBlurOuter1"></feGaussianBlur>
            <feComposite in="shadowBlurOuter1" in2="SourceAlpha" operator="out" result="shadowBlurOuter1"></feComposite>
            <feColorMatrix values="0 0 0 0 0   0 0 0 0 0   0 0 0 0 0  0 0 0 0.1 0" type="matrix" in="shadowBlurOuter1">
            </feColorMatrix>
        </filter>
        <rect id="path-25" x="21" y="6" width="48" height="48" rx="2"></rect>
        <filter x="-8.3%" y="-16.7%" width="133.3%" height="133.3%" filterUnits="objectBoundingBox" id="filter-26">
            <feOffset dx="4" dy="0" in="SourceAlpha" result="shadowOffsetOuter1"></feOffset>
            <feGaussianBlur stdDeviation="2" in="shadowOffsetOuter1" result="shadowBlurOuter1"></feGaussianBlur>
            <feComposite in="shadowBlurOuter1" in2="SourceAlpha" operator="out" result="shadowBlurOuter1"></feComposite>
            <feColorMatrix values="0 0 0 0 0   0 0 0 0 0   0 0 0 0 0  0 0 0 0.1 0" type="matrix" in="shadowBlurOuter1">
            </feColorMatrix>
        </filter>
        <rect id="path-27" x="-3.55271368e-15" y="8.8817842e-16" width="169.6" height="48" rx="2"></rect>
        <filter x="-6.8%" y="-19.8%" width="113.6%" height="147.9%" filterUnits="objectBoundingBox" id="filter-28">
            <feMorphology radius="1" operator="dilate" in="SourceAlpha" result="shadowSpreadOuter1"></feMorphology>
            <feOffset dx="0" dy="2" in="shadowSpreadOuter1" result="shadowOffsetOuter1"></feOffset>
            <feGaussianBlur stdDeviation="2.5" in="shadowOffsetOuter1" result="shadowBlurOuter1"></feGaussianBlur>
            <feComposite in="shadowBlurOuter1" in2="SourceAlpha" operator="out" result="shadowBlurOuter1"></feComposite>
            <feColorMatrix values="0 0 0 0 0   0 0 0 0 0   0 0 0 0 0  0 0 0 0.1 0" type="matrix" in="shadowBlurOuter1">
            </feColorMatrix>
        </filter>
        <rect id="path-29" x="21" y="6" width="48" height="48" rx="2"></rect>
        <filter x="-8.3%" y="-16.7%" width="133.3%" height="133.3%" filterUnits="objectBoundingBox" id="filter-30">
            <feOffset dx="4" dy="0" in="SourceAlpha" result="shadowOffsetOuter1"></feOffset>
            <feGaussianBlur stdDeviation="2" in="shadowOffsetOuter1" result="shadowBlurOuter1"></feGaussianBlur>
            <feComposite in="shadowBlurOuter1" in2="SourceAlpha" operator="out" result="shadowBlurOuter1"></feComposite>
            <feColorMatrix values="0 0 0 0 0   0 0 0 0 0   0 0 0 0 0  0 0 0 0.1 0" type="matrix" in="shadowBlurOuter1">
            </feColorMatrix>
        </filter>
    </defs>
    <g id="slides" stroke="none" stroke-width="1" fill="none" fill-rule="evenodd">
        <g id="terraform_modules" transform="translate(-80.000000, -80.000000)">
            <g transform="translate(80.000000, 80.000000)">
                <g id="svg-background" fill="#F2F2F3">
                    <rect id="rectangle" x="0" y="0" width="480" height="400"></rect>
                </g>
                <g id="hcp-terraform" transform="translate(264.000000, 128.000000)">
                    <g id="icon_box-/-vault" fill="#FFFFFF" stroke="#727274" stroke-width="1.5">
                        <rect id="box" x="0.75" y="0.75" width="198.5" height="254.5" rx="2"></rect>
                    </g>
                    <g id="projects_workspaces" transform="translate(8.000000, 125.000000)">
                        <g id="icon_box-/-group" transform="translate(18.400000, 12.400000)" fill="#FFFFFF"
                            stroke="#844FBA" stroke-width="1.5">
                            <rect id="box" x="0.75" y="0.75" width="145.7" height="97.7" rx="2"></rect>
                        </g>
                        <text id="hashicat-aws-project" font-family="Roboto-Medium, Roboto" font-size="12"
                            font-weight="400" line-spacing="14" letter-spacing="0.18">
                            <tspan x="32" y="29" fill="#222222">hashicat-aws</tspan>
                            <tspan x="32" y="43" fill="#727274">project</tspan>
                        </text>
                        <g id="workgroups" transform="translate(19.000000, 43.000000)">
                            <g id="icon_box-/-white" transform="translate(35.200000, 11.600000)" fill="#FFFFFF"
                                stroke="#844FBA" stroke-width="1.5">
                                <rect id="box" x="0.75" y="0.75" width="96.1" height="43.3" rx="2"></rect>
                            </g>
                            <g id="icon_box-/-white-copy-4" transform="translate(12.200000, 5.600000)" fill="#FFFFFF"
                                stroke="#844FBA" stroke-width="1.5">
                                <rect id="box" x="0.75" y="0.75" width="96.1" height="43.3" rx="2"></rect>
                            </g>
                            <text id="production-workspace" font-family="Roboto-Medium, Roboto" font-size="12"
                                font-weight="400" letter-spacing="0.18">
                                <tspan x="31.1605469" y="25" fill="#222222">production</tspan>
                                <tspan x="30.9927344" y="39" fill="#727274">workspace</tspan>
                            </text>
                        </g>
                    </g>
                    <g id="pmr" transform="translate(8.000000, 39.000000)">
                        <g id="icon_box-/-group" transform="translate(18.400000, 9.100000)" fill="#FFFFFF"
                            stroke="#ADE1F9" stroke-width="1.5">
                            <rect id="box" x="0.75" y="0.75" width="145.7" height="71.3" rx="2"></rect>
                        </g>
                        <g id="Modules" transform="translate(24.000000, 37.000000)">
                            <g id="box" transform="translate(3.200000, 3.200000)">
                                <use fill="black" fill-opacity="1" filter="url(#filter-2)" xlink:href="#path-1"></use>
                                <rect stroke="#727274" stroke-width="1" stroke-linejoin="square" fill="#FFFFFF"
                                    fill-rule="evenodd" x="0.5" y="0.5" width="24.6" height="24.6" rx="2"></rect>
                            </g>
                            <g id="box" transform="translate(38.200000, 3.200000)">
                                <use fill="black" fill-opacity="1" filter="url(#filter-4)" xlink:href="#path-3"></use>
                                <rect stroke="#727274" stroke-width="1" stroke-linejoin="square" fill="#FFFFFF"
                                    fill-rule="evenodd" x="0.5" y="0.5" width="24.6" height="24.6" rx="2"></rect>
                            </g>
                            <g id="box" transform="translate(73.200000, 3.200000)">
                                <use fill="black" fill-opacity="1" filter="url(#filter-6)" xlink:href="#path-5"></use>
                                <rect stroke="#727274" stroke-width="1" stroke-linejoin="square" fill="#FFFFFF"
                                    fill-rule="evenodd" x="0.5" y="0.5" width="24.6" height="24.6" rx="2"></rect>
                            </g>
                            <g id="box" transform="translate(108.200000, 3.200000)">
                                <use fill="black" fill-opacity="1" filter="url(#filter-8)" xlink:href="#path-7"></use>
                                <rect stroke="#727274" stroke-width="1" stroke-linejoin="square" fill="#FFFFFF"
                                    fill-rule="evenodd" x="0.5" y="0.5" width="24.6" height="24.6" rx="2"></rect>
                            </g>
                        </g>
                        <text id="Registry" font-family="Roboto-Medium, Roboto" font-size="12" font-weight="400"
                            line-spacing="14" letter-spacing="0.18" fill="#222222">
                            <tspan x="32" y="25">Registry</tspan>
                        </text>
                    </g>
                    <g id="org_label" transform="translate(16.000000, 8.000000)">
                        <text id="organization" font-family="Roboto-Medium, Roboto" font-size="12" font-weight="400"
                            line-spacing="14" letter-spacing="0.18" fill="#727274">
                            <tspan x="0" y="32">organization</tspan>
                        </text>
                        <text id="acme" font-family="Roboto-Regular, Roboto" font-size="18" font-weight="normal"
                            line-spacing="24" letter-spacing="0.52" fill="#222222">
                            <tspan x="0" y="17">acme</tspan>
                        </text>
                    </g>
                </g>
                <g id="vcs_providers" transform="translate(16.000000, 16.000000)">
                    <rect id="Rectangle" stroke="#727274" fill="#FFFFFF" x="0.5" y="0.5" width="199" height="79" rx="2">
                    </rect>
                    <g id="Group" transform="translate(25.000000, 28.000000)">
                        <g id="azure_devops" fill="url(#linearGradient-9)" fill-rule="nonzero">
                            <g id="Group_19">
                                <path
                                    d="M20.5479452,4.23299087 L20.5479452,17.9754566 L15.4109589,22.6027397 L7.44863014,19.4144977 L7.44863014,22.5751142 L2.94063927,16.0981735 L16.0787671,17.2270548 L16.0787671,4.8533105 L20.5479452,4.23299087 Z M16.1689498,4.92363014 L8.79680365,0 L8.79680365,3.23093607 L2.02968037,5.418379 L0,8.2826484 L0,14.7859589 L2.90296804,16.1973744 L2.90296804,7.85821918 L16.1689498,4.92363014 Z"
                                    id="Vector_136"></path>
                            </g>
                        </g>
                        <g id="Group_23" transform="translate(41.095890, 1.027397)">
                            <path
                                d="M0.173152569,0.282556206 C0.311026288,0.102990173 0.513316416,-0.00123346889 0.725777557,1.10196042e-05 L21.8769622,0.00378935722 C22.0894233,0.00378935722 22.2917134,0.106757292 22.4295872,0.286323326 C22.5674609,0.467145066 22.6273568,0.704473599 22.5934535,0.938035013 L19.5387595,21.9121011 C19.4822539,22.3026259 19.1793838,22.588927 18.8222682,22.5901827 L4.03587692,22.5901827 C3.56462003,22.5826484 3.16343011,22.2059365 3.07867168,21.6898411 L0.0092862637,0.934267894 C-0.0246171098,0.70070648 0.0352788501,0.46212224 0.173152569,0.282556206 Z M8.94847574,15.0019481 L13.6802566,15.0019481 L14.8228003,7.59704673 L7.68953047,7.59704673 L8.94847574,15.0019481 Z"
                                id="Shape" fill="#2684FF"></path>
                            <path
                                d="M21.6283374,7.59704673 L14.8420122,7.59704673 L13.7107696,15.0019481 L8.94847574,15.0019481 L3.40301395,22.3390414 C3.57931149,22.507306 3.80420387,22.6002283 4.03587692,22.6027397 L18.8233983,22.6027397 C19.1793838,22.601484 19.4822539,22.3151829 19.5387595,21.9246582 L21.6283374,7.59704673 Z"
                                id="Path_23" fill="url(#linearGradient-10)" fill-rule="nonzero"></path>
                        </g>
                        <g id="Group_35" transform="translate(84.246575, 0.000000)" fill="#161514">
                            <path
                                d="M11.3002397,0 C5.06075342,0 0,5.42909417 0,12.1185138 C0,17.4627783 3.23784247,22.007221 7.72900685,23.6068648 C8.29407534,23.7159315 8.49976027,23.352376 8.49976027,23.0251762 C8.49976027,22.7343318 8.49071918,21.9708655 8.48506849,20.9650288 C5.3410274,21.6921397 4.67763699,19.341148 4.67763699,19.341148 C4.16455479,17.9475189 3.42318493,17.571845 3.42318493,17.571845 C2.39702055,16.8204971 3.50116438,16.8326156 3.50116438,16.8326156 C4.63469178,16.9174452 5.23140411,18.0808225 5.23140411,18.0808225 C6.2394863,19.9349552 7.87705479,19.4017405 8.52123288,19.0866592 C8.62407534,18.3110743 8.91565068,17.7657412 9.23886986,17.4748969 C6.72883562,17.1598155 4.09109589,16.1176233 4.09109589,11.4762325 C4.09109589,10.1553145 4.53071918,9.07676681 5.25400685,8.22847085 C5.13760274,7.92550801 4.74996575,6.6894196 5.36476027,5.02918322 C5.36476027,5.02918322 6.31294521,4.70198334 8.47263699,6.26527162 C9.37335616,5.99866432 10.3407534,5.86536067 11.3013699,5.85324215 C12.2619863,5.86536067 13.2282534,5.99866432 14.1312329,6.26527162 C16.2886644,4.70198334 17.2357192,5.02918322 17.2357192,5.02918322 C17.852774,6.6894196 17.465137,7.92550801 17.3487329,8.22847085 C18.0731507,9.07676681 18.5105137,10.1553145 18.5105137,11.4762325 C18.5105137,16.1297418 15.8671233,17.1598155 13.3503082,17.4627783 C13.7560274,17.8384523 14.1165411,18.5776816 14.1165411,19.7047034 C14.1165411,21.3164657 14.1029795,22.6252652 14.1029795,23.0251762 C14.1029795,23.352376 14.3075342,23.72805 14.8805137,23.6068648 C19.3671575,22.007221 22.6027397,17.4627783 22.6027397,12.1185138 C22.6027397,5.42909417 17.5419863,0 11.3002397,0 Z"
                                id="Vector_180"></path>
                        </g>
                        <g id="gitlab" transform="translate(127.397260, 1.027397)" fill-rule="nonzero">
                            <g id="Group_33">
                                <path
                                    d="M22.5620555,12.9212329 L21.2951911,8.70205479 L18.7897154,0.326484018 C18.7309492,0.125570776 18.5659517,0 18.3794819,0 C18.1930121,0 18.0280146,0.125570776 17.9681183,0.326484018 L15.4626426,8.68949772 L7.13817978,8.68949772 L4.63270408,0.326484018 C4.57393785,0.125570776 4.40894035,0 4.22247058,0 C4.0360008,0 3.87100331,0.125570776 3.81223707,0.326484018 L1.31128185,8.68949772 L0.044417504,12.9212329 C-0.0708547204,13.3105023 0.0557187025,13.7374429 0.356330582,13.9760274 L11.3015413,22.6027397 L22.2444918,13.9760274 C22.5473639,13.7374429 22.6750674,13.3105023 22.5620555,12.9212329"
                                    id="path46_2" fill="#FC6D26"></path>
                                <polygon id="path50" fill="#E24329"
                                    points="11.3015413 22.5901826 11.3015413 22.5901826 15.4637727 8.68949772 7.14157014 8.68949772">
                                </polygon>
                                <polygon id="path58" fill="#FC6D26"
                                    points="11.3015413 22.5901826 7.13817978 8.68949772 1.31354209 8.68949772">
                                </polygon>
                                <path
                                    d="M1.30902161,8.70205479 L1.30902161,8.70205479 L0.0421572643,12.9212329 C-0.0731149601,13.3105023 0.0534584628,13.7248858 0.355200462,13.9634703 L11.3015413,22.6027397 L1.30902161,8.70205479 Z"
                                    id="path66" fill="#FCA326"></path>
                                <path
                                    d="M1.31015173,8.70205479 L7.14270026,8.70205479 L4.63270408,0.326484018 C4.57393785,0.138127854 4.40781023,0 4.22247058,0 C4.0360008,0 3.87100331,0.138127854 3.81110695,0.326484018 L1.31015173,8.70205479 Z"
                                    id="path74" fill="#E24329"></path>
                                <polygon id="path78_3" fill="#FC6D26"
                                    points="11.3015413 22.5901826 15.4637727 8.68949772 21.2974513 8.68949772">
                                </polygon>
                                <path
                                    d="M21.294061,8.70205479 L21.294061,8.70205479 L22.5597952,12.9212329 C22.6761976,13.3105023 22.5496241,13.7248858 22.2478821,13.9634703 L11.3015413,22.5901826 L21.2906706,8.70205479 L21.294061,8.70205479 Z"
                                    id="path82" fill="#FCA326"></path>
                                <path
                                    d="M21.2963212,8.70205479 L15.4649028,8.70205479 L17.9703785,0.326484018 C18.0291448,0.138127854 18.1941422,0 18.380612,0 C18.5670818,0 18.7320793,0.138127854 18.7908455,0.326484018 L21.2963212,8.70205479 Z"
                                    id="path86" fill="#E24329"></path>
                            </g>
                        </g>
                    </g>
                </g>
                <g id="management" transform="translate(224.000000, 21.000000)">
                    <path id="Path-11"
                        d="M187,34.8287671 L187,35.8287671 L157,35.8287671 C154.514719,35.8287671 152.5,37.8434857 152.5,40.3287671 L152.5,90.5 L156.5,90.5 L152,99.5 L147.5,90.5 L151.5,90.5 L151.5,40.3287671 C151.5,37.291201 153.962434,34.8287671 157,34.8287671 L187,34.8287671 Z"
                        fill="#727274" fill-rule="nonzero"></path>
                    <path id="Path-11"
                        d="M128,34.8287671 L128,35.8287671 L98,35.8287671 C95.5147186,35.8287671 93.5,37.8434857 93.5,40.3287671 L93.5,90.5 L97.5,90.5 L93,99.5 L88.5,90.5 L92.5,90.5 L92.5,40.3287671 C92.5,37.291201 94.9624339,34.8287671 98,34.8287671 L128,34.8287671 Z"
                        transform="translate(110.500000, 67.164384) scale(-1, 1) translate(-110.500000, -67.164384) "
                        fill="#727274" fill-rule="nonzero"></path>
                    <path id="Path-12"
                        d="M8.52508407,30.3627723 L8.502,34.362 L33.0028019,34.5000079 L32.9971981,35.4999921 L8.497,35.362 L8.474649,39.362631 L-0.499992149,34.8122665 L8.52508407,30.3627723 Z"
                        fill="#727274" fill-rule="nonzero"></path>
                    <text id="MANAGE" font-family="Roboto-Medium, Roboto" font-size="6" font-weight="400"
                        line-spacing="14" letter-spacing="0.09" fill="#000000">
                        <tspan x="160" y="82">MANAGE</tspan>
                    </text>
                    <text id="CONFIGURE" font-family="Roboto-Medium, Roboto" font-size="6" font-weight="400"
                        line-spacing="14" letter-spacing="0.09" fill="#000000">
                        <tspan x="86" y="82">CONFIGURE</tspan>
                    </text>
                    <text id="PRODUCE" font-family="Roboto-Medium, Roboto" font-size="6" font-weight="400"
                        line-spacing="14" letter-spacing="0.09" fill="#000000">
                        <tspan x="2" y="19">PRODUCE</tspan>
                    </text>
                    <g id="producers" transform="translate(33.000000, 0.000000)">
                        <text id="SMEs" font-family="Roboto-Medium, Roboto" font-size="12" font-weight="400"
                            letter-spacing="0.18" fill="#222222">
                            <tspan x="15.2767188" y="67">SMEs</tspan>
                        </text>
                        <g id="box" transform="translate(6.000000, 6.000000)">
                            <use fill="black" fill-opacity="1" filter="url(#filter-12)" xlink:href="#path-11"></use>
                            <rect stroke="#727274" stroke-width="1" stroke-linejoin="square" fill="#FFFFFF"
                                fill-rule="evenodd" x="0.5" y="0.5" width="47" height="47" rx="2"></rect>
                        </g>
                        <g id="Users" transform="translate(14.000000, 18.000000)" fill="#000001">
                            <path
                                d="M12,0 C8.31866667,0 5.33333333,3.11111111 5.33333333,6.94444444 C5.33333333,10.7777778 8.31866667,13.8888889 12,13.8888889 C15.6813333,13.8888889 18.6666667,10.7777778 18.6666667,6.94444444 C18.6666667,3.11111111 15.6813333,0 12,0 Z M7.33333333,6.94444444 C7.33333333,4.26388889 9.42266667,2.08333333 12,2.08333333 C14.5773333,2.08333333 16.6666667,4.26388889 16.6666667,6.94444444 C16.6666667,9.625 14.5773333,11.8055556 12,11.8055556 C9.42266667,11.8055556 7.33333333,9.625 7.33333333,6.94444444 Z"
                                id="Shape"></path>
                            <path
                                d="M6.33333333,15.9722222 C2.836,15.9722222 0,18.9305556 0,22.5694444 L0,23.9583333 C0,24.5277778 0.448,25 1,25 C1.552,25 2,24.5277778 2,23.9583333 L2,22.5694444 C2,20.0833333 3.94,18.0555556 6.33333333,18.0555556 L17.6666667,18.0555556 C20.06,18.0555556 22,20.0833333 22,22.5694444 L22,23.9583333 C22,24.5277778 22.448,25 23,25 C23.552,25 24,24.5277778 24,23.9583333 L24,22.5694444 C24,18.9305556 21.164,15.9722222 17.6666667,15.9722222 L6.33333333,15.9722222 Z"
                                id="Path" fill-rule="nonzero"></path>
                            <path
                                d="M24.3333333,17.0138889 C24.3333333,16.4444444 24.7813333,15.9722222 25.3333333,15.9722222 L25.6666667,15.9722222 C29.164,15.9722222 32,18.9305556 32,22.5694444 L32,23.9583333 C32,24.5277778 31.552,25 31,25 C30.448,25 30,24.5277778 30,23.9583333 L30,22.5694444 C30,20.0833333 28.06,18.0555556 25.6666667,18.0555556 L25.3333333,18.0555556 C24.7813333,18.0555556 24.3333333,17.5833333 24.3333333,17.0138889 Z"
                                id="Path" fill-rule="nonzero"></path>
                            <path
                                d="M20,0 C19.448,0 19,0.472222222 19,1.04166667 C19,1.61111111 19.448,2.08333333 20,2.08333333 C22.5773333,2.08333333 24.6666667,4.26388889 24.6666667,6.94444444 C24.6666667,9.625 22.5773333,11.8055556 20,11.8055556 C19.448,11.8055556 19,12.2777778 19,12.8472222 C19,13.4166667 19.448,13.8888889 20,13.8888889 C23.6813333,13.8888889 26.6666667,10.7777778 26.6666667,6.94444444 C26.6666667,3.11111111 23.6813333,0 20,0 Z"
                                id="Path" fill-rule="nonzero"></path>
                        </g>
                    </g>
                    <g id="admins" transform="translate(187.000000, 0.000000)">
                        <g id="box" transform="translate(6.000000, 6.000000)">
                            <use fill="black" fill-opacity="1" filter="url(#filter-14)" xlink:href="#path-13"></use>
                            <rect stroke="#727274" stroke-width="1" stroke-linejoin="square" fill="#FFFFFF"
                                fill-rule="evenodd" x="0.5" y="0.5" width="47" height="47" rx="2"></rect>
                        </g>
                        <g id="Users" transform="translate(14.000000, 18.000000)" fill="#000001">
                            <path
                                d="M12,0 C8.31866667,0 5.33333333,3.11111111 5.33333333,6.94444444 C5.33333333,10.7777778 8.31866667,13.8888889 12,13.8888889 C15.6813333,13.8888889 18.6666667,10.7777778 18.6666667,6.94444444 C18.6666667,3.11111111 15.6813333,0 12,0 Z M7.33333333,6.94444444 C7.33333333,4.26388889 9.42266667,2.08333333 12,2.08333333 C14.5773333,2.08333333 16.6666667,4.26388889 16.6666667,6.94444444 C16.6666667,9.625 14.5773333,11.8055556 12,11.8055556 C9.42266667,11.8055556 7.33333333,9.625 7.33333333,6.94444444 Z"
                                id="Shape"></path>
                            <path
                                d="M6.33333333,15.9722222 C2.836,15.9722222 0,18.9305556 0,22.5694444 L0,23.9583333 C0,24.5277778 0.448,25 1,25 C1.552,25 2,24.5277778 2,23.9583333 L2,22.5694444 C2,20.0833333 3.94,18.0555556 6.33333333,18.0555556 L17.6666667,18.0555556 C20.06,18.0555556 22,20.0833333 22,22.5694444 L22,23.9583333 C22,24.5277778 22.448,25 23,25 C23.552,25 24,24.5277778 24,23.9583333 L24,22.5694444 C24,18.9305556 21.164,15.9722222 17.6666667,15.9722222 L6.33333333,15.9722222 Z"
                                id="Path" fill-rule="nonzero"></path>
                            <path
                                d="M24.3333333,17.0138889 C24.3333333,16.4444444 24.7813333,15.9722222 25.3333333,15.9722222 L25.6666667,15.9722222 C29.164,15.9722222 32,18.9305556 32,22.5694444 L32,23.9583333 C32,24.5277778 31.552,25 31,25 C30.448,25 30,24.5277778 30,23.9583333 L30,22.5694444 C30,20.0833333 28.06,18.0555556 25.6666667,18.0555556 L25.3333333,18.0555556 C24.7813333,18.0555556 24.3333333,17.5833333 24.3333333,17.0138889 Z"
                                id="Path" fill-rule="nonzero"></path>
                            <path
                                d="M20,0 C19.448,0 19,0.472222222 19,1.04166667 C19,1.61111111 19.448,2.08333333 20,2.08333333 C22.5773333,2.08333333 24.6666667,4.26388889 24.6666667,6.94444444 C24.6666667,9.625 22.5773333,11.8055556 20,11.8055556 C19.448,11.8055556 19,12.2777778 19,12.8472222 C19,13.4166667 19.448,13.8888889 20,13.8888889 C23.6813333,13.8888889 26.6666667,10.7777778 26.6666667,6.94444444 C26.6666667,3.11111111 23.6813333,0 20,0 Z"
                                id="Path" fill-rule="nonzero"></path>
                        </g>
                        <text font-family="Roboto-Medium, Roboto" font-size="12" font-weight="400" letter-spacing="0.18"
                            fill="#222222">
                            <tspan x="9.64066406" y="67">admins</tspan>
                        </text>
                    </g>
                </g>
                <g id="vcs_modules" transform="translate(10.000000, 96.000000)">
                    <g id="tf_vcs_network_module" transform="translate(0.000000, 234.500000)">
                        <g id="box" transform="translate(21.200000, 6.000000)">
                            <use fill="black" fill-opacity="1" filter="url(#filter-16)" xlink:href="#path-15"></use>
                            <rect stroke="#727274" stroke-width="1" stroke-linejoin="square" fill="#FFFFFF"
                                fill-rule="evenodd" x="0.5" y="0.5" width="168.6" height="47" rx="2"></rect>
                        </g>
                        <text id="terraform-azurerm-network" font-family="Roboto-Medium, Roboto" font-size="8"
                            font-weight="400" line-spacing="14" letter-spacing="0.12" fill="#222222">
                            <tspan x="78" y="21">terraform-azurerm-network</tspan>
                        </text>
                        <text id="v5.2.0" font-family="Roboto-Medium, Roboto" font-size="8" font-weight="400"
                            line-spacing="14" letter-spacing="0.12" fill="#222222">
                            <tspan x="138" y="39">v5.2.0</tspan>
                        </text>
                        <text id="v5.1.0" font-family="Roboto-Medium, Roboto" font-size="8" font-weight="400"
                            line-spacing="14" letter-spacing="0.12" fill="#222222">
                            <tspan x="90" y="39">v5.1.0</tspan>
                        </text>
                        <g id="Rectangle">
                            <use fill="black" fill-opacity="1" filter="url(#filter-18)" xlink:href="#path-17"></use>
                            <rect stroke="#727274" stroke-width="1" stroke-linejoin="square" fill="#FFFFFF"
                                fill-rule="evenodd" x="21.5" y="6.5" width="47" height="47" rx="2"></rect>
                        </g>
                        <g id="size=24_169" transform="translate(36.000000, 21.000000)" fill="#000001">
                            <path
                                d="M4.25,0.75 C4.25,0.34 3.914,0 3.5,0 C3.086,0 2.75,0.34 2.75,0.75 L2.75,11.58 C1.177,11.92 0,13.32 0,15 C0,16.93 1.567,18.5 3.5,18.5 C5.178,18.5 6.581,17.32 6.921,15.74 C9.368,15.65 11.474,14.76 12.994,13.24 C14.461,11.78 15.339,9.76 15.48,7.42 C17.063,7.09 18.25,5.68 18.25,4 C18.25,2.07 16.683,0.5 14.75,0.5 C12.817,0.5 11.25,2.07 11.25,4 C11.25,5.67 12.416,7.06 13.977,7.41 C13.841,9.39 13.098,11.02 11.933,12.18 C10.72,13.4 9.004,14.15 6.918,14.24 C6.624,12.91 5.578,11.87 4.25,11.58 L4.25,0.75 Z M14.75,6 C15.855,6 16.75,5.1 16.75,4 C16.75,2.9 15.855,2 14.75,2 C13.645,2 12.75,2.9 12.75,4 C12.75,5.1 13.645,6 14.75,6 Z M1.5,15 C1.5,13.9 2.395,13 3.5,13 C4.605,13 5.5,13.9 5.5,15 C5.5,16.1 4.605,17 3.5,17 C2.395,17 1.5,16.1 1.5,15 Z"
                                id="Path_337"></path>
                        </g>
                        <line x1="132" y1="30" x2="132" y2="46" id="Path-14" stroke="#727274"></line>
                        <g id="Path_697" transform="translate(164.000000, 35.000000)" fill="#000001">
                            <path
                                d="M2.00788093,1.5059107 C1.73079336,1.5059107 1.5059107,1.7317973 1.5059107,2.00788093 C1.5059107,2.28396456 1.73079336,2.50985117 2.00788093,2.50985117 L2.01290063,2.50985117 C2.2899882,2.50985117 2.51487087,2.28396456 2.51487087,2.00788093 C2.51487087,1.7317973 2.2899882,1.5059107 2.01290063,1.5059107 L2.00788093,1.5059107 Z"
                                id="Path" fill-rule="nonzero"></path>
                            <path
                                d="M1.38041814,0 C0.617925357,0 0,0.617423387 0,1.38041814 L0,4.60306704 C0,4.96950531 0.145571368,5.32088447 0.404086038,5.58190899 L4.4198479,9.59767086 C4.95896393,10.134779 5.83339608,10.134779 6.37251211,9.59767086 L9.59566298,6.37000226 C10.134779,5.83289411 10.134779,4.9594659 9.59566298,4.42235775 L5.57990111,0.406595889 C5.32088447,0.145571368 4.97000728,0 4.60407098,0 L1.38041814,0 Z M0.75295535,1.38041814 C0.75295535,1.03405868 1.03405868,0.75295535 1.38041814,0.75295535 L4.60407098,0.75295535 C4.77022313,0.75295535 4.92984966,0.81821148 5.04731069,0.938684336 L9.06307256,4.9544462 C9.308536,5.19539191 9.308536,5.5969681 9.06307256,5.83791381 L5.83992169,9.06558241 C5.59496022,9.30652812 5.19739979,9.30652812 4.95243832,9.06558241 L0.936676455,5.04982055 C0.819215421,4.92934769 0.75295535,4.76871722 0.75295535,4.60306704 L0.75295535,1.38041814 Z"
                                id="Shape"></path>
                        </g>
                        <g id="Path_697" transform="translate(116.000000, 35.000000)" fill="#000001">
                            <path
                                d="M2.00788093,1.5059107 C1.73079336,1.5059107 1.5059107,1.7317973 1.5059107,2.00788093 C1.5059107,2.28396456 1.73079336,2.50985117 2.00788093,2.50985117 L2.01290063,2.50985117 C2.2899882,2.50985117 2.51487087,2.28396456 2.51487087,2.00788093 C2.51487087,1.7317973 2.2899882,1.5059107 2.01290063,1.5059107 L2.00788093,1.5059107 Z"
                                id="Path" fill-rule="nonzero"></path>
                            <path
                                d="M1.38041814,0 C0.617925357,0 0,0.617423387 0,1.38041814 L0,4.60306704 C0,4.96950531 0.145571368,5.32088447 0.404086038,5.58190899 L4.4198479,9.59767086 C4.95896393,10.134779 5.83339608,10.134779 6.37251211,9.59767086 L9.59566298,6.37000226 C10.134779,5.83289411 10.134779,4.9594659 9.59566298,4.42235775 L5.57990111,0.406595889 C5.32088447,0.145571368 4.97000728,0 4.60407098,0 L1.38041814,0 Z M0.75295535,1.38041814 C0.75295535,1.03405868 1.03405868,0.75295535 1.38041814,0.75295535 L4.60407098,0.75295535 C4.77022313,0.75295535 4.92984966,0.81821148 5.04731069,0.938684336 L9.06307256,4.9544462 C9.308536,5.19539191 9.308536,5.5969681 9.06307256,5.83791381 L5.83992169,9.06558241 C5.59496022,9.30652812 5.19739979,9.30652812 4.95243832,9.06558241 L0.936676455,5.04982055 C0.819215421,4.92934769 0.75295535,4.76871722 0.75295535,4.60306704 L0.75295535,1.38041814 Z"
                                id="Shape"></path>
                        </g>
                    </g>
                    <g id="tf_vcs_caf_module" transform="translate(0.000000, 165.000000)">
                        <g id="box" transform="translate(21.200000, 6.000000)">
                            <use fill="black" fill-opacity="1" filter="url(#filter-20)" xlink:href="#path-19"></use>
                            <rect stroke="#727274" stroke-width="1" stroke-linejoin="square" fill="#FFFFFF"
                                fill-rule="evenodd" x="0.5" y="0.5" width="168.6" height="47" rx="2"></rect>
                        </g>
                        <text id="terraform-azure-caf" font-family="Roboto-Medium, Roboto" font-size="8"
                            font-weight="400" line-spacing="14" letter-spacing="0.12" fill="#222222">
                            <tspan x="78" y="21">terraform-azurerm-caf-log</tspan>
                        </text>
                        <text id="v2.3.0" font-family="Roboto-Medium, Roboto" font-size="8" font-weight="400"
                            line-spacing="14" letter-spacing="0.12" fill="#222222">
                            <tspan x="138" y="39">v2.3.0</tspan>
                        </text>
                        <text id="v2.2.0" font-family="Roboto-Medium, Roboto" font-size="8" font-weight="400"
                            line-spacing="14" letter-spacing="0.12" fill="#222222">
                            <tspan x="90" y="39">v2.2.0</tspan>
                        </text>
                        <g id="Rectangle">
                            <use fill="black" fill-opacity="1" filter="url(#filter-22)" xlink:href="#path-21"></use>
                            <rect stroke="#727274" stroke-width="1" stroke-linejoin="square" fill="#FFFFFF"
                                fill-rule="evenodd" x="21.5" y="6.5" width="47" height="47" rx="2"></rect>
                        </g>
                        <g id="size=24_169" transform="translate(36.000000, 21.000000)" fill="#000001">
                            <path
                                d="M4.25,0.75 C4.25,0.34 3.914,0 3.5,0 C3.086,0 2.75,0.34 2.75,0.75 L2.75,11.58 C1.177,11.92 0,13.32 0,15 C0,16.93 1.567,18.5 3.5,18.5 C5.178,18.5 6.581,17.32 6.921,15.74 C9.368,15.65 11.474,14.76 12.994,13.24 C14.461,11.78 15.339,9.76 15.48,7.42 C17.063,7.09 18.25,5.68 18.25,4 C18.25,2.07 16.683,0.5 14.75,0.5 C12.817,0.5 11.25,2.07 11.25,4 C11.25,5.67 12.416,7.06 13.977,7.41 C13.841,9.39 13.098,11.02 11.933,12.18 C10.72,13.4 9.004,14.15 6.918,14.24 C6.624,12.91 5.578,11.87 4.25,11.58 L4.25,0.75 Z M14.75,6 C15.855,6 16.75,5.1 16.75,4 C16.75,2.9 15.855,2 14.75,2 C13.645,2 12.75,2.9 12.75,4 C12.75,5.1 13.645,6 14.75,6 Z M1.5,15 C1.5,13.9 2.395,13 3.5,13 C4.605,13 5.5,13.9 5.5,15 C5.5,16.1 4.605,17 3.5,17 C2.395,17 1.5,16.1 1.5,15 Z"
                                id="Path_337"></path>
                        </g>
                        <line x1="132" y1="30" x2="132" y2="46" id="Path-14" stroke="#727274"></line>
                        <g id="Path_697" transform="translate(164.000000, 35.000000)" fill="#000001">
                            <path
                                d="M2.00788093,1.5059107 C1.73079336,1.5059107 1.5059107,1.7317973 1.5059107,2.00788093 C1.5059107,2.28396456 1.73079336,2.50985117 2.00788093,2.50985117 L2.01290063,2.50985117 C2.2899882,2.50985117 2.51487087,2.28396456 2.51487087,2.00788093 C2.51487087,1.7317973 2.2899882,1.5059107 2.01290063,1.5059107 L2.00788093,1.5059107 Z"
                                id="Path" fill-rule="nonzero"></path>
                            <path
                                d="M1.38041814,0 C0.617925357,0 0,0.617423387 0,1.38041814 L0,4.60306704 C0,4.96950531 0.145571368,5.32088447 0.404086038,5.58190899 L4.4198479,9.59767086 C4.95896393,10.134779 5.83339608,10.134779 6.37251211,9.59767086 L9.59566298,6.37000226 C10.134779,5.83289411 10.134779,4.9594659 9.59566298,4.42235775 L5.57990111,0.406595889 C5.32088447,0.145571368 4.97000728,0 4.60407098,0 L1.38041814,0 Z M0.75295535,1.38041814 C0.75295535,1.03405868 1.03405868,0.75295535 1.38041814,0.75295535 L4.60407098,0.75295535 C4.77022313,0.75295535 4.92984966,0.81821148 5.04731069,0.938684336 L9.06307256,4.9544462 C9.308536,5.19539191 9.308536,5.5969681 9.06307256,5.83791381 L5.83992169,9.06558241 C5.59496022,9.30652812 5.19739979,9.30652812 4.95243832,9.06558241 L0.936676455,5.04982055 C0.819215421,4.92934769 0.75295535,4.76871722 0.75295535,4.60306704 L0.75295535,1.38041814 Z"
                                id="Shape"></path>
                        </g>
                        <g id="Path_697" transform="translate(116.000000, 35.000000)" fill="#000001">
                            <path
                                d="M2.00788093,1.5059107 C1.73079336,1.5059107 1.5059107,1.7317973 1.5059107,2.00788093 C1.5059107,2.28396456 1.73079336,2.50985117 2.00788093,2.50985117 L2.01290063,2.50985117 C2.2899882,2.50985117 2.51487087,2.28396456 2.51487087,2.00788093 C2.51487087,1.7317973 2.2899882,1.5059107 2.01290063,1.5059107 L2.00788093,1.5059107 Z"
                                id="Path" fill-rule="nonzero"></path>
                            <path
                                d="M1.38041814,0 C0.617925357,0 0,0.617423387 0,1.38041814 L0,4.60306704 C0,4.96950531 0.145571368,5.32088447 0.404086038,5.58190899 L4.4198479,9.59767086 C4.95896393,10.134779 5.83339608,10.134779 6.37251211,9.59767086 L9.59566298,6.37000226 C10.134779,5.83289411 10.134779,4.9594659 9.59566298,4.42235775 L5.57990111,0.406595889 C5.32088447,0.145571368 4.97000728,0 4.60407098,0 L1.38041814,0 Z M0.75295535,1.38041814 C0.75295535,1.03405868 1.03405868,0.75295535 1.38041814,0.75295535 L4.60407098,0.75295535 C4.77022313,0.75295535 4.92984966,0.81821148 5.04731069,0.938684336 L9.06307256,4.9544462 C9.308536,5.19539191 9.308536,5.5969681 9.06307256,5.83791381 L5.83992169,9.06558241 C5.59496022,9.30652812 5.19739979,9.30652812 4.95243832,9.06558241 L0.936676455,5.04982055 C0.819215421,4.92934769 0.75295535,4.76871722 0.75295535,4.60306704 L0.75295535,1.38041814 Z"
                                id="Shape"></path>
                        </g>
                    </g>
                    <g id="tf_vcs_aks_module" transform="translate(0.000000, 95.500000)">
                        <g id="box" transform="translate(21.200000, 6.000000)">
                            <use fill="black" fill-opacity="1" filter="url(#filter-24)" xlink:href="#path-23"></use>
                            <rect stroke="#727274" stroke-width="1" stroke-linejoin="square" fill="#FFFFFF"
                                fill-rule="evenodd" x="0.5" y="0.5" width="168.6" height="47" rx="2"></rect>
                        </g>
                        <text id="terraform-azurerm-aks" font-family="Roboto-Medium, Roboto" font-size="8"
                            font-weight="400" line-spacing="14" letter-spacing="0.12" fill="#222222">
                            <tspan x="78" y="21">terraform-azurerm-aks</tspan>
                        </text>
                        <text id="6.7.1" font-family="Roboto-Medium, Roboto" font-size="8" font-weight="400"
                            line-spacing="14" letter-spacing="0.12" fill="#222222">
                            <tspan x="129" y="39">v6.7.1</tspan>
                        </text>
                        <text id="v6.7.0" font-family="Roboto-Medium, Roboto" font-size="8" font-weight="400"
                            line-spacing="14" letter-spacing="0.12" fill="#222222">
                            <tspan x="79" y="39">v6.7.0</tspan>
                        </text>
                        <g id="Rectangle">
                            <use fill="black" fill-opacity="1" filter="url(#filter-26)" xlink:href="#path-25"></use>
                            <rect stroke="#727274" stroke-width="1" stroke-linejoin="square" fill="#FFFFFF"
                                fill-rule="evenodd" x="21.5" y="6.5" width="47" height="47" rx="2"></rect>
                        </g>
                        <g id="size=24_169" transform="translate(36.000000, 20.000000)" fill="#000001">
                            <path
                                d="M4.25,0.75 C4.25,0.34 3.914,0 3.5,0 C3.086,0 2.75,0.34 2.75,0.75 L2.75,11.58 C1.177,11.92 0,13.32 0,15 C0,16.93 1.567,18.5 3.5,18.5 C5.178,18.5 6.581,17.32 6.921,15.74 C9.368,15.65 11.474,14.76 12.994,13.24 C14.461,11.78 15.339,9.76 15.48,7.42 C17.063,7.09 18.25,5.68 18.25,4 C18.25,2.07 16.683,0.5 14.75,0.5 C12.817,0.5 11.25,2.07 11.25,4 C11.25,5.67 12.416,7.06 13.977,7.41 C13.841,9.39 13.098,11.02 11.933,12.18 C10.72,13.4 9.004,14.15 6.918,14.24 C6.624,12.91 5.578,11.87 4.25,11.58 L4.25,0.75 Z M14.75,6 C15.855,6 16.75,5.1 16.75,4 C16.75,2.9 15.855,2 14.75,2 C13.645,2 12.75,2.9 12.75,4 C12.75,5.1 13.645,6 14.75,6 Z M1.5,15 C1.5,13.9 2.395,13 3.5,13 C4.605,13 5.5,13.9 5.5,15 C5.5,16.1 4.605,17 3.5,17 C2.395,17 1.5,16.1 1.5,15 Z"
                                id="Path_337"></path>
                        </g>
                        <line x1="125" y1="30" x2="125" y2="46" id="Path-14" stroke="#727274"></line>
                        <g id="Path_697" transform="translate(164.000000, 35.000000)" fill="#000001">
                            <path
                                d="M2.00788093,1.5059107 C1.73079336,1.5059107 1.5059107,1.7317973 1.5059107,2.00788093 C1.5059107,2.28396456 1.73079336,2.50985117 2.00788093,2.50985117 L2.01290063,2.50985117 C2.2899882,2.50985117 2.51487087,2.28396456 2.51487087,2.00788093 C2.51487087,1.7317973 2.2899882,1.5059107 2.01290063,1.5059107 L2.00788093,1.5059107 Z"
                                id="Path" fill-rule="nonzero"></path>
                            <path
                                d="M1.38041814,0 C0.617925357,0 0,0.617423387 0,1.38041814 L0,4.60306704 C0,4.96950531 0.145571368,5.32088447 0.404086038,5.58190899 L4.4198479,9.59767086 C4.95896393,10.134779 5.83339608,10.134779 6.37251211,9.59767086 L9.59566298,6.37000226 C10.134779,5.83289411 10.134779,4.9594659 9.59566298,4.42235775 L5.57990111,0.406595889 C5.32088447,0.145571368 4.97000728,0 4.60407098,0 L1.38041814,0 Z M0.75295535,1.38041814 C0.75295535,1.03405868 1.03405868,0.75295535 1.38041814,0.75295535 L4.60407098,0.75295535 C4.77022313,0.75295535 4.92984966,0.81821148 5.04731069,0.938684336 L9.06307256,4.9544462 C9.308536,5.19539191 9.308536,5.5969681 9.06307256,5.83791381 L5.83992169,9.06558241 C5.59496022,9.30652812 5.19739979,9.30652812 4.95243832,9.06558241 L0.936676455,5.04982055 C0.819215421,4.92934769 0.75295535,4.76871722 0.75295535,4.60306704 L0.75295535,1.38041814 Z"
                                id="Shape"></path>
                        </g>
                        <g id="Path_697" transform="translate(109.000000, 35.000000)" fill="#000001">
                            <path
                                d="M2.00788093,1.5059107 C1.73079336,1.5059107 1.5059107,1.7317973 1.5059107,2.00788093 C1.5059107,2.28396456 1.73079336,2.50985117 2.00788093,2.50985117 L2.01290063,2.50985117 C2.2899882,2.50985117 2.51487087,2.28396456 2.51487087,2.00788093 C2.51487087,1.7317973 2.2899882,1.5059107 2.01290063,1.5059107 L2.00788093,1.5059107 Z"
                                id="Path" fill-rule="nonzero"></path>
                            <path
                                d="M1.38041814,0 C0.617925357,0 0,0.617423387 0,1.38041814 L0,4.60306704 C0,4.96950531 0.145571368,5.32088447 0.404086038,5.58190899 L4.4198479,9.59767086 C4.95896393,10.134779 5.83339608,10.134779 6.37251211,9.59767086 L9.59566298,6.37000226 C10.134779,5.83289411 10.134779,4.9594659 9.59566298,4.42235775 L5.57990111,0.406595889 C5.32088447,0.145571368 4.97000728,0 4.60407098,0 L1.38041814,0 Z M0.75295535,1.38041814 C0.75295535,1.03405868 1.03405868,0.75295535 1.38041814,0.75295535 L4.60407098,0.75295535 C4.77022313,0.75295535 4.92984966,0.81821148 5.04731069,0.938684336 L9.06307256,4.9544462 C9.308536,5.19539191 9.308536,5.5969681 9.06307256,5.83791381 L5.83992169,9.06558241 C5.59496022,9.30652812 5.19739979,9.30652812 4.95243832,9.06558241 L0.936676455,5.04982055 C0.819215421,4.92934769 0.75295535,4.76871722 0.75295535,4.60306704 L0.75295535,1.38041814 Z"
                                id="Shape"></path>
                        </g>
                    </g>
                    <g id="tf_vcs_backup_module" transform="translate(0.000000, 26.000000)">
                        <g id="box" transform="translate(21.200000, 6.000000)">
                            <use fill="black" fill-opacity="1" filter="url(#filter-28)" xlink:href="#path-27"></use>
                            <rect stroke="#727274" stroke-width="1" stroke-linejoin="square" fill="#FFFFFF"
                                fill-rule="evenodd" x="0.5" y="0.5" width="168.6" height="47" rx="2"></rect>
                        </g>
                        <text id="terraform-azure-backup" font-family="Roboto-Medium, Roboto" font-size="8"
                            font-weight="400" line-spacing="14" letter-spacing="0.12" fill="#222222">
                            <tspan x="78" y="21">terraform-azurerm-backup</tspan>
                        </text>
                        <text id="v1.0.2" font-family="Roboto-Medium, Roboto" font-size="8" font-weight="400"
                            line-spacing="14" letter-spacing="0.12" fill="#222222">
                            <tspan x="138" y="39">v1.0.2</tspan>
                        </text>
                        <text id="v1.0.1" font-family="Roboto-Medium, Roboto" font-size="8" font-weight="400"
                            line-spacing="14" letter-spacing="0.12" fill="#222222">
                            <tspan x="90" y="39">v1.0.1</tspan>
                        </text>
                        <g id="Rectangle">
                            <use fill="black" fill-opacity="1" filter="url(#filter-30)" xlink:href="#path-29"></use>
                            <rect stroke="#727274" stroke-width="1" stroke-linejoin="square" fill="#FFFFFF"
                                fill-rule="evenodd" x="21.5" y="6.5" width="47" height="47" rx="2"></rect>
                        </g>
                        <g id="size=24_169" transform="translate(36.000000, 21.000000)" fill="#000001">
                            <path
                                d="M4.25,0.75 C4.25,0.34 3.914,0 3.5,0 C3.086,0 2.75,0.34 2.75,0.75 L2.75,11.58 C1.177,11.92 0,13.32 0,15 C0,16.93 1.567,18.5 3.5,18.5 C5.178,18.5 6.581,17.32 6.921,15.74 C9.368,15.65 11.474,14.76 12.994,13.24 C14.461,11.78 15.339,9.76 15.48,7.42 C17.063,7.09 18.25,5.68 18.25,4 C18.25,2.07 16.683,0.5 14.75,0.5 C12.817,0.5 11.25,2.07 11.25,4 C11.25,5.67 12.416,7.06 13.977,7.41 C13.841,9.39 13.098,11.02 11.933,12.18 C10.72,13.4 9.004,14.15 6.918,14.24 C6.624,12.91 5.578,11.87 4.25,11.58 L4.25,0.75 Z M14.75,6 C15.855,6 16.75,5.1 16.75,4 C16.75,2.9 15.855,2 14.75,2 C13.645,2 12.75,2.9 12.75,4 C12.75,5.1 13.645,6 14.75,6 Z M1.5,15 C1.5,13.9 2.395,13 3.5,13 C4.605,13 5.5,13.9 5.5,15 C5.5,16.1 4.605,17 3.5,17 C2.395,17 1.5,16.1 1.5,15 Z"
                                id="Path_337"></path>
                        </g>
                        <line x1="132" y1="30" x2="132" y2="46" id="Path-14" stroke="#727274"></line>
                        <g id="Path_697" transform="translate(164.000000, 35.000000)" fill="#000001">
                            <path
                                d="M2.00788093,1.5059107 C1.73079336,1.5059107 1.5059107,1.7317973 1.5059107,2.00788093 C1.5059107,2.28396456 1.73079336,2.50985117 2.00788093,2.50985117 L2.01290063,2.50985117 C2.2899882,2.50985117 2.51487087,2.28396456 2.51487087,2.00788093 C2.51487087,1.7317973 2.2899882,1.5059107 2.01290063,1.5059107 L2.00788093,1.5059107 Z"
                                id="Path" fill-rule="nonzero"></path>
                            <path
                                d="M1.38041814,0 C0.617925357,0 0,0.617423387 0,1.38041814 L0,4.60306704 C0,4.96950531 0.145571368,5.32088447 0.404086038,5.58190899 L4.4198479,9.59767086 C4.95896393,10.134779 5.83339608,10.134779 6.37251211,9.59767086 L9.59566298,6.37000226 C10.134779,5.83289411 10.134779,4.9594659 9.59566298,4.42235775 L5.57990111,0.406595889 C5.32088447,0.145571368 4.97000728,0 4.60407098,0 L1.38041814,0 Z M0.75295535,1.38041814 C0.75295535,1.03405868 1.03405868,0.75295535 1.38041814,0.75295535 L4.60407098,0.75295535 C4.77022313,0.75295535 4.92984966,0.81821148 5.04731069,0.938684336 L9.06307256,4.9544462 C9.308536,5.19539191 9.308536,5.5969681 9.06307256,5.83791381 L5.83992169,9.06558241 C5.59496022,9.30652812 5.19739979,9.30652812 4.95243832,9.06558241 L0.936676455,5.04982055 C0.819215421,4.92934769 0.75295535,4.76871722 0.75295535,4.60306704 L0.75295535,1.38041814 Z"
                                id="Shape"></path>
                        </g>
                        <g id="Path_697" transform="translate(116.000000, 35.000000)" fill="#000001">
                            <path
                                d="M2.00788093,1.5059107 C1.73079336,1.5059107 1.5059107,1.7317973 1.5059107,2.00788093 C1.5059107,2.28396456 1.73079336,2.50985117 2.00788093,2.50985117 L2.01290063,2.50985117 C2.2899882,2.50985117 2.51487087,2.28396456 2.51487087,2.00788093 C2.51487087,1.7317973 2.2899882,1.5059107 2.01290063,1.5059107 L2.00788093,1.5059107 Z"
                                id="Path" fill-rule="nonzero"></path>
                            <path
                                d="M1.38041814,0 C0.617925357,0 0,0.617423387 0,1.38041814 L0,4.60306704 C0,4.96950531 0.145571368,5.32088447 0.404086038,5.58190899 L4.4198479,9.59767086 C4.95896393,10.134779 5.83339608,10.134779 6.37251211,9.59767086 L9.59566298,6.37000226 C10.134779,5.83289411 10.134779,4.9594659 9.59566298,4.42235775 L5.57990111,0.406595889 C5.32088447,0.145571368 4.97000728,0 4.60407098,0 L1.38041814,0 Z M0.75295535,1.38041814 C0.75295535,1.03405868 1.03405868,0.75295535 1.38041814,0.75295535 L4.60407098,0.75295535 C4.77022313,0.75295535 4.92984966,0.81821148 5.04731069,0.938684336 L9.06307256,4.9544462 C9.308536,5.19539191 9.308536,5.5969681 9.06307256,5.83791381 L5.83992169,9.06558241 C5.59496022,9.30652812 5.19739979,9.30652812 4.95243832,9.06558241 L0.936676455,5.04982055 C0.819215421,4.92934769 0.75295535,4.76871722 0.75295535,4.60306704 L0.75295535,1.38041814 Z"
                                id="Shape"></path>
                        </g>
                    </g>
                    <path
                        d="M14,0 L14,60 L21,60 L14,60 L14,124 L21,124 L14,124 L14,198 L21,198 L14,198 L14,259 C14,261.761424 16.2385763,264 19,264 L22,264 L22,264"
                        id="Path-15" stroke="#727274"></path>
                </g>
                <path d="M248,364 L205,364 C202.238576,364 200,361.761424 200,359 L200,280 L200,280" id="Path-5"
                    stroke="#0091FF"
                    transform="translate(224.000000, 322.000000) scale(-1, 1) translate(-224.000000, -322.000000) ">
                </path>
                <path d="M248,219.5 L202,219.5 C200.895431,219.5 200,220.395431 200,221.5 L200,229.5 L200,293 L200,293"
                    id="Path-5" stroke="#0091FF"
                    transform="translate(224.000000, 256.250000) scale(-1, -1) translate(-224.000000, -256.250000) ">
                </path>
                <path
                    d="M264,224 L218,224 C216.895431,224 216,223.104569 216,222 L216,218 C216,216.895431 215.104569,216 214,216 L200,216 L200,216"
                    id="Path-5" stroke="#0091FF"
                    transform="translate(232.000000, 220.000000) scale(-1, 1) translate(-232.000000, -220.000000) ">
                </path>
                <path
                    d="M290.338192,152 L247.338192,152 C244.576769,152 242.338192,154.238576 242.338192,157 L242.338192,208 L242.338192,214 C242.338192,215.104569 241.442762,216 240.338192,216 L200,216 L200,216"
                    id="Path-5" stroke="#0091FF"
                    transform="translate(245.169096, 184.000000) scale(-1, 1) translate(-245.169096, -184.000000) ">
                </path>
            </g>
        </g>
    </g>
</svg>