<?xml version="1.0" encoding="UTF-8"?>
<svg width="472px" height="471px" viewBox="0 0 472 471" version="1.1" xmlns="http://www.w3.org/2000/svg" xmlns:xlink="http://www.w3.org/1999/xlink">
    <title>icon</title>
    <g id="Page-1" stroke="none" stroke-width="1" fill="none" fill-rule="evenodd">
        <g id="icon" transform="translate(0.400000, -0.000000)" fill="#FFFFFF" fill-rule="nonzero">
            <g id="hashicorp" transform="translate(235.500000, 235.500000) scale(-1, 1) rotate(-180.000000) translate(-235.500000, -235.500000) translate(0.000000, 0.000000)">
                <path d="M182.455648,463.6 C175.157422,459.6 167.964967,455.7 166.484168,454.9 C164.897597,454.1 161.195598,452.1 158.022457,450.4 C154.955086,448.7 147.656861,444.7 141.839434,441.5 C136.022008,438.3 129.146867,434.6 126.502583,433.1 C123.858298,431.7 114.761958,426.8 106.406018,422.2 C97.9443072,417.6 90.3287671,413.4 89.482596,412.9 C88.6364249,412.4 68.1167752,401.2 44.0008983,388.1 L0.10577139,364.2 L-5.63461971e-15,236.4 C-5.63461971e-15,166 0.21154278,107.9 0.42308556,107.2 C0.740399731,106.4 1.90388502,105.4 3.1731417,104.9 C4.33662699,104.4 6.13474062,103.5 6.98091174,103 C9.51942511,101.3 57.9627218,75 58.4915787,75 C58.7031215,75 61.9820346,73.1 65.7898046,70.9 C69.5975747,68.6 72.9822592,67 73.2995733,67.4 C73.6168875,67.7 73.9342017,125.5 73.9342017,195.8 L73.9342017,323.6 L76.6842578,325.1 C78.1650573,326 92.3384235,333.7 107.992589,342.2 C182.455648,382.8 195.465529,389.9 195.994386,390.4 C196.734786,391 196.840557,469.8 196.100157,470.5 C195.888614,470.8 189.753874,467.7 182.455648,463.6 Z" id="Path"></path>
                <path d="M274.370986,368.8 L274.053672,266.5 L235.447114,266.5 L196.840557,266.5 L196.629014,302.5 C196.523243,322.3 196.417471,339.5 196.417471,340.7 C196.3117,342.9 191.869302,340.7 153.051201,319.3 C151.253088,318.3 143.743319,314.2 136.23355,310.1 L122.589041,302.7 L122.589041,171.9 C122.589041,100 122.906355,40.7 123.223669,40.1 C123.752526,39.3 171.561195,12.8 187.849989,4.2 C190.494274,2.9 193.032787,1.4 193.561644,0.9 C194.196272,0.4 195.148215,0 195.677072,0 C196.523243,0 196.840557,31.3 196.734786,101.9 L196.629014,203.7 L235.552886,203.8 L274.582529,203.8 L274.582529,165.9 L274.582529,128 L279.659555,130.5 C282.409611,131.9 286.217382,133.9 288.121267,135 C293.409836,138.1 331.593308,158.9 336.987649,161.7 C339.631934,163.1 343.333932,165.1 345.237817,166.2 L348.622502,168.2 L348.410959,299.7 L348.093645,431.3 L324.295082,444.2 C311.17943,451.4 298.592634,458.2 296.265664,459.5 C293.938693,460.7 288.332809,463.8 283.78464,466.4 C279.23647,468.9 275.322928,471 275.111386,471 C274.794071,471 274.476757,425 274.370986,368.8 Z" id="Path"></path>
                <path d="M397.065798,276.4 L396.748484,147.9 L361.843925,128.8 C342.699304,118.3 325.775881,109.1 324.295082,108.4 C322.814283,107.6 311.17943,101.3 298.381091,94.2 L275.111386,81.5 L274.794071,41.2 C274.6883,19.1 274.899843,1 275.322928,1 C275.851785,1.1 278.390299,2.3 281.034583,3.8 C283.78464,5.3 295.948349,11.9 308.006288,18.5 C320.169998,25.1 330.324051,30.8 330.429823,31.2 C330.641365,31.7 331.275994,32 331.804851,32 C332.333708,32 362.16124,48.1 398.017741,67.7 C433.980013,87.3 465.076802,104.3 467.19223,105.4 L471,107.4 L471,236.2 L471,365 L467.19223,367.1 C465.076802,368.3 461.374804,370.4 458.83629,371.7 C456.297777,373 441.595554,381.1 426.152931,389.6 C410.710308,398.1 397.911969,405 397.700427,405 C397.488884,405 397.17157,347.1 397.065798,276.4 Z" id="Path"></path>
            </g>
        </g>
    </g>
</svg>