<?xml version="1.0" encoding="UTF-8"?>
<svg width="960px" height="400px" viewBox="0 0 960 400" version="1.1" xmlns="http://www.w3.org/2000/svg" xmlns:xlink="http://www.w3.org/1999/xlink">
    <title>terraform_cloud_cicd_gcp</title>
    <defs>
        <rect id="path-1" x="0" y="0" width="128" height="64" rx="2"></rect>
        <filter x="-9.0%" y="-14.8%" width="118.0%" height="135.9%" filterUnits="objectBoundingBox" id="filter-2">
            <feMorphology radius="1" operator="dilate" in="SourceAlpha" result="shadowSpreadOuter1"></feMorphology>
            <feOffset dx="0" dy="2" in="shadowSpreadOuter1" result="shadowOffsetOuter1"></feOffset>
            <feGaussianBlur stdDeviation="2.5" in="shadowOffsetOuter1" result="shadowBlurOuter1"></feGaussianBlur>
            <feComposite in="shadowBlurOuter1" in2="SourceAlpha" operator="out" result="shadowBlurOuter1"></feComposite>
            <feColorMatrix values="0 0 0 0 0   0 0 0 0 0   0 0 0 0 0  0 0 0 0.1 0" type="matrix" in="shadowBlurOuter1"></feColorMatrix>
        </filter>
        <rect id="path-3" x="0" y="0" width="128" height="64" rx="2"></rect>
        <filter x="-9.0%" y="-14.8%" width="118.0%" height="135.9%" filterUnits="objectBoundingBox" id="filter-4">
            <feMorphology radius="1" operator="dilate" in="SourceAlpha" result="shadowSpreadOuter1"></feMorphology>
            <feOffset dx="0" dy="2" in="shadowSpreadOuter1" result="shadowOffsetOuter1"></feOffset>
            <feGaussianBlur stdDeviation="2.5" in="shadowOffsetOuter1" result="shadowBlurOuter1"></feGaussianBlur>
            <feComposite in="shadowBlurOuter1" in2="SourceAlpha" operator="out" result="shadowBlurOuter1"></feComposite>
            <feColorMatrix values="0 0 0 0 0   0 0 0 0 0   0 0 0 0 0  0 0 0 0.1 0" type="matrix" in="shadowBlurOuter1"></feColorMatrix>
        </filter>
        <rect id="path-5" x="0" y="0" width="128" height="64" rx="2"></rect>
        <filter x="-9.0%" y="-14.8%" width="118.0%" height="135.9%" filterUnits="objectBoundingBox" id="filter-6">
            <feMorphology radius="1" operator="dilate" in="SourceAlpha" result="shadowSpreadOuter1"></feMorphology>
            <feOffset dx="0" dy="2" in="shadowSpreadOuter1" result="shadowOffsetOuter1"></feOffset>
            <feGaussianBlur stdDeviation="2.5" in="shadowOffsetOuter1" result="shadowBlurOuter1"></feGaussianBlur>
            <feComposite in="shadowBlurOuter1" in2="SourceAlpha" operator="out" result="shadowBlurOuter1"></feComposite>
            <feColorMatrix values="0 0 0 0 0   0 0 0 0 0   0 0 0 0 0  0 0 0 0.1 0" type="matrix" in="shadowBlurOuter1"></feColorMatrix>
        </filter>
        <rect id="path-7" x="0" y="0" width="128" height="64" rx="2"></rect>
        <filter x="-9.0%" y="-14.8%" width="118.0%" height="135.9%" filterUnits="objectBoundingBox" id="filter-8">
            <feMorphology radius="1" operator="dilate" in="SourceAlpha" result="shadowSpreadOuter1"></feMorphology>
            <feOffset dx="0" dy="2" in="shadowSpreadOuter1" result="shadowOffsetOuter1"></feOffset>
            <feGaussianBlur stdDeviation="2.5" in="shadowOffsetOuter1" result="shadowBlurOuter1"></feGaussianBlur>
            <feComposite in="shadowBlurOuter1" in2="SourceAlpha" operator="out" result="shadowBlurOuter1"></feComposite>
            <feColorMatrix values="0 0 0 0 0   0 0 0 0 0   0 0 0 0 0  0 0 0 0.1 0" type="matrix" in="shadowBlurOuter1"></feColorMatrix>
        </filter>
        <rect id="path-9" x="0" y="0" width="128" height="64" rx="2"></rect>
        <filter x="-9.0%" y="-14.8%" width="118.0%" height="135.9%" filterUnits="objectBoundingBox" id="filter-10">
            <feMorphology radius="1" operator="dilate" in="SourceAlpha" result="shadowSpreadOuter1"></feMorphology>
            <feOffset dx="0" dy="2" in="shadowSpreadOuter1" result="shadowOffsetOuter1"></feOffset>
            <feGaussianBlur stdDeviation="2.5" in="shadowOffsetOuter1" result="shadowBlurOuter1"></feGaussianBlur>
            <feComposite in="shadowBlurOuter1" in2="SourceAlpha" operator="out" result="shadowBlurOuter1"></feComposite>
            <feColorMatrix values="0 0 0 0 0   0 0 0 0 0   0 0 0 0 0  0 0 0 0.1 0" type="matrix" in="shadowBlurOuter1"></feColorMatrix>
        </filter>
        <rect id="path-11" x="0" y="0" width="128" height="64" rx="2"></rect>
        <filter x="-9.0%" y="-14.8%" width="118.0%" height="135.9%" filterUnits="objectBoundingBox" id="filter-12">
            <feMorphology radius="1" operator="dilate" in="SourceAlpha" result="shadowSpreadOuter1"></feMorphology>
            <feOffset dx="0" dy="2" in="shadowSpreadOuter1" result="shadowOffsetOuter1"></feOffset>
            <feGaussianBlur stdDeviation="2.5" in="shadowOffsetOuter1" result="shadowBlurOuter1"></feGaussianBlur>
            <feComposite in="shadowBlurOuter1" in2="SourceAlpha" operator="out" result="shadowBlurOuter1"></feComposite>
            <feColorMatrix values="0 0 0 0 0   0 0 0 0 0   0 0 0 0 0  0 0 0 0.1 0" type="matrix" in="shadowBlurOuter1"></feColorMatrix>
        </filter>
        <rect id="path-13" x="-3.55271368e-15" y="5.32907052e-15" width="89.6" height="108.8" rx="2"></rect>
        <filter x="-12.8%" y="-8.7%" width="125.7%" height="121.1%" filterUnits="objectBoundingBox" id="filter-14">
            <feMorphology radius="1" operator="dilate" in="SourceAlpha" result="shadowSpreadOuter1"></feMorphology>
            <feOffset dx="0" dy="2" in="shadowSpreadOuter1" result="shadowOffsetOuter1"></feOffset>
            <feGaussianBlur stdDeviation="2.5" in="shadowOffsetOuter1" result="shadowBlurOuter1"></feGaussianBlur>
            <feComposite in="shadowBlurOuter1" in2="SourceAlpha" operator="out" result="shadowBlurOuter1"></feComposite>
            <feColorMatrix values="0 0 0 0 0   0 0 0 0 0   0 0 0 0 0  0 0 0 0.1 0" type="matrix" in="shadowBlurOuter1"></feColorMatrix>
        </filter>
        <linearGradient x1="50%" y1="99.6888889%" x2="50%" y2="0.188888889%" id="linearGradient-15">
            <stop stop-color="#0078D4" offset="0%"></stop>
            <stop stop-color="#1380DA" offset="16%"></stop>
            <stop stop-color="#3C91E5" offset="53%"></stop>
            <stop stop-color="#559CEC" offset="82%"></stop>
            <stop stop-color="#5EA0EF" offset="100%"></stop>
        </linearGradient>
    </defs>
    <g id="aws" stroke="none" stroke-width="1" fill="none" fill-rule="evenodd">
        <g id="terraform_cloud_cicd_azure" transform="translate(-81.000000, -80.000000)">
            <g id="terraform_cloud_cicd_gcp" transform="translate(81.000000, 80.000000)">
                <g id="svg-background" fill="#F2F2F3">
                    <rect id="rectangle" x="0" y="0" width="960" height="400"></rect>
                </g>
                <g id="whole">
                    <line x1="80" y1="80" x2="80" y2="392" id="Path-45" stroke="#727274"></line>
                    <line x1="240" y1="80" x2="240" y2="392" id="Path-45" stroke="#727274"></line>
                    <line x1="720" y1="80" x2="720" y2="392" id="Path-45" stroke="#727274"></line>
                    <line x1="880" y1="80" x2="880" y2="392" id="Path-45" stroke="#727274"></line>
                    <line x1="560" y1="80" x2="560" y2="392" id="Path-45" stroke="#727274"></line>
                    <line x1="400" y1="80" x2="400" y2="392" id="Path-45" stroke="#727274"></line>
                    <g id="box" transform="translate(16.000000, 8.000000)">
                        <use fill="black" fill-opacity="1" filter="url(#filter-2)" xlink:href="#path-1"></use>
                        <rect stroke="#727274" stroke-width="1" stroke-linejoin="square" fill="#FFFFFF" fill-rule="evenodd" x="0.5" y="0.5" width="127" height="63" rx="2"></rect>
                    </g>
                    <g id="box" transform="translate(176.000000, 8.000000)">
                        <use fill="black" fill-opacity="1" filter="url(#filter-4)" xlink:href="#path-3"></use>
                        <rect stroke="#727274" stroke-width="1" stroke-linejoin="square" fill="#FFFFFF" fill-rule="evenodd" x="0.5" y="0.5" width="127" height="63" rx="2"></rect>
                    </g>
                    <g id="box" transform="translate(336.000000, 8.000000)">
                        <use fill="black" fill-opacity="1" filter="url(#filter-6)" xlink:href="#path-5"></use>
                        <rect stroke="#727274" stroke-width="1" stroke-linejoin="square" fill="#FFFFFF" fill-rule="evenodd" x="0.5" y="0.5" width="127" height="63" rx="2"></rect>
                    </g>
                    <g id="box" transform="translate(496.000000, 8.000000)">
                        <use fill="black" fill-opacity="1" filter="url(#filter-8)" xlink:href="#path-7"></use>
                        <rect stroke="#727274" stroke-width="1" stroke-linejoin="square" fill="#FFFFFF" fill-rule="evenodd" x="0.5" y="0.5" width="127" height="63" rx="2"></rect>
                    </g>
                    <g id="box" transform="translate(656.000000, 8.000000)">
                        <use fill="black" fill-opacity="1" filter="url(#filter-10)" xlink:href="#path-9"></use>
                        <rect stroke="#727274" stroke-width="1" stroke-linejoin="square" fill="#FFFFFF" fill-rule="evenodd" x="0.5" y="0.5" width="127" height="63" rx="2"></rect>
                    </g>
                    <g id="box" transform="translate(816.000000, 8.000000)">
                        <use fill="black" fill-opacity="1" filter="url(#filter-12)" xlink:href="#path-11"></use>
                        <rect stroke="#727274" stroke-width="1" stroke-linejoin="square" fill="#FFFFFF" fill-rule="evenodd" x="0.5" y="0.5" width="127" height="63" rx="2"></rect>
                    </g>
                    <g id="Group" transform="translate(184.000000, 100.000000)">
                        <g id="box" transform="translate(11.200000, 13.600000)">
                            <use fill="black" fill-opacity="1" filter="url(#filter-14)" xlink:href="#path-13"></use>
                            <rect stroke="#727274" stroke-width="1" stroke-linejoin="square" fill="#FFFFFF" fill-rule="evenodd" x="0.5" y="0.5" width="88.6" height="107.8" rx="2"></rect>
                        </g>
                        <g id="sn-catalogue" transform="translate(22.000000, 28.000000)">
                            <text id="SERVICE-MANAGEMENT" font-family="Roboto-Medium, Roboto" font-size="6" font-weight="400" line-spacing="9" letter-spacing="0.09" fill="#000000">
                                <tspan x="20.8694922" y="77">POLICIES</tspan>
                            </text>
                            <g id="pac" transform="translate(2.000000, 44.000000)">
                                <rect id="Rectangle" stroke="#D1EBFF" fill="#FFFFFF" x="0" y="0" width="64" height="24" rx="2"></rect>
                                <g id="Group-3" transform="translate(10.000000, 6.000000)" fill="#1D1E1F">
                                    <g id="policy-libraries-icon" transform="translate(18.000000, 0.000000)" stroke="#1D1E1F" stroke-linecap="round" stroke-linejoin="round" stroke-width="0.3">
                                        <path d="M4.46134692,0.0960989209 C4.8051146,-0.0320329736 5.18353458,-0.0320329736 5.52730226,0.0960989209 L8.99561098,1.3888249 C9.59268248,1.61138033 9.98864918,2.18153243 9.98864918,2.81876663 L9.98864918,6.02958461 C9.98864918,7.54567011 9.17757087,8.82556567 8.26627311,9.78888765 C7.35093827,10.7566213 6.28955273,11.4531631 5.68613843,11.8095914 C5.25641842,12.0634695 4.73223076,12.0634695 4.30251075,11.8095914 C3.69909645,11.4531631 2.63771091,10.7566213 1.72233445,9.78888765 C0.811053342,8.82556567 0,7.54567011 0,6.02958461 L0,2.81876663 C0,2.18153243 0.395958378,1.61138033 0.993063178,1.3888249 L4.46134692,0.0960989209 Z M5.23659095,0.876065922 C5.08032686,0.817823773 4.90832232,0.817823773 4.75205823,0.876065922 L1.28378281,2.16878858 C1.01236624,2.26995694 0.832387432,2.52911245 0.832387432,2.81876663 L0.832387432,6.02958461 C0.832387432,7.24061676 1.4829981,8.32463491 2.32703895,9.216871 C3.16698446,10.1048619 4.1545955,10.7554559 4.72584635,11.0929058 C4.89442145,11.1924593 5.09422773,11.1924593 5.26280283,11.0929058 C5.83405368,10.7554559 6.82166472,10.1048619 7.66162688,9.216871 C8.50566773,8.32463491 9.15626175,7.24061676 9.15626175,6.02958461 L9.15626175,2.81876663 C9.15626175,2.52911245 8.97629959,2.26995694 8.70485805,2.16878858 L5.23659095,0.876065922 Z" id="Shape"></path>
                                    </g>
                                    <g id="Path_607">
                                        <path d="M6,3.81818182 C4.79509091,3.81818182 3.81818182,4.79454545 3.81818182,6 C3.81818182,7.20545455 4.79509091,8.18181818 6,8.18181818 C7.20490909,8.18181818 8.18181818,7.20545455 8.18181818,6 C8.18181818,4.79454545 7.20490909,3.81818182 6,3.81818182 Z M4.63636364,6 C4.63636364,5.24727273 5.24672727,4.63636364 6,4.63636364 C6.75327273,4.63636364 7.36363636,5.24727273 7.36363636,6 C7.36363636,6.75272727 6.75327273,7.36363636 6,7.36363636 C5.24672727,7.36363636 4.63636364,6.75272727 4.63636364,6 Z" id="Shape"></path>
                                        <path d="M5.72727273,0 C5.04927273,0 4.5,0.550909091 4.5,1.22727273 L4.5,1.32545455 C4.24145455,1.40727273 3.99272727,1.51090909 3.75490909,1.63090909 L3.68563636,1.56545455 C3.20672727,1.08545455 2.42945455,1.08545455 1.95,1.56545455 L1.56436364,1.95272727 C1.08545455,2.42727273 1.08545455,3.20727273 1.56436364,3.68727273 L1.63363636,3.75272727 C1.51090909,3.99272727 1.40727273,4.24363636 1.32436364,4.5 L1.22727273,4.5 C0.549272727,4.5 0,5.05090909 0,5.72727273 L0,6.27272727 C0,6.94909091 0.549272727,7.5 1.22727273,7.5 L1.32436364,7.5 C1.40727273,7.75636364 1.51090909,8.00727273 1.63363636,8.24727273 L1.56436364,8.31272727 C1.08545455,8.79272727 1.08545455,9.57272727 1.56436364,10.0472727 L1.95,10.4345455 C2.42945455,10.9145455 3.20672727,10.9145455 3.68563636,10.4345455 L3.75490909,10.3690909 C3.99218182,10.4890909 4.24145455,10.5927273 4.5,10.6745455 L4.5,10.7727273 C4.5,11.4490909 5.04927273,12 5.72727273,12 L6.27272727,12 C6.95072727,12 7.5,11.4490909 7.5,10.7727273 L7.5,10.6745455 C7.75854545,10.5927273 8.00727273,10.4890909 8.24509091,10.3690909 L8.31436364,10.4345455 C8.79327273,10.9145455 9.57054545,10.9145455 10.05,10.4345455 L10.4356364,10.0472727 C10.9145455,9.57272727 10.9145455,8.79272727 10.4356364,8.31272727 L10.3663636,8.24727273 C10.4890909,8.00727273 10.5927273,7.75636364 10.6756364,7.5 L10.7727273,7.5 C11.4507273,7.5 12,6.94909091 12,6.27272727 L12,5.72727273 C12,5.05090909 11.4507273,4.5 10.7727273,4.5 L10.6756364,4.5 C10.5927273,4.24363636 10.4890909,3.99272727 10.3663636,3.75272727 L10.4356364,3.68727273 C10.9145455,3.20727273 10.9145455,2.42727273 10.4356364,1.95272727 L10.05,1.56545455 C9.57054545,1.08545455 8.79327273,1.08545455 8.31436364,1.56545455 L8.24509091,1.63090909 C8.00727273,1.51090909 7.75854545,1.40727273 7.5,1.32545455 L7.5,1.22727273 C7.5,0.550909091 6.95072727,0 6.27272727,0 L5.72727273,0 Z M5.31818182,1.22727273 C5.31818182,1.00363636 5.50145455,0.818181818 5.72727273,0.818181818 L6.27272727,0.818181818 C6.49854545,0.818181818 6.68181818,1.00363636 6.68181818,1.22727273 L6.68181818,1.63090909 C6.68181818,1.82181818 6.81,1.98545455 6.99218182,2.02909091 C7.38927273,2.12727273 7.76345455,2.28545455 8.10545455,2.49272727 C8.26636364,2.59090909 8.47254545,2.56363636 8.60563636,2.43272727 L8.89254545,2.14363636 C9.05236364,1.98545455 9.31145455,1.98545455 9.47127273,2.14363636 L9.85690909,2.53090909 C10.0167273,2.68909091 10.0167273,2.94545455 9.85690909,3.10909091 L9.56945455,3.39272727 C9.43690909,3.52909091 9.41127273,3.73636364 9.50836364,3.89454545 C9.714,4.23818182 9.87109091,4.60909091 9.96981818,5.00727273 C10.0150909,5.19272727 10.1792727,5.31818182 10.3669091,5.31818182 L10.7727273,5.31818182 C10.9985455,5.31818182 11.1818182,5.50363636 11.1818182,5.72727273 L11.1818182,6.27272727 C11.1818182,6.49636364 10.9985455,6.68181818 10.7727273,6.68181818 L10.3669091,6.68181818 C10.1792727,6.68181818 10.0150909,6.80727273 9.96981818,6.99272727 C9.87109091,7.39090909 9.714,7.76181818 9.50836364,8.10545455 C9.41181818,8.26363636 9.43690909,8.47090909 9.56945455,8.60727273 L9.85690909,8.89090909 C10.0167273,9.05454545 10.0167273,9.31090909 9.85690909,9.46909091 L9.47127273,9.85636364 C9.31145455,10.0145455 9.05236364,10.0145455 8.89254545,9.85636364 L8.60563636,9.56727273 C8.47254545,9.43636364 8.26636364,9.40909091 8.10545455,9.50727273 C7.76345455,9.71454545 7.38927273,9.87272727 6.99218182,9.97090909 C6.81,10.0145455 6.68181818,10.1781818 6.68181818,10.3690909 L6.68181818,10.7727273 C6.68181818,10.9963636 6.49854545,11.1818182 6.27272727,11.1818182 L5.72727273,11.1818182 C5.50145455,11.1818182 5.31818182,10.9963636 5.31818182,10.7727273 L5.31818182,10.3690909 C5.31818182,10.1781818 5.19,10.0145455 5.00781818,9.97090909 C4.61072727,9.87272727 4.23654545,9.71454545 3.89454545,9.50727273 C3.73363636,9.40909091 3.52745455,9.43636364 3.39436364,9.56727273 L3.10745455,9.85636364 C2.94763636,10.0145455 2.68854545,10.0145455 2.52872727,9.85636364 L2.14309091,9.46909091 C1.98327273,9.31090909 1.98327273,9.05454545 2.14309091,8.89090909 L2.43054545,8.60727273 C2.56309091,8.47090909 2.58818182,8.26363636 2.49163636,8.10545455 C2.286,7.76181818 2.12890909,7.39090909 2.03018182,6.99272727 C1.98490909,6.80727273 1.82072727,6.68181818 1.63309091,6.68181818 L1.22727273,6.68181818 C1.00145455,6.68181818 0.818181818,6.49636364 0.818181818,6.27272727 L0.818181818,5.72727273 C0.818181818,5.50363636 1.00145455,5.31818182 1.22727273,5.31818182 L1.63309091,5.31818182 C1.82072727,5.31818182 1.98490909,5.19272727 2.03018182,5.00727273 C2.12890909,4.60909091 2.286,4.23818182 2.49163636,3.89454545 C2.58872727,3.73636364 2.56309091,3.52909091 2.43054545,3.39272727 L2.14309091,3.10909091 C1.98327273,2.94545455 1.98327273,2.68909091 2.14309091,2.53090909 L2.52872727,2.14363636 C2.68854545,1.98545455 2.94763636,1.98545455 3.10745455,2.14363636 L3.39436364,2.43272727 C3.52745455,2.56363636 3.73363636,2.59090909 3.89454545,2.49272727 C4.23654545,2.28545455 4.61072727,2.12727273 5.00781818,2.02909091 C5.19,1.98545455 5.31818182,1.82181818 5.31818182,1.63090909 L5.31818182,1.22727273 Z" id="Shape"></path>
                                    </g>
                                    <g id="check" transform="translate(33.988649, 0.000000)">
                                        <path d="M8.23125,0.75 L8.8125,0.75 C9.74475,0.75 10.5,1.5075 10.5,2.4375 L10.5,10.3125 C10.5,11.2425 9.74475,12 8.8125,12 L1.6875,12 C0.75525,12 0,11.2425 0,10.3125 L0,2.4375 C0,1.5075 0.75525,0.75 1.6875,0.75 L2.26875,0.75 C2.35575,0.3225 2.73375,0 3.1875,0 L7.3125,0 C7.76625,0 8.14425,0.3225 8.23125,0.75 Z M3.375,1.875 L3.375,1.125 L7.125,1.125 L7.125,1.875 L3.375,1.875 Z M8.085,4.665 C8.30475,4.8825 8.30475,5.2425 8.085,5.46 L4.71,8.835 C4.49025,9.0525 4.13475,9.0525 3.915,8.835 L2.415,7.335 C2.19525,7.1175 2.19525,6.7575 2.415,6.54 C2.63475,6.3225 2.99025,6.3225 3.21,6.54 L4.3125,7.6425 L7.29,4.665 C7.50975,4.4475 7.86525,4.4475 8.085,4.665 Z" id="Path_168"></path>
                                    </g>
                                </g>
                            </g>
                            <text id="SERVICE-MANAGEMENT" font-family="Roboto-Medium, Roboto" font-size="6" font-weight="400" line-spacing="9" letter-spacing="0.09" fill="#000000">
                                <tspan x="7.72099609" y="33">SERVICE CATALOG</tspan>
                            </text>
                            <g id="iac" transform="translate(2.000000, 0.000000)">
                                <rect id="Rectangle" stroke="#D1EBFF" fill="#FFFFFF" x="0" y="0" width="64" height="24" rx="2"></rect>
                                <g id="Group-3" transform="translate(17.000000, 6.000000)" fill="#1D1E1F">
                                    <g id="modules-icon">
                                        <polygon id="Path" fill-rule="nonzero" points="6 3.6 2.4 5.1528 2.4378 8.4 5.9622 6.8262"></polygon>
                                        <path d="M0,3.882 L8.4,0 L8.3124,8.0658 L0.0876,12 L0,3.882 Z M1.2,4.518 L7.2,1.8 L7.1376,7.446 L1.2624,10.2 L1.2,4.518 Z" id="Shape"></path>
                                    </g>
                                    <g id="providers-icon" transform="translate(18.400000, 0.000000)">
                                        <path d="M6,0 C2.688,0 0,2.688 0,6 C0,9.312 2.688,12 6,12 C9.312,12 12,9.312 12,6 C12,2.688 9.312,0 6,0 Z M6.582,2.8668 L8.3778,1.83 C7.82496953,1.51363205 7.2143495,1.31124813 6.582,1.2348 L6.582,2.8668 L6.582,2.8668 Z M5.418,3.5388 L5.418,1.2348 C4.77826356,1.31206719 4.16082987,1.5182186 3.603,1.8408 L3.603,4.5864 L5.418,3.5388 L5.418,3.5388 Z M2.439,5.2584 L2.439,2.7822 C1.64617426,3.65680126 1.20486097,4.79374399 1.2,5.9742 L2.439,5.2584 L2.439,5.2584 Z M2.439,6.6024 L2.439,9.2178 C1.92480388,8.6499153 1.55424808,7.96703096 1.3584,7.2264 L2.439,6.6024 L2.439,6.6024 Z M3.603,8.6562 L3.603,5.9304 L5.418,4.8828 L5.418,7.6086 L3.603,8.6562 Z M6.582,6.9366 L6.582,4.2108 L8.421,3.1488 L8.421,5.8746 L6.582,6.9366 Z M9.585,5.2026 L9.585,2.8092 C10.0505067,3.33110846 10.3961892,3.94854483 10.5978,4.6182 L9.585,5.2026 L9.585,5.2026 Z M6.582,8.2806 L8.421,7.2186 L8.421,10.1448 C7.869,10.4688 7.2462,10.6848 6.582,10.7652 L6.582,8.28 L6.582,8.2806 Z M9.585,6.5466 L9.585,9.1908 C10.4042526,8.27342441 10.8385339,7.07565877 10.7976,5.8464 L9.5856,6.5466 L9.585,6.5466 Z M5.418,8.9526 L3.468,10.0782 C4.05994138,10.4470414 4.72558278,10.681552 5.418,10.7652 L5.418,8.952 L5.418,8.9526 Z" id="Shape"></path>
                                    </g>
                                </g>
                            </g>
                        </g>
                    </g>
                    <g id="azdo_logo" transform="translate(388.000000, 28.000000)" fill="url(#linearGradient-15)" fill-rule="nonzero">
                        <g id="Group_19">
                            <path d="M24,4.49466667 L24,19.0866667 L18,24 L8.7,20.6146667 L8.7,23.9706667 L3.43466667,17.0933333 L18.78,18.292 L18.78,5.15333333 L24,4.49466667 Z M18.8853333,5.228 L10.2746667,0 L10.2746667,3.43066667 L2.37066667,5.75333333 L0,8.79466667 L0,15.7 L3.39066667,17.1986667 L3.39066667,8.344 L18.8853333,5.228 Z" id="Vector_136"></path>
                        </g>
                    </g>
                    <g id="gcp_logo" transform="translate(865.000000, 28.000000)" fill-rule="nonzero">
                        <g id="Group_31">
                            <path d="M19.62385,6.75133669 L23.3974971,3.75161722 L22.7330592,2.92669437 C19.6973431,0.256944042 15.442241,-0.672968994 11.5621039,0.496921599 C7.68196677,1.6518136 4.66874856,4.77152184 3.60684787,8.65615856 C3.54535362,8.88113752 4.23078952,8.46117679 4.53376118,8.55116838 L9.74727362,7.69624833 C9.74727362,7.69624833 10.0022498,7.44127217 10.1507359,7.2762876 C12.469519,4.75652325 16.4021513,4.41155551 19.0809008,6.57135353 L19.62385,6.75133669 Z" id="Shape_3" fill="#EA4335"></path>
                            <path d="M26.2712283,8.59616417 C25.6712844,6.40636896 24.4413994,4.4265541 22.7300595,2.92669437 L19.0704017,6.55635493 C20.6152573,7.81623711 21.4956749,9.70606037 21.4581784,11.6858752 L21.4581784,12.3458135 C23.2565103,12.3458135 24.7158738,13.7856789 24.7158738,15.5705119 C24.7158738,17.3703436 23.2565103,18.810209 21.4581784,18.810209 L14.9442876,18.810209 L14.2948483,18.885202 L14.2948483,23.8947335 L14.9442876,23.9997236 L21.4581784,23.9997236 C25.1928292,24.0297208 28.5060193,21.6149467 29.6144157,18.0752777 C30.722812,14.5356087 29.3639391,10.6809692 26.2712283,8.59616417 Z" id="Shape_4" fill="#4285F4"></path>
                            <path d="M8.42139762,23.9997236 L14.9352884,23.9997236 L14.9352884,18.810209 L8.42139762,18.810209 C7.95794096,18.810209 7.49898388,18.6752216 7.07602344,18.4802398 L6.161109,18.7652132 L3.53635446,21.3599705 L3.30687592,22.2598864 C4.77973818,23.354784 6.57657014,23.9997236 8.42139762,23.9997236 Z" id="Shape_5" fill="#34A853"></path>
                            <path d="M8.42139762,7.14130023 C4.80373594,7.17129742 1.59853568,9.46608281 0.443643687,12.885763 C-0.711248309,16.2904446 0.439144108,20.0700911 3.30687592,22.2598864 L7.08502259,18.4802398 C5.76514603,17.8952945 4.9987177,16.500425 5.20269863,15.0755582 C5.40667955,13.6506915 6.53307421,12.5407953 7.96694012,12.3308149 C9.40230588,12.1208345 10.7986753,12.885763 11.3941196,14.2056396 L15.1737661,10.4409916 C13.5659165,8.35618661 11.0671502,7.14130023 8.42139762,7.14130023 Z" id="Shape_6" fill="#FBBC05"></path>
                        </g>
                    </g>
                    <g id="Logo-Group_9" transform="translate(709.000000, 28.000000)" fill="#7B42BC">
                        <polygon id="Vector_34" points="7.25578947 4.22947368 13.7968421 8.01578947 13.7968421 15.5936842 7.25578947 11.8052632"></polygon>
                        <polygon id="Vector_35" points="14.5136842 8.01578947 14.5136842 15.5936842 21.0526316 11.8052632 21.0526316 4.22947368"></polygon>
                        <polygon id="Vector_36" points="0 0 0 7.57578947 6.53894737 11.3652632 6.53894737 3.78947368"></polygon>
                        <polygon id="Vector_37" points="7.25578947 20.2115789 13.7947368 24 13.7947368 16.4736842 13.7947368 16.4242105 7.25578947 12.6347368"></polygon>
                    </g>
                    <g id="sn-logo-color" transform="translate(190.000000, 33.000000)">
                        <path d="M24.0620563,4.49676286 C22.9759443,4.49676286 22.0509436,4.88055946 21.3069615,5.4861155 L21.3069615,4.59768886 L18.7926076,4.59768886 L18.7926076,14.3889004 L21.4074245,14.3889004 L21.4074245,8.13102502 C21.7694619,7.62593203 22.6740922,6.91944998 23.7805746,6.91944998 C24.1745564,6.91944998 24.5347419,6.94815371 24.8301125,7.07639455 L24.8301125,4.56389254 C24.5801123,4.52037399 24.3236306,4.49676286 24.0620563,4.49676286 Z" id="Path" fill="#030404"></path>
                        <path d="M1.26666768,11.400935 C1.9305571,12.006954 2.95602088,12.3699173 3.94166982,12.3699173 C4.64583705,12.3699173 5.18889304,12.0268615 5.18889304,11.5426018 C5.18889304,10.0689895 0.46250037,10.593527 0.46250037,7.44398744 C0.46250037,5.56667112 2.27222404,4.39583685 4.2032441,4.39583685 C5.47037475,4.39583685 6.85833882,4.8800965 7.50185785,5.38472653 L6.27500502,7.2828762 C5.77222684,6.91944998 5.10833742,6.61667196 4.40417019,6.61667196 C3.6805585,6.61667196 3.07685431,6.89907959 3.07685431,7.40370963 C3.07685431,8.67593287 7.80324698,8.17130283 7.80324698,11.5625092 C7.80324698,13.4402885 5.97315293,14.5907524 3.9217624,14.5907524 C2.57407613,14.5907524 1.14629721,14.1264002 0,13.2787143 L1.26666768,11.400935 Z" id="Path" fill="#030404"></path>
                        <path d="M10.9796384,8.23148807 C11.1000089,7.34306143 11.9851948,6.51528299 13.0713068,6.51528299 C14.1370483,6.51528299 14.9213082,7.36343182 15.0018639,8.23148807 L10.9796384,8.23148807 Z M17.676866,9.40232234 C17.676866,6.67685719 15.7662163,4.39583685 13.0713068,4.39583685 C10.1750081,4.39583685 8.3245437,6.7777832 8.3245437,9.50324834 C8.3245437,12.5717693 10.5166751,14.5907524 13.4328811,14.5907524 C14.9412157,14.5907524 16.490291,13.9652889 17.4356621,12.8342695 L15.947235,11.3402868 C15.4847346,11.8453798 14.5995487,12.4713063 13.4935293,12.4713063 C12.1055652,12.4713063 10.9995458,11.5222314 10.858805,10.1495452 L17.6166808,10.1495452 C17.6564956,9.92732276 17.676866,9.66482255 17.676866,9.40232234 Z" id="Shape" fill="#030404"></path>
                        <polygon id="Path" fill="#030404" points="31.061136 10.5731566 33.7361381 4.59768886 36.4514181 4.59768886 31.9662293 14.3889004 30.1560426 14.3889004 25.6708539 4.59768886 28.3865968 4.59768886"></polygon>
                        <path d="M38.6467902,-3.88578059e-16 C39.5921613,-3.88578059e-16 40.3565138,0.726852433 40.3565138,1.6754643 C40.3565138,2.62453914 39.5921613,3.35092861 38.6467902,3.35092861 C37.701882,3.35092861 36.9375296,2.62453914 36.9375296,1.6754643 C36.9375296,0.726852433 37.701882,-3.88578059e-16 38.6467902,-3.88578059e-16 Z" id="Path" fill="#030404"></path>
                        <rect id="Rectangle" fill="#030404" x="37.3393817" y="4.59768886" width="2.61481691" height="9.79121154"></rect>
                        <path d="M50.7648554,12.3902877 C49.6185582,13.9245482 48.1704089,14.5907524 46.3403148,14.5907524 C43.3231828,14.5907524 41.110681,12.3296395 41.110681,9.50324834 C41.110681,6.65648681 43.383368,4.39583685 46.3602223,4.39583685 C48.0495755,4.39583685 49.558373,5.18333748 50.4630033,6.35417175 L48.6130019,7.98935824 C48.0898533,7.30278362 47.3055934,6.81806101 46.3602223,6.81806101 C44.8518877,6.81806101 43.7254979,8.00926567 43.7254979,9.50324834 C43.7254979,11.0375088 44.8315173,12.1680653 46.4204075,12.1680653 C47.4866121,12.1680653 48.3310572,11.5222314 48.7537427,10.8763976 L50.7648554,12.3902877 Z" id="Path" fill="#030404"></path>
                        <path d="M57.8273611,8.23148807 C57.7472684,7.36343182 56.9625456,6.51528299 55.896804,6.51528299 C54.810692,6.51528299 53.9255061,7.34306143 53.8051356,8.23148807 L57.8273611,8.23148807 Z M60.2611593,12.8342695 C59.3153252,13.9652889 57.7671758,14.5907524 56.2588413,14.5907524 C53.3426353,14.5907524 51.1505039,12.5717693 51.1505039,9.50324834 C51.1505039,6.7777832 53.0005054,4.39583685 55.896804,4.39583685 C58.5917135,4.39583685 60.5023632,6.67685719 60.5023632,9.40232234 C60.5023632,9.66482255 60.4824558,9.92732276 60.441715,10.1495452 L53.6843022,10.1495452 C53.8250431,11.5222314 54.9315254,12.4713063 56.3190265,12.4713063 C57.4255089,12.4713063 58.3102318,11.8453798 58.7731952,11.3402868 L60.2611593,12.8342695 Z" id="Shape" fill="#030404"></path>
                        <path d="M61.5417159,14.3889004 L61.5417159,4.59768886 L64.0556068,4.59768886 L64.0556068,5.38472653 C64.8000518,4.77917049 65.7250526,4.39583685 66.8111646,4.39583685 C68.1588508,4.39583685 69.3852407,5.00092993 70.189871,5.97037515 C70.833853,6.73750539 71.1954273,7.72685803 71.1954273,9.40232234 L71.1954273,14.3889004 L68.5810734,14.3889004 L68.5810734,9.20047032 C68.5810734,8.23148807 68.3597769,7.72685803 67.9977396,7.36343182 C67.6556097,7.02037599 67.1329241,6.81806101 66.5296829,6.81806101 C65.4232005,6.81806101 64.5185701,7.52500602 64.1565328,8.02963605 L64.1565328,14.3889004 L61.5417159,14.3889004 Z" id="Path" fill="#030404"></path>
                        <path d="M77.8945068,12.97964 C76.2023758,12.97964 75.0440415,11.7055649 75.0440415,10.1291748 C75.0440415,8.55278462 76.2023758,7.25695025 77.8945068,7.25695025 C79.5875637,7.25695025 80.744972,8.55278462 80.744972,10.1291748 C80.744972,11.7055649 79.5875637,12.97964 77.8945068,12.97964 Z M77.9278401,4.39574179 C74.8037635,4.37778128 72.2199652,6.93426481 72.1935763,10.0699155 C72.1801503,11.730102 72.8708916,13.2287143 73.9843184,14.2824188 C74.3894114,14.6648265 75.0153378,14.7023266 75.454227,14.3601967 C76.1033016,13.8537148 76.9366356,13.5513997 77.8945068,13.5513997 C78.8523779,13.5513997 79.6857119,13.8537148 80.3347865,14.3601967 C80.7778424,14.7051044 81.4060836,14.6611228 81.8134914,14.2740855 C82.9107145,13.2310291 83.5959002,11.754639 83.5959002,10.1180636 C83.5959002,6.96945002 81.060713,4.41389242 77.9278401,4.39574179 Z" id="Shape" fill="#73C050"></path>
                        <polygon id="Path" fill="#030404" points="88.7695155 14.3889004 86.8222917 14.3889004 82.9394182 4.59768886 85.5500684 4.59768886 87.6787738 10.1930637 89.7662755 4.59768886 91.9482217 4.59768886 94.0167419 10.1930637 96.1644288 4.59768886 98.775079 4.59768886 94.8922055 14.3889004 92.9449818 14.3889004 90.8574801 8.81343298"></polygon>
                        <path d="M98.5848011,13.1176031 L98.8523939,13.1176031 C98.9514681,13.1176031 99.0315607,13.0333438 99.0315607,12.9277881 C99.0315607,12.8208436 98.9514681,12.7375102 98.8523939,12.7375102 L98.5848011,12.7375102 L98.5848011,13.1176031 Z M98.8056346,13.2847329 L98.5848011,13.2847329 L98.5848011,13.699085 L98.3982269,13.699085 L98.3982269,12.5625101 L98.8523939,12.5625101 C99.0556348,12.5625101 99.217672,12.7245472 99.217672,12.9277881 C99.217672,13.0740845 99.1255423,13.2037143 98.9922088,13.257418 L99.2505424,13.699085 L99.0459126,13.699085 L98.8056346,13.2847329 Z" id="Shape" fill="#030404" fill-rule="nonzero"></path>
                        <path d="M98.7810975,11.9310281 C98.1079489,11.9310281 97.5621151,12.4768618 97.5621151,13.1500105 C97.5621151,13.8231592 98.1079489,14.368993 98.7810975,14.368993 C99.4542462,14.368993 100.00008,13.8231592 100.00008,13.1500105 C100.00008,12.4768618 99.4542462,11.9310281 98.7810975,11.9310281 Z M98.7810975,12.0976949 C99.3611906,12.0976949 99.8334132,12.5699175 99.8334132,13.1500105 C99.8334132,13.7305665 99.3611906,14.2023262 98.7810975,14.2023262 C98.2010045,14.2023262 97.7287819,13.7305665 97.7287819,13.1500105 C97.7287819,12.5699175 98.2010045,12.0976949 98.7810975,12.0976949 Z" id="Shape" fill="#030404" fill-rule="nonzero"></path>
                    </g>
                    <g id="github" transform="translate(548.000000, 28.000000)" fill="#000001">
                        <path d="M12.306964,0 C5.51160966,0 0,5.5140713 0,12.3081949 C0,17.7361088 3.52629783,22.3516819 8.41757446,23.9763636 C9.03298421,24.0871373 9.25699335,23.7178915 9.25699335,23.3855702 C9.25699335,23.0901736 9.2471468,22.3147573 9.2409927,21.2931771 C5.81685289,22.0316688 5.09436185,19.643879 5.09436185,19.643879 C4.5355698,18.2284366 3.72815222,17.8468825 3.72815222,17.8468825 C2.61056813,17.0837745 3.81307877,17.0960827 3.81307877,17.0960827 C5.04759071,17.18224 5.6974634,18.3638267 5.6974634,18.3638267 C6.79535438,20.2469805 8.57881182,19.70542 9.28037892,19.3854069 C9.3923835,18.5976824 9.70993492,18.0438137 10.0619493,17.748417 C7.32829922,17.4284039 4.45556654,16.3698992 4.45556654,11.6558605 C4.45556654,10.3142673 4.93435532,9.21883795 5.72207979,8.35726431 C5.59530538,8.04955944 5.1731343,6.79412356 5.8427001,5.10790087 C5.8427001,5.10790087 6.87535765,4.7755796 9.22745368,6.36333674 C10.2084168,6.09255645 11.2619983,5.95716631 12.3081949,5.94485812 C13.3543914,5.95716631 14.4067421,6.09255645 15.3901668,6.36333674 C17.7398012,4.7755796 18.771228,5.10790087 18.771228,5.10790087 C19.4432554,6.79412356 19.0210843,8.04955944 18.8943099,8.35726431 C19.6832652,9.21883795 20.1595924,10.3142673 20.1595924,11.6558605 C20.1595924,16.3822074 17.2807056,17.4284039 14.5396706,17.7361088 C14.9815348,18.1176628 15.3741662,18.8684627 15.3741662,20.0131248 C15.3741662,21.6501148 15.3593964,22.9793998 15.3593964,23.3855702 C15.3593964,23.7178915 15.5821747,24.0994455 16.2062002,23.9763636 C21.0925535,22.3516819 24.6163897,17.7361088 24.6163897,12.3081949 C24.6163897,5.5140713 19.1047801,0 12.306964,0 Z" id="Path_35"></path>
                    </g>
                    <g id="Users" transform="translate(69.333333, 32.000000)" fill="#000001">
                        <path d="M8,0 C5.54577778,0 3.55555556,2.07407407 3.55555556,4.62962963 C3.55555556,7.18518519 5.54577778,9.25925926 8,9.25925926 C10.4542222,9.25925926 12.4444444,7.18518519 12.4444444,4.62962963 C12.4444444,2.07407407 10.4542222,0 8,0 Z M4.88888889,4.62962963 C4.88888889,2.84259259 6.28177778,1.38888889 8,1.38888889 C9.71822222,1.38888889 11.1111111,2.84259259 11.1111111,4.62962963 C11.1111111,6.41666667 9.71822222,7.87037037 8,7.87037037 C6.28177778,7.87037037 4.88888889,6.41666667 4.88888889,4.62962963 Z" id="Shape"></path>
                        <path d="M4.22222222,10.6481481 C1.89066667,10.6481481 0,12.6203704 0,15.0462963 L0,15.9722222 C0,16.3518519 0.298666667,16.6666667 0.666666667,16.6666667 C1.03466667,16.6666667 1.33333333,16.3518519 1.33333333,15.9722222 L1.33333333,15.0462963 C1.33333333,13.3888889 2.62666667,12.037037 4.22222222,12.037037 L11.7777778,12.037037 C13.3733333,12.037037 14.6666667,13.3888889 14.6666667,15.0462963 L14.6666667,15.9722222 C14.6666667,16.3518519 14.9653333,16.6666667 15.3333333,16.6666667 C15.7013333,16.6666667 16,16.3518519 16,15.9722222 L16,15.0462963 C16,12.6203704 14.1093333,10.6481481 11.7777778,10.6481481 L4.22222222,10.6481481 Z" id="Path" fill-rule="nonzero"></path>
                        <path d="M16.2222222,11.3425926 C16.2222222,10.962963 16.5208889,10.6481481 16.8888889,10.6481481 L17.1111111,10.6481481 C19.4426667,10.6481481 21.3333333,12.6203704 21.3333333,15.0462963 L21.3333333,15.9722222 C21.3333333,16.3518519 21.0346667,16.6666667 20.6666667,16.6666667 C20.2986667,16.6666667 20,16.3518519 20,15.9722222 L20,15.0462963 C20,13.3888889 18.7066667,12.037037 17.1111111,12.037037 L16.8888889,12.037037 C16.5208889,12.037037 16.2222222,11.7222222 16.2222222,11.3425926 Z" id="Path" fill-rule="nonzero"></path>
                        <path d="M13.3333333,0 C12.9653333,0 12.6666667,0.314814815 12.6666667,0.694444444 C12.6666667,1.07407407 12.9653333,1.38888889 13.3333333,1.38888889 C15.0515556,1.38888889 16.4444444,2.84259259 16.4444444,4.62962963 C16.4444444,6.41666667 15.0515556,7.87037037 13.3333333,7.87037037 C12.9653333,7.87037037 12.6666667,8.18518519 12.6666667,8.56481481 C12.6666667,8.94444444 12.9653333,9.25925926 13.3333333,9.25925926 C15.7875556,9.25925926 17.7777778,7.18518519 17.7777778,4.62962963 C17.7777778,2.07407407 15.7875556,0 13.3333333,0 Z" id="Path" fill-rule="nonzero"></path>
                    </g>
                </g>
                <g id="step_10" transform="translate(88.000000, 359.000000)">
                    <path id="Path-46-Copy" d="M7.96314013,10 C8.25963965,10 8.5,10.2403604 8.5,10.5368599 L8.5,14 L144,14 L144,15 L8.5,15 L8.5,18.4630225 C8.5,18.5185858 8.49137562,18.5736403 8.4745822,18.6262573 L8.4433222,18.7031136 C8.31072358,18.9683108 7.98824633,19.0758032 7.72304909,18.9432046 L-0.203113559,14.9801233 C-0.307010655,14.9281747 -0.391256044,14.8439293 -0.443204593,14.7400322 C-0.575803209,14.474835 -0.468310792,14.1523577 -0.203113559,14.0197591 L7.72304909,10.0566778 C7.79759501,10.0194048 7.87979527,10 7.96314013,10 Z" fill="#727274" fill-rule="nonzero"></path>
                    <text id="text_desc" font-family="Roboto-Medium, Roboto" font-size="8" font-weight="400" letter-spacing="0.12" fill="#1D1E1F">
                        <tspan x="89" y="7">Deliver service</tspan>
                    </text>
                </g>
                <g id="step_09" transform="translate(248.000000, 334.000000)">
                    <path id="Path-46-Copy-2" d="M8.46314013,10 C8.75963965,10 9,10.2403604 9,10.5368599 L9,14 L145,14 L145,15 L9,15 L9,18.4630225 C9,18.5185858 8.99137562,18.5736403 8.9745822,18.6262573 L8.9433222,18.7031136 C8.81072358,18.9683108 8.48824633,19.0758032 8.22304909,18.9432046 L0.296886441,14.9801233 C0.192989345,14.9281747 0.108743956,14.8439293 0.0567954074,14.7400322 C-0.075803209,14.474835 0.0316892081,14.1523577 0.296886441,14.0197591 L8.22304909,10.0566778 C8.29759501,10.0194048 8.37979527,10 8.46314013,10 Z" fill="#727274" fill-rule="nonzero"></path>
                    <text id="text_desc" font-family="Roboto-Medium, Roboto" font-size="8" font-weight="400" letter-spacing="0.12" fill="#1D1E1F">
                        <tspan x="114" y="7">Handoff</tspan>
                    </text>
                </g>
                <g id="step_08" transform="translate(408.000000, 334.000000)">
                    <path id="Path-46-Copy-3" d="M8.46314013,10 C8.75963965,10 9,10.2403604 9,10.5368599 L9,14 L145,14 L145,15 L9,15 L9,18.4630225 C9,18.5185858 8.99137562,18.5736403 8.9745822,18.6262573 L8.9433222,18.7031136 C8.81072358,18.9683108 8.48824633,19.0758032 8.22304909,18.9432046 L0.296886441,14.9801233 C0.192989345,14.9281747 0.108743956,14.8439293 0.0567954074,14.7400322 C-0.075803209,14.474835 0.0316892081,14.1523577 0.296886441,14.0197591 L8.22304909,10.0566778 C8.29759501,10.0194048 8.37979527,10 8.46314013,10 Z" fill="#727274" fill-rule="nonzero"></path>
                    <text id="text_desc" font-family="Roboto-Medium, Roboto" font-size="8" font-weight="400" letter-spacing="0.12" fill="#1D1E1F">
                        <tspan x="114" y="7">Handoff</tspan>
                    </text>
                </g>
                <g id="step_07" transform="translate(568.000000, 334.000000)">
                    <path id="Path-46-Copy-4" d="M8.46314013,10 C8.75963965,10 9,10.2403604 9,10.5368599 L9,14 L145,14 L145,15 L9,15 L9,18.4630225 C9,18.5185858 8.99137562,18.5736403 8.9745822,18.6262573 L8.9433222,18.7031136 C8.81072358,18.9683108 8.48824633,19.0758032 8.22304909,18.9432046 L0.296886441,14.9801233 C0.192989345,14.9281747 0.108743956,14.8439293 0.0567954074,14.7400322 C-0.075803209,14.474835 0.0316892081,14.1523577 0.296886441,14.0197591 L8.22304909,10.0566778 C8.29759501,10.0194048 8.37979527,10 8.46314013,10 Z" fill="#727274" fill-rule="nonzero"></path>
                    <text id="text_desc" font-family="Roboto-Medium, Roboto" font-size="8" font-weight="400" letter-spacing="0.12" fill="#1D1E1F">
                        <tspan x="114" y="7">Handoff</tspan>
                    </text>
                </g>
                <g id="step_06" transform="translate(728.000000, 309.000000)">
                    <path id="Path-46-Copy-5" d="M136.03686,10 C136.120205,10 136.202405,10.0194048 136.276951,10.0566778 L144.203114,14.0197591 C144.468311,14.1523577 144.575803,14.474835 144.443205,14.7400322 C144.391256,14.8439293 144.307011,14.9281747 144.203114,14.9801233 L136.276951,18.9432046 C136.011754,19.0758032 135.689276,18.9683108 135.556678,18.7031136 C135.519405,18.6285676 135.5,18.5463674 135.5,18.4630225 L135.5,15 L0,15 L0,14 L135.5,14 L135.5,10.5368599 C135.5,10.2700103 135.694692,10.0486335 135.949778,10.0070266 Z" fill="#727274" fill-rule="nonzero"></path>
                    <text id="text_desc" font-family="Roboto-Medium, Roboto" font-size="8" font-weight="400" letter-spacing="0.12" fill="#1D1E1F">
                        <tspan x="0" y="7">Build</tspan>
                    </text>
                </g>
                <g id="step_05" transform="translate(568.000000, 284.000000)">
                    <path id="Path-46-Copy-6" d="M136.03686,10 C136.120205,10 136.202405,10.0194048 136.276951,10.0566778 L144.203114,14.0197591 C144.468311,14.1523577 144.575803,14.474835 144.443205,14.7400322 C144.391256,14.8439293 144.307011,14.9281747 144.203114,14.9801233 L136.276951,18.9432046 C136.011754,19.0758032 135.689276,18.9683108 135.556678,18.7031136 C135.519405,18.6285676 135.5,18.5463674 135.5,18.4630225 L135.5,15 L0,15 L0,14 L135.5,14 L135.5,10.5368599 C135.5,10.2700103 135.694692,10.0486335 135.949778,10.0070266 Z" fill="#727274" fill-rule="nonzero"></path>
                    <text id="text_desc" font-family="Roboto-Medium, Roboto" font-size="8" font-weight="400" letter-spacing="0.12" fill="#1D1E1F">
                        <tspan x="0" y="7">Approve to build </tspan>
                    </text>
                </g>
                <g id="step_04" transform="translate(568.000000, 259.000000)">
                    <path id="Path-46-Copy-7" d="M7.96314013,10 C8.25963965,10 8.5,10.2403604 8.5,10.5368599 L8.5,14 L144,14 L144,15 L8.5,15 L8.5,18.4630225 C8.5,18.5185858 8.49137562,18.5736403 8.4745822,18.6262573 L8.4433222,18.7031136 C8.31072358,18.9683108 7.98824633,19.0758032 7.72304909,18.9432046 L-0.203113559,14.9801233 C-0.307010655,14.9281747 -0.391256044,14.8439293 -0.443204593,14.7400322 C-0.575803209,14.474835 -0.468310792,14.1523577 -0.203113559,14.0197591 L7.72304909,10.0566778 C7.79759501,10.0194048 7.87979527,10 7.96314013,10 Z" fill="#727274" fill-rule="nonzero"></path>
                    <text id="text_desc" font-family="Roboto-Medium, Roboto" font-size="8" font-weight="400" letter-spacing="0.12" fill="#1D1E1F">
                        <tspan x="49" y="7">Iterate on validation tests</tspan>
                    </text>
                </g>
                <g id="step_03" transform="translate(408.000000, 234.000000)">
                    <path id="Path-46-Copy-8" d="M296.03686,10 C296.120205,10 296.202405,10.0194048 296.276951,10.0566778 L304.203114,14.0197591 C304.468311,14.1523577 304.575803,14.474835 304.443205,14.7400322 C304.391256,14.8439293 304.307011,14.9281747 304.203114,14.9801233 L296.276951,18.9432046 C296.011754,19.0758032 295.689276,18.9683108 295.556678,18.7031136 C295.519405,18.6285676 295.5,18.5463674 295.5,18.4630225 L295.5,15 L0,15 L0,14 L295.5,14 L295.5,10.5368599 C295.5,10.2700103 295.694692,10.0486335 295.949778,10.0070266 Z" fill="#727274" fill-rule="nonzero"></path>
                    <text id="text_desc" font-family="Roboto-Medium, Roboto" font-size="8" font-weight="400" letter-spacing="0.12" fill="#1D1E1F">
                        <tspan x="0" y="7">Initiate build</tspan>
                    </text>
                </g>
                <g id="step_2-3" transform="translate(408.000000, 184.000000)">
                    <path id="Path-46-Copy-9" d="M7.96314013,-4 C8.25963965,-4 8.5,-3.75963965 8.5,-3.46314013 L8.5,0 L10,0 L10,1 L8.5,1 L8.5,4.46302253 C8.5,4.51858577 8.49137562,4.5736403 8.4745822,4.6262573 L8.4433222,4.70311356 C8.31072358,4.96831079 7.98824633,5.07580321 7.72304909,4.94320459 L-0.203113559,0.980123266 C-0.307010655,0.928174718 -0.391256044,0.843929329 -0.443204593,0.740032232 C-0.575803209,0.474834999 -0.468310792,0.152357748 -0.203113559,0.0197591315 L7.72304909,-3.9433222 C7.79759501,-3.98059515 7.87979527,-4 7.96314013,-4 Z M14,0 L14,1 L12,1 L12,0 L14,0 Z M18,0 L18,1 L16,1 L16,0 L18,0 Z M22,0 L22,1 L20,1 L20,0 L22,0 Z M26,0 L26,1 L24,1 L24,0 L26,0 Z M30,0 L30,1 L28,1 L28,0 L30,0 Z M34,0 L34,1 L32,1 L32,0 L34,0 Z M38,0 L38,1 L36,1 L36,0 L38,0 Z M42,0 L42,1 L40,1 L40,0 L42,0 Z M46,0 L46,1 L44,1 L44,0 L46,0 Z M50,0 L50,1 L48,1 L48,0 L50,0 Z M54,0 L54,1 L52,1 L52,0 L54,0 Z M58,0 L58,1 L56,1 L56,0 L58,0 Z M62,0 L62,1 L60,1 L60,0 L62,0 Z M66,0 L66,1 L64,1 L64,0 L66,0 Z M70,0 L70,1 L68,1 L68,0 L70,0 Z M74,0 L74,1 L72,1 L72,0 L74,0 Z M78,0 L78,1 L76,1 L76,0 L78,0 Z M82,0 L82,1 L80,1 L80,0 L82,0 Z M86,0 L86,1 L84,1 L84,0 L86,0 Z M90,0 L90,1 L88,1 L88,0 L90,0 Z M94,0 L94,1 L92,1 L92,0 L94,0 Z M98,0 L98,1 L96,1 L96,0 L98,0 Z M102,0 L102,1 L100,1 L100,0 L102,0 Z M106,0 L106,1 L104,1 L104,0 L106,0 Z M110,0 L110,1 L108,1 L108,0 L110,0 Z M114,0 L114,1 L112,1 L112,0 L114,0 Z M118,0 L118,1 L116,1 L116,0 L118,0 Z M122,0 L122,1 L120,1 L120,0 L122,0 Z M126,0 L126,1 L124,1 L124,0 L126,0 Z M130,0 L130,1 L128,1 L128,0 L130,0 Z M134,0 L134,1 L132,1 L132,0 L134,0 Z M143.703114,0.980123266 C143.807011,0.928174718 143.891256,0.843929329 143.943205,0.740032232 C144.075803,0.474834999 143.968311,0.152357748 143.703114,0.0197591315 L135.776951,-3.9433222 C135.702405,-3.98059515 135.620205,-4 135.53686,-4 C135.24036,-4 135,-3.75963965 135,-3.46314013 L135,4.46302253 C135,4.54636739 135.019405,4.62856765 135.056678,4.70311356 C135.189276,4.96831079 135.511754,5.07580321 135.776951,4.94320459 L143.703114,0.980123266 Z" fill="#727274" fill-rule="nonzero"></path>
                    <text id="text_desc" font-family="Roboto-Medium, Roboto" font-size="8" font-weight="400" letter-spacing="0.12" fill="#1D1E1F">
                        <tspan x="22.0585937" y="13">Create and configure repos</tspan>
                    </text>
                </g>
                <g id="step_2-2" transform="translate(408.000000, 168.000000)">
                    <path id="Path-46-Copy-10" d="M7.96314013,-4 C8.25963965,-4 8.5,-3.75963965 8.5,-3.46314013 L8.5,0 L10,0 L10,1 L8.5,1 L8.5,4.46302253 C8.5,4.51858577 8.49137562,4.5736403 8.4745822,4.6262573 L8.4433222,4.70311356 C8.31072358,4.96831079 7.98824633,5.07580321 7.72304909,4.94320459 L-0.203113559,0.980123266 C-0.307010655,0.928174718 -0.391256044,0.843929329 -0.443204593,0.740032232 C-0.575803209,0.474834999 -0.468310792,0.152357748 -0.203113559,0.0197591315 L7.72304909,-3.9433222 C7.79759501,-3.98059515 7.87979527,-4 7.96314013,-4 Z M296.53686,-4 C296.620205,-4 296.702405,-3.98059515 296.776951,-3.9433222 L304.703114,0.0197591315 C304.968311,0.152357748 305.075803,0.474834999 304.943205,0.740032232 C304.891256,0.843929329 304.807011,0.928174718 304.703114,0.980123266 L296.776951,4.94320459 C296.511754,5.07580321 296.189276,4.96831079 296.056678,4.70311356 C296.019405,4.62856765 296,4.54636739 296,4.46302253 L296,-3.46314013 C296,-3.75963965 296.24036,-4 296.53686,-4 Z M18,0 L18,1 L16,1 L16,0 L18,0 Z M22,0 L22,1 L20,1 L20,0 L22,0 Z M26,0 L26,1 L24,1 L24,0 L26,0 Z M30,0 L30,1 L28,1 L28,0 L30,0 Z M34,0 L34,1 L32,1 L32,0 L34,0 Z M38,0 L38,1 L36,1 L36,0 L38,0 Z M42,0 L42,1 L40,1 L40,0 L42,0 Z M46,0 L46,1 L44,1 L44,0 L46,0 Z M50,0 L50,1 L48,1 L48,0 L50,0 Z M54,0 L54,1 L52,1 L52,0 L54,0 Z M58,0 L58,1 L56,1 L56,0 L58,0 Z M62,0 L62,1 L60,1 L60,0 L62,0 Z M66,0 L66,1 L64,1 L64,0 L66,0 Z M70,0 L70,1 L68,1 L68,0 L70,0 Z M74,0 L74,1 L72,1 L72,0 L74,0 Z M78,0 L78,1 L76,1 L76,0 L78,0 Z M82,0 L82,1 L80,1 L80,0 L82,0 Z M86,0 L86,1 L84,1 L84,0 L86,0 Z M90,0 L90,1 L88,1 L88,0 L90,0 Z M94,0 L94,1 L92,1 L92,0 L94,0 Z M98,0 L98,1 L96,1 L96,0 L98,0 Z M102,0 L102,1 L100,1 L100,0 L102,0 Z M106,0 L106,1 L104,1 L104,0 L106,0 Z M110,0 L110,1 L108,1 L108,0 L110,0 Z M114,0 L114,1 L112,1 L112,0 L114,0 Z M118,0 L118,1 L116,1 L116,0 L118,0 Z M122,0 L122,1 L120,1 L120,0 L122,0 Z M126,0 L126,1 L124,1 L124,0 L126,0 Z M130,0 L130,1 L128,1 L128,0 L130,0 Z M134,0 L134,1 L132,1 L132,0 L134,0 Z M138,0 L138,1 L136,1 L136,0 L138,0 Z M142,0 L142,1 L140,1 L140,0 L142,0 Z M146,0 L146,1 L144,1 L144,0 L146,0 Z M150,0 L150,1 L148,1 L148,0 L150,0 Z M154,0 L154,1 L152,1 L152,0 L154,0 Z M14,0 L14,1 L12,1 L12,0 L14,0 Z M162,0 L162,1 L160,1 L160,0 L162,0 Z M166,0 L166,1 L164,1 L164,0 L166,0 Z M170,0 L170,1 L168,1 L168,0 L170,0 Z M174,0 L174,1 L172,1 L172,0 L174,0 Z M178,0 L178,1 L176,1 L176,0 L178,0 Z M182,0 L182,1 L180,1 L180,0 L182,0 Z M186,0 L186,1 L184,1 L184,0 L186,0 Z M190,0 L190,1 L188,1 L188,0 L190,0 Z M194,0 L194,1 L192,1 L192,0 L194,0 Z M198,0 L198,1 L196,1 L196,0 L198,0 Z M202,0 L202,1 L200,1 L200,0 L202,0 Z M206,0 L206,1 L204,1 L204,0 L206,0 Z M210,0 L210,1 L208,1 L208,0 L210,0 Z M214,0 L214,1 L212,1 L212,0 L214,0 Z M218,0 L218,1 L216,1 L216,0 L218,0 Z M222,0 L222,1 L220,1 L220,0 L222,0 Z M226,0 L226,1 L224,1 L224,0 L226,0 Z M230,0 L230,1 L228,1 L228,0 L230,0 Z M234,0 L234,1 L232,1 L232,0 L234,0 Z M238,0 L238,1 L236,1 L236,0 L238,0 Z M242,0 L242,1 L240,1 L240,0 L242,0 Z M246,0 L246,1 L244,1 L244,0 L246,0 Z M250,0 L250,1 L248,1 L248,0 L250,0 Z M254,0 L254,1 L252,1 L252,0 L254,0 Z M258,0 L258,1 L256,1 L256,0 L258,0 Z M262,0 L262,1 L260,1 L260,0 L262,0 Z M266,0 L266,1 L264,1 L264,0 L266,0 Z M270,0 L270,1 L268,1 L268,0 L270,0 Z M274,0 L274,1 L272,1 L272,0 L274,0 Z M278,0 L278,1 L276,1 L276,0 L278,0 Z M282,0 L282,1 L280,1 L280,0 L282,0 Z M286,0 L286,1 L284,1 L284,0 L286,0 Z M290,0 L290,1 L288,1 L288,0 L290,0 Z M294,0 L294,1 L292,1 L292,0 L294,0 Z M158,0 L158,1 L156,1 L156,0 L158,0 Z" fill="#727274" fill-rule="nonzero"></path>
                    <text id="text_desc" font-family="Roboto-Medium, Roboto" font-size="8" font-weight="400" letter-spacing="0.12" fill="#1D1E1F">
                        <tspan x="213" y="35">Configure resources</tspan>
                    </text>
                    <text id="text_desc" font-family="Roboto-Medium, Roboto" font-size="8" font-weight="400" letter-spacing="0.12" fill="#1D1E1F">
                        <tspan x="231" y="24">Assign policies</tspan>
                    </text>
                    <text id="text_desc" font-family="Roboto-Medium, Roboto" font-size="8" font-weight="400" letter-spacing="0.12" fill="#1D1E1F">
                        <tspan x="193" y="13">Allocate IaC from registry</tspan>
                    </text>
                </g>
                <g id="step_2-1" transform="translate(408.000000, 151.000000)">
                    <path id="Path-46-Copy-11" d="M7.96314013,-4 C8.25963965,-4 8.5,-3.75963965 8.5,-3.46314013 L8.5,0 L10,0 L10,1 L8.5,1 L8.5,4.46302253 C8.5,4.51858577 8.49137562,4.5736403 8.4745822,4.6262573 L8.4433222,4.70311356 C8.31072358,4.96831079 7.98824633,5.07580321 7.72304909,4.94320459 L-0.203113559,0.980123266 C-0.307010655,0.928174718 -0.391256044,0.843929329 -0.443204593,0.740032232 C-0.575803209,0.474834999 -0.468310792,0.152357748 -0.203113559,0.0197591315 L7.72304909,-3.9433222 C7.79759501,-3.98059515 7.87979527,-4 7.96314013,-4 Z M14,0 L14,1 L12,1 L12,0 L14,0 Z M18,0 L18,1 L16,1 L16,0 L18,0 Z M22,0 L22,1 L20,1 L20,0 L22,0 Z M26,0 L26,1 L24,1 L24,0 L26,0 Z M30,0 L30,1 L28,1 L28,0 L30,0 Z M34,0 L34,1 L32,1 L32,0 L34,0 Z M38,0 L38,1 L36,1 L36,0 L38,0 Z M42,0 L42,1 L40,1 L40,0 L42,0 Z M46,0 L46,1 L44,1 L44,0 L46,0 Z M50,0 L50,1 L48,1 L48,0 L50,0 Z M54,0 L54,1 L52,1 L52,0 L54,0 Z M58,0 L58,1 L56,1 L56,0 L58,0 Z M62,0 L62,1 L60,1 L60,0 L62,0 Z M66,0 L66,1 L64,1 L64,0 L66,0 Z M70,0 L70,1 L68,1 L68,0 L70,0 Z M74,0 L74,1 L72,1 L72,0 L74,0 Z M78,0 L78,1 L76,1 L76,0 L78,0 Z M82,0 L82,1 L80,1 L80,0 L82,0 Z M86,0 L86,1 L84,1 L84,0 L86,0 Z M90,0 L90,1 L88,1 L88,0 L90,0 Z M94,0 L94,1 L92,1 L92,0 L94,0 Z M98,0 L98,1 L96,1 L96,0 L98,0 Z M102,0 L102,1 L100,1 L100,0 L102,0 Z M106,0 L106,1 L104,1 L104,0 L106,0 Z M110,0 L110,1 L108,1 L108,0 L110,0 Z M114,0 L114,1 L112,1 L112,0 L114,0 Z M118,0 L118,1 L116,1 L116,0 L118,0 Z M122,0 L122,1 L120,1 L120,0 L122,0 Z M126,0 L126,1 L124,1 L124,0 L126,0 Z M130,0 L130,1 L128,1 L128,0 L130,0 Z M134,0 L134,1 L132,1 L132,0 L134,0 Z M138,0 L138,1 L136,1 L136,0 L138,0 Z M142,0 L142,1 L140,1 L140,0 L142,0 Z M146,0 L146,1 L144,1 L144,0 L146,0 Z M150,0 L150,1 L148,1 L148,0 L150,0 Z M154,0 L154,1 L152,1 L152,0 L154,0 Z M158,0 L158,1 L156,1 L156,0 L158,0 Z M162,0 L162,1 L160,1 L160,0 L162,0 Z M166,0 L166,1 L164,1 L164,0 L166,0 Z M170,0 L170,1 L168,1 L168,0 L170,0 Z M174,0 L174,1 L172,1 L172,0 L174,0 Z M178,0 L178,1 L176,1 L176,0 L178,0 Z M182,0 L182,1 L180,1 L180,0 L182,0 Z M186,0 L186,1 L184,1 L184,0 L186,0 Z M190,0 L190,1 L188,1 L188,0 L190,0 Z M194,0 L194,1 L192,1 L192,0 L194,0 Z M198,0 L198,1 L196,1 L196,0 L198,0 Z M202,0 L202,1 L200,1 L200,0 L202,0 Z M206,0 L206,1 L204,1 L204,0 L206,0 Z M210,0 L210,1 L208,1 L208,0 L210,0 Z M214,0 L214,1 L212,1 L212,0 L214,0 Z M218,0 L218,1 L216,1 L216,0 L218,0 Z M222,0 L222,1 L220,1 L220,0 L222,0 Z M226,0 L226,1 L224,1 L224,0 L226,0 Z M230,0 L230,1 L228,1 L228,0 L230,0 Z M234,0 L234,1 L232,1 L232,0 L234,0 Z M238,0 L238,1 L236,1 L236,0 L238,0 Z M242,0 L242,1 L240,1 L240,0 L242,0 Z M246,0 L246,1 L244,1 L244,0 L246,0 Z M250,0 L250,1 L248,1 L248,0 L250,0 Z M254,0 L254,1 L252,1 L252,0 L254,0 Z M258,0 L258,1 L256,1 L256,0 L258,0 Z M262,0 L262,1 L260,1 L260,0 L262,0 Z M266,0 L266,1 L264,1 L264,0 L266,0 Z M270,0 L270,1 L268,1 L268,0 L270,0 Z M274,0 L274,1 L272,1 L272,0 L274,0 Z M278,0 L278,1 L276,1 L276,0 L278,0 Z M282,0 L282,1 L280,1 L280,0 L282,0 Z M286,0 L286,1 L284,1 L284,0 L286,0 Z M290,0 L290,1 L288,1 L288,0 L290,0 Z M294,0 L294,1 L292,1 L292,0 L294,0 Z M298,0 L298,1 L296,1 L296,0 L298,0 Z M302,0 L302,1 L300,1 L300,0 L302,0 Z M306,0 L306,1 L304,1 L304,0 L306,0 Z M310,0 L310,1 L308,1 L308,0 L310,0 Z M314,0 L314,1 L312,1 L312,0 L314,0 Z M318,0 L318,1 L316,1 L316,0 L318,0 Z M322,0 L322,1 L320,1 L320,0 L322,0 Z M326,0 L326,1 L324,1 L324,0 L326,0 Z M330,0 L330,1 L328,1 L328,0 L330,0 Z M334,0 L334,1 L332,1 L332,0 L334,0 Z M338,0 L338,1 L336,1 L336,0 L338,0 Z M342,0 L342,1 L340,1 L340,0 L342,0 Z M346,0 L346,1 L344,1 L344,0 L346,0 Z M350,0 L350,1 L348,1 L348,0 L350,0 Z M354,0 L354,1 L352,1 L352,0 L354,0 Z M358,0 L358,1 L356,1 L356,0 L358,0 Z M362,0 L362,1 L360,1 L360,0 L362,0 Z M366,0 L366,1 L364,1 L364,0 L366,0 Z M370,0 L370,1 L368,1 L368,0 L370,0 Z M374,0 L374,1 L372,1 L372,0 L374,0 Z M378,0 L378,1 L376,1 L376,0 L378,0 Z M382,0 L382,1 L380,1 L380,0 L382,0 Z M386,0 L386,1 L384,1 L384,0 L386,0 Z M390,0 L390,1 L388,1 L388,0 L390,0 Z M394,0 L394,1 L392,1 L392,0 L394,0 Z M398,0 L398,1 L396,1 L396,0 L398,0 Z M402,0 L402,1 L400,1 L400,0 L402,0 Z M406,0 L406,1 L404,1 L404,0 L406,0 Z M410,0 L410,1 L408,1 L408,0 L410,0 Z M414,0 L414,1 L412,1 L412,0 L414,0 Z M418,0 L418,1 L416,1 L416,0 L418,0 Z M422,0 L422,1 L420,1 L420,0 L422,0 Z M426,0 L426,1 L424,1 L424,0 L426,0 Z M430,0 L430,1 L428,1 L428,0 L430,0 Z M434,0 L434,1 L432,1 L432,0 L434,0 Z M438,0 L438,1 L436,1 L436,0 L438,0 Z M442,0 L442,1 L440,1 L440,0 L442,0 Z M446,0 L446,1 L444,1 L444,0 L446,0 Z M450,0 L450,1 L448,1 L448,0 L450,0 Z M454,0 L454,1 L452,1 L452,0 L454,0 Z M464.203114,0.980123266 C464.307011,0.928174718 464.391256,0.843929329 464.443205,0.740032232 C464.575803,0.474834999 464.468311,0.152357748 464.203114,0.0197591315 L456.276951,-3.9433222 C456.202405,-3.98059515 456.120205,-4 456.03686,-4 C455.74036,-4 455.5,-3.75963965 455.5,-3.46314013 L455.5,4.46302253 C455.5,4.54636739 455.519405,4.62856765 455.556678,4.70311356 C455.689276,4.96831079 456.011754,5.07580321 456.276951,4.94320459 L464.203114,0.980123266 Z" fill="#727274" fill-rule="nonzero"></path>
                    <text id="text_desc" font-family="Roboto-Medium, Roboto" font-size="8" font-weight="400" letter-spacing="0.12" fill="#1D1E1F">
                        <tspan x="334" y="13">Synchonize access credentials</tspan>
                    </text>
                </g>
                <g id="step_02" transform="translate(288.000000, 153.000000)">
                    <path id="Path-46-Copy-12" d="M95.5368599,10 C95.6202047,10 95.702405,10.0194048 95.7769509,10.0566778 L103.703114,14.0197591 C103.968311,14.1523577 104.075803,14.474835 103.943205,14.7400322 C103.891256,14.8439293 103.807011,14.9281747 103.703114,14.9801233 L95.7769509,18.9432046 C95.5117537,19.0758032 95.1892764,18.9683108 95.0566778,18.7031136 C95.0194048,18.6285676 95,18.5463674 95,18.4630225 L95,15 L0,15 L0,14 L95,14 L95,10.5368599 C95,10.2700103 95.1946919,10.0486335 95.4497784,10.0070266 Z" fill="#727274" fill-rule="nonzero"></path>
                    <text id="text_desc" font-family="Roboto-Medium, Roboto" font-size="8" font-weight="400" letter-spacing="0.12" fill="#1D1E1F">
                        <tspan x="0" y="7">Initiate service </tspan>
                    </text>
                </g>
                <g id="step_01" transform="translate(88.000000, 88.000000)">
                    <path id="Path-46" d="M136.03686,10 C136.120205,10 136.202405,10.0194048 136.276951,10.0566778 L144.203114,14.0197591 C144.468311,14.1523577 144.575803,14.474835 144.443205,14.7400322 C144.391256,14.8439293 144.307011,14.9281747 144.203114,14.9801233 L136.276951,18.9432046 C136.011754,19.0758032 135.689276,18.9683108 135.556678,18.7031136 C135.519405,18.6285676 135.5,18.5463674 135.5,18.4630225 L135.5,15 L0,15 L0,14 L135.5,14 L135.5,10.5368599 C135.5,10.2700103 135.694692,10.0486335 135.949778,10.0070266 Z" fill="#727274" fill-rule="nonzero"></path>
                    <text id="text_desc" font-family="Roboto-Medium, Roboto" font-size="8" font-weight="400" letter-spacing="0.12" fill="#1D1E1F">
                        <tspan x="0" y="7">Service request</tspan>
                    </text>
                </g>
            </g>
        </g>
    </g>
</svg>