<svg width="480" height="400" viewBox="0 0 480 400" fill="none" xmlns="http://www.w3.org/2000/svg">
    <g id="adoption_journey_individual">
        <g id="svg-background">
            <rect id="rectangle" width="480" height="400" rx="10" fill="#F2F2F3" />
        </g>
        <g id="workflow">
            <g id="user-to-iac">
                <path id="user-to-iac_2" d="M276 121.5L266 115.726V127.274L276 121.5ZM98 122.5H267V120.5H98V122.5Z"
                    fill="#1D1E1F" class="hg">
                    <animate attributeName="opacity" dur="20s" keyTimes="0;0.01;0.06;0.8;0.9;1" values="0;0;1;1;1;0"
                        repeatCount="indefinite" />
                </path>
            </g>
            <g id="iac-to-plan">
                <path id="arrow_3"
                    d="M410 178L412.657 166.763L401.597 170.081L410 178ZM359.319 126.396L359.031 127.353L359.319 126.396ZM357.713 126.958L359.031 127.353L359.606 125.438L358.287 125.042L357.713 126.958ZM359.031 127.353C382.858 134.501 401.499 153.142 408.647 176.969L410.562 176.394C403.221 151.924 384.076 132.779 359.606 125.438L359.031 127.353Z"
                    fill="#1D1E1F" class="hg">
                    <animate attributeName="opacity" dur="20s" keyTimes="0;0.06;0.12;0.8;0.9;1" values="0;0;1;1;1;0"
                        repeatCount="indefinite" />
                </path>
            </g>
            <g id="plan-to-apply">
                <path id="arrow_2"
                    d="M258 226L255.926 237.359L266.801 233.476L258 226ZM408.835 229.262L407.893 228.926L408.835 229.262ZM409.058 225.664L407.893 228.926L409.777 229.599L410.942 226.336L409.058 225.664ZM334 281C300.84 281 271.26 260.154 260.107 228.926L258.223 229.599C269.661 261.623 299.995 283 334 283V281ZM407.893 228.926C396.74 260.154 367.16 281 334 281V283C368.005 283 398.339 261.623 409.777 229.599L407.893 228.926Z"
                    fill="#1D1E1F" class="hg">
                    <animate attributeName="opacity" dur="20s" keyTimes="0;0.12;0.18;0.8;0.9;1" values="0;0;1;1;1;0"
                        repeatCount="indefinite" />
                </path>
            </g>
            <g id="apply-to-iac">
                <path id="arrow"
                    d="M310 126L298.763 123.343L302.081 134.403L310 126ZM258.396 176.681L259.353 176.969L258.396 176.681ZM258.958 178.287L259.353 176.969L257.438 176.394L257.042 177.713L258.958 178.287ZM259.353 176.969C266.501 153.142 285.142 134.501 308.969 127.353L308.394 125.438C283.924 132.779 264.779 151.924 257.438 176.394L259.353 176.969Z"
                    fill="#1D1E1F" class="hg">
                    <animate attributeName="opacity" dur="20s" keyTimes="0;0.18;0.24;0.8;0.9;1" values="0;0;1;1;1;0"
                        repeatCount="indefinite" />
                </path>
            </g>
            <g id="apply">
                <g id="icon_box / white">
                    <g id="box" filter="url(#filter0_d_0_5776)">
                        <rect x="230" y="178" width="48" height="48" rx="2" fill="white" />
                        <rect x="230.5" y="178.5" width="47" height="47" rx="1.5" stroke="#727274"
                            stroke-width="0.25" />
                    </g>
                </g>
                <g id="core / Terminal / Dark">
                    <g id="Group">
                        <path id="Path"
                            d="M243.526 191.665C243.911 191.2 244.599 191.142 245.062 191.52L251.608 196.975C251.856 197.193 252 197.498 252 197.818C252 198.138 251.856 198.444 251.608 198.662L245.062 204.116C244.599 204.495 243.911 204.436 243.526 203.971C243.14 203.505 243.202 202.822 243.665 202.429L249.205 197.818L243.665 193.207C243.202 192.815 243.14 192.131 243.526 191.665Z"
                            fill="#222222" />
                        <path id="Path_2"
                            d="M251.636 204.364C251.034 204.364 250.545 204.858 250.545 205.455C250.545 206.051 251.034 206.545 251.636 206.545H259.636C260.239 206.545 260.727 206.051 260.727 205.455C260.727 204.858 260.239 204.364 259.636 204.364H251.636Z"
                            fill="#222222" />
                        <path id="Shape" fill-rule="evenodd" clip-rule="evenodd"
                            d="M238 191C238 188.789 239.791 187 242 187H266C268.209 187 270 188.789 270 191V212.091C270 214.302 268.209 216.091 266 216.091H242C239.791 216.091 238 214.302 238 212.091V191ZM242 189.182C240.996 189.182 240.182 189.996 240.182 191V212.091C240.182 213.095 240.996 213.909 242 213.909H266C267.004 213.909 267.818 213.095 267.818 212.091V191C267.818 189.996 267.004 189.182 266 189.182H242Z"
                            fill="#222222" />
                    </g>
                </g>
            </g>
            <g id="iac">
                <g id="icon_box / white_2">
                    <g id="box_2" filter="url(#filter1_d_0_5776)">
                        <rect x="310" y="98" width="48" height="48" rx="2" fill="white" />
                        <rect x="310.5" y="98.5" width="47" height="47" rx="1.5" stroke="#727274" stroke-width="0.25" />
                    </g>
                </g>
                <g id="core / Document / Dark">
                    <g id="Group_2">
                        <path id="Path_3"
                            d="M327.909 122C327.307 122 326.818 122.495 326.818 123.091C326.818 123.687 327.307 124.182 327.909 124.182H339.545C340.148 124.182 340.636 123.687 340.636 123.091C340.636 122.495 340.148 122 339.545 122H327.909Z"
                            fill="#222222" />
                        <path id="Path_4"
                            d="M326.818 128.909C326.818 128.313 327.307 127.818 327.909 127.818H336.636C337.238 127.818 337.727 128.313 337.727 128.909C337.727 129.505 337.238 130 336.636 130H327.909C327.307 130 326.818 129.505 326.818 128.909Z"
                            fill="#222222" />
                        <path id="Path_5"
                            d="M327.909 116.182C327.307 116.182 326.818 116.676 326.818 117.273C326.818 117.869 327.307 118.364 327.909 118.364H330.818C331.42 118.364 331.909 117.869 331.909 117.273C331.909 116.676 331.42 116.182 330.818 116.182H327.909Z"
                            fill="#222222" />
                        <path id="Shape_2" fill-rule="evenodd" clip-rule="evenodd"
                            d="M321 110C321 107.789 322.791 106 325 106H336.034C336.709 106 337.356 106.262 337.833 106.742L346.436 115.353C346.914 115.818 347.182 116.473 347.182 117.142V134C347.182 136.211 345.391 138 343.182 138H325C322.791 138 321 136.211 321 134V110ZM325 108.182C323.996 108.182 323.182 108.996 323.182 110V134C323.182 135.004 323.996 135.818 325 135.818H343.182C344.185 135.818 345 135.004 345 134V117.636H336.636C336.034 117.636 335.545 117.142 335.545 116.545V108.182H325ZM337.727 109.724L343.457 115.455H337.727V109.724Z"
                            fill="#222222" />
                    </g>
                </g>
            </g>
            <g id="plan">
                <g id="icon_box / white_3">
                    <g id="box_3" filter="url(#filter2_d_0_5776)">
                        <rect x="390" y="178" width="48" height="48" rx="2" fill="white" />
                        <rect x="390.5" y="178.5" width="47" height="47" rx="1.5" stroke="#727274"
                            stroke-width="0.25" />
                    </g>
                </g>
                <g id="core / Terminal / Dark_2">
                    <g id="Group_3">
                        <path id="Path_6"
                            d="M403.526 193.665C403.911 193.2 404.599 193.142 405.062 193.52L411.608 198.975C411.856 199.193 412 199.498 412 199.818C412 200.138 411.856 200.444 411.608 200.662L405.062 206.116C404.599 206.495 403.911 206.436 403.526 205.971C403.14 205.505 403.202 204.822 403.665 204.429L409.205 199.818L403.665 195.207C403.202 194.815 403.14 194.131 403.526 193.665Z"
                            fill="#222222" />
                        <path id="Path_7"
                            d="M411.636 206.364C411.034 206.364 410.545 206.858 410.545 207.455C410.545 208.051 411.034 208.545 411.636 208.545H419.636C420.239 208.545 420.727 208.051 420.727 207.455C420.727 206.858 420.239 206.364 419.636 206.364H411.636Z"
                            fill="#222222" />
                        <path id="Shape_3" fill-rule="evenodd" clip-rule="evenodd"
                            d="M398 193C398 190.789 399.791 189 402 189H426C428.209 189 430 190.789 430 193V214.091C430 216.302 428.209 218.091 426 218.091H402C399.791 218.091 398 216.302 398 214.091V193ZM402 191.182C400.996 191.182 400.182 191.996 400.182 193V214.091C400.182 215.095 400.996 215.909 402 215.909H426C427.004 215.909 427.818 215.095 427.818 214.091V193C427.818 191.996 427.004 191.182 426 191.182H402Z"
                            fill="#222222" />
                    </g>
                </g>
            </g>
            <path id="Individual Contributor"
                d="M36.6211 168.469V177H35.4902V168.469H36.6211ZM39.5977 172.014V177H38.5137V170.66H39.5391L39.5977 172.014ZM39.3398 173.59L38.8887 173.572C38.8926 173.139 38.957 172.738 39.082 172.371C39.207 172 39.3828 171.678 39.6094 171.404C39.8359 171.131 40.1055 170.92 40.418 170.771C40.7344 170.619 41.084 170.543 41.4668 170.543C41.7793 170.543 42.0605 170.586 42.3105 170.672C42.5605 170.754 42.7734 170.887 42.9492 171.07C43.1289 171.254 43.2656 171.492 43.3594 171.785C43.4531 172.074 43.5 172.428 43.5 172.846V177H42.4102V172.834C42.4102 172.502 42.3613 172.236 42.2637 172.037C42.166 171.834 42.0234 171.688 41.8359 171.598C41.6484 171.504 41.418 171.457 41.1445 171.457C40.875 171.457 40.6289 171.514 40.4062 171.627C40.1875 171.74 39.998 171.896 39.8379 172.096C39.6816 172.295 39.5586 172.523 39.4688 172.781C39.3828 173.035 39.3398 173.305 39.3398 173.59ZM49.1426 175.77V168H50.2324V177H49.2363L49.1426 175.77ZM44.877 173.9V173.777C44.877 173.293 44.9355 172.854 45.0527 172.459C45.1738 172.061 45.3438 171.719 45.5625 171.434C45.7852 171.148 46.0488 170.93 46.3535 170.777C46.6621 170.621 47.0059 170.543 47.3848 170.543C47.7832 170.543 48.1309 170.613 48.4277 170.754C48.7285 170.891 48.9824 171.092 49.1895 171.357C49.4004 171.619 49.5664 171.936 49.6875 172.307C49.8086 172.678 49.8926 173.098 49.9395 173.566V174.105C49.8965 174.57 49.8125 174.988 49.6875 175.359C49.5664 175.73 49.4004 176.047 49.1895 176.309C48.9824 176.57 48.7285 176.771 48.4277 176.912C48.127 177.049 47.7754 177.117 47.373 177.117C47.002 177.117 46.6621 177.037 46.3535 176.877C46.0488 176.717 45.7852 176.492 45.5625 176.203C45.3438 175.914 45.1738 175.574 45.0527 175.184C44.9355 174.789 44.877 174.361 44.877 173.9ZM45.9668 173.777V173.9C45.9668 174.217 45.998 174.514 46.0605 174.791C46.127 175.068 46.2285 175.312 46.3652 175.523C46.502 175.734 46.6758 175.9 46.8867 176.021C47.0977 176.139 47.3496 176.197 47.6426 176.197C48.002 176.197 48.2969 176.121 48.5273 175.969C48.7617 175.816 48.9492 175.615 49.0898 175.365C49.2305 175.115 49.3398 174.844 49.418 174.551V173.139C49.3711 172.924 49.3027 172.717 49.2129 172.518C49.127 172.314 49.0137 172.135 48.873 171.979C48.7363 171.818 48.5664 171.691 48.3633 171.598C48.1641 171.504 47.9277 171.457 47.6543 171.457C47.3574 171.457 47.1016 171.52 46.8867 171.645C46.6758 171.766 46.502 171.934 46.3652 172.148C46.2285 172.359 46.127 172.605 46.0605 172.887C45.998 173.164 45.9668 173.461 45.9668 173.777ZM53.0977 170.66V177H52.0078V170.66H53.0977ZM51.9258 168.979C51.9258 168.803 51.9785 168.654 52.084 168.533C52.1934 168.412 52.3535 168.352 52.5645 168.352C52.7715 168.352 52.9297 168.412 53.0391 168.533C53.1523 168.654 53.209 168.803 53.209 168.979C53.209 169.146 53.1523 169.291 53.0391 169.412C52.9297 169.529 52.7715 169.588 52.5645 169.588C52.3535 169.588 52.1934 169.529 52.084 169.412C51.9785 169.291 51.9258 169.146 51.9258 168.979ZM56.7656 176.021L58.5 170.66H59.6074L57.3281 177H56.6016L56.7656 176.021ZM55.3184 170.66L57.1055 176.051L57.2285 177H56.502L54.2051 170.66H55.3184ZM61.8281 170.66V177H60.7383V170.66H61.8281ZM60.6562 168.979C60.6562 168.803 60.709 168.654 60.8145 168.533C60.9238 168.412 61.084 168.352 61.2949 168.352C61.502 168.352 61.6602 168.412 61.7695 168.533C61.8828 168.654 61.9395 168.803 61.9395 168.979C61.9395 169.146 61.8828 169.291 61.7695 169.412C61.6602 169.529 61.502 169.588 61.2949 169.588C61.084 169.588 60.9238 169.529 60.8145 169.412C60.709 169.291 60.6562 169.146 60.6562 168.979ZM67.5645 175.77V168H68.6543V177H67.6582L67.5645 175.77ZM63.2988 173.9V173.777C63.2988 173.293 63.3574 172.854 63.4746 172.459C63.5957 172.061 63.7656 171.719 63.9844 171.434C64.207 171.148 64.4707 170.93 64.7754 170.777C65.084 170.621 65.4277 170.543 65.8066 170.543C66.2051 170.543 66.5527 170.613 66.8496 170.754C67.1504 170.891 67.4043 171.092 67.6113 171.357C67.8223 171.619 67.9883 171.936 68.1094 172.307C68.2305 172.678 68.3145 173.098 68.3613 173.566V174.105C68.3184 174.57 68.2344 174.988 68.1094 175.359C67.9883 175.73 67.8223 176.047 67.6113 176.309C67.4043 176.57 67.1504 176.771 66.8496 176.912C66.5488 177.049 66.1973 177.117 65.7949 177.117C65.4238 177.117 65.084 177.037 64.7754 176.877C64.4707 176.717 64.207 176.492 63.9844 176.203C63.7656 175.914 63.5957 175.574 63.4746 175.184C63.3574 174.789 63.2988 174.361 63.2988 173.9ZM64.3887 173.777V173.9C64.3887 174.217 64.4199 174.514 64.4824 174.791C64.5488 175.068 64.6504 175.312 64.7871 175.523C64.9238 175.734 65.0977 175.9 65.3086 176.021C65.5195 176.139 65.7715 176.197 66.0645 176.197C66.4238 176.197 66.7188 176.121 66.9492 175.969C67.1836 175.816 67.3711 175.615 67.5117 175.365C67.6523 175.115 67.7617 174.844 67.8398 174.551V173.139C67.793 172.924 67.7246 172.717 67.6348 172.518C67.5488 172.314 67.4355 172.135 67.2949 171.979C67.1582 171.818 66.9883 171.691 66.7852 171.598C66.5859 171.504 66.3496 171.457 66.0762 171.457C65.7793 171.457 65.5234 171.52 65.3086 171.645C65.0977 171.766 64.9238 171.934 64.7871 172.148C64.6504 172.359 64.5488 172.605 64.4824 172.887C64.4199 173.164 64.3887 173.461 64.3887 173.777ZM74.2207 175.535V170.66H75.3105V177H74.2734L74.2207 175.535ZM74.4258 174.199L74.877 174.188C74.877 174.609 74.832 175 74.7422 175.359C74.6562 175.715 74.5156 176.023 74.3203 176.285C74.125 176.547 73.8691 176.752 73.5527 176.9C73.2363 177.045 72.8516 177.117 72.3984 177.117C72.0898 177.117 71.8066 177.072 71.5488 176.982C71.2949 176.893 71.0762 176.754 70.8926 176.566C70.709 176.379 70.5664 176.135 70.4648 175.834C70.3672 175.533 70.3184 175.172 70.3184 174.75V170.66H71.4023V174.762C71.4023 175.047 71.4336 175.283 71.4961 175.471C71.5625 175.654 71.6504 175.801 71.7598 175.91C71.873 176.016 71.998 176.09 72.1348 176.133C72.2754 176.176 72.4199 176.197 72.5684 176.197C73.0293 176.197 73.3945 176.109 73.6641 175.934C73.9336 175.754 74.127 175.514 74.2441 175.213C74.3652 174.908 74.4258 174.57 74.4258 174.199ZM80.7012 175.916V172.652C80.7012 172.402 80.6504 172.186 80.5488 172.002C80.4512 171.814 80.3027 171.67 80.1035 171.568C79.9043 171.467 79.6582 171.416 79.3652 171.416C79.0918 171.416 78.8516 171.463 78.6445 171.557C78.4414 171.65 78.2812 171.773 78.1641 171.926C78.0508 172.078 77.9941 172.242 77.9941 172.418H76.9102C76.9102 172.191 76.9688 171.967 77.0859 171.744C77.2031 171.521 77.3711 171.32 77.5898 171.141C77.8125 170.957 78.0781 170.812 78.3867 170.707C78.6992 170.598 79.0469 170.543 79.4297 170.543C79.8906 170.543 80.2969 170.621 80.6484 170.777C81.0039 170.934 81.2812 171.17 81.4805 171.486C81.6836 171.799 81.7852 172.191 81.7852 172.664V175.617C81.7852 175.828 81.8027 176.053 81.8379 176.291C81.877 176.529 81.9336 176.734 82.0078 176.906V177H80.877C80.8223 176.875 80.7793 176.709 80.748 176.502C80.7168 176.291 80.7012 176.096 80.7012 175.916ZM80.8887 173.156L80.9004 173.918H79.8047C79.4961 173.918 79.2207 173.943 78.9785 173.994C78.7363 174.041 78.5332 174.113 78.3691 174.211C78.2051 174.309 78.0801 174.432 77.9941 174.58C77.9082 174.725 77.8652 174.895 77.8652 175.09C77.8652 175.289 77.9102 175.471 78 175.635C78.0898 175.799 78.2246 175.93 78.4043 176.027C78.5879 176.121 78.8125 176.168 79.0781 176.168C79.4102 176.168 79.7031 176.098 79.957 175.957C80.2109 175.816 80.4121 175.645 80.5605 175.441C80.7129 175.238 80.7949 175.041 80.8066 174.85L81.2695 175.371C81.2422 175.535 81.168 175.717 81.0469 175.916C80.9258 176.115 80.7637 176.307 80.5605 176.49C80.3613 176.67 80.123 176.82 79.8457 176.941C79.5723 177.059 79.2637 177.117 78.9199 177.117C78.4902 177.117 78.1133 177.033 77.7891 176.865C77.4688 176.697 77.2188 176.473 77.0391 176.191C76.8633 175.906 76.7754 175.588 76.7754 175.236C76.7754 174.896 76.8418 174.598 76.9746 174.34C77.1074 174.078 77.2988 173.861 77.5488 173.689C77.7988 173.514 78.0996 173.381 78.4512 173.291C78.8027 173.201 79.1953 173.156 79.6289 173.156H80.8887ZM84.668 168V177H83.5781V168H84.668ZM36 188.287H37.125C37.0664 188.826 36.9121 189.309 36.6621 189.734C36.4121 190.16 36.0586 190.498 35.6016 190.748C35.1445 190.994 34.5742 191.117 33.8906 191.117C33.3906 191.117 32.9355 191.023 32.5254 190.836C32.1191 190.648 31.7695 190.383 31.4766 190.039C31.1836 189.691 30.957 189.275 30.7969 188.791C30.6406 188.303 30.5625 187.76 30.5625 187.162V186.312C30.5625 185.715 30.6406 185.174 30.7969 184.689C30.957 184.201 31.1855 183.783 31.4824 183.436C31.7832 183.088 32.1445 182.82 32.5664 182.633C32.9883 182.445 33.4629 182.352 33.9902 182.352C34.6348 182.352 35.1797 182.473 35.625 182.715C36.0703 182.957 36.416 183.293 36.6621 183.723C36.9121 184.148 37.0664 184.643 37.125 185.205H36C35.9453 184.807 35.8438 184.465 35.6953 184.18C35.5469 183.891 35.3359 183.668 35.0625 183.512C34.7891 183.355 34.4316 183.277 33.9902 183.277C33.6113 183.277 33.2773 183.35 32.9883 183.494C32.7031 183.639 32.4629 183.844 32.2676 184.109C32.0762 184.375 31.9316 184.693 31.834 185.064C31.7363 185.436 31.6875 185.848 31.6875 186.301V187.162C31.6875 187.58 31.7305 187.973 31.8164 188.34C31.9062 188.707 32.041 189.029 32.2207 189.307C32.4004 189.584 32.6289 189.803 32.9062 189.963C33.1836 190.119 33.5117 190.197 33.8906 190.197C34.3711 190.197 34.7539 190.121 35.0391 189.969C35.3242 189.816 35.5391 189.598 35.6836 189.312C35.832 189.027 35.9375 188.686 36 188.287ZM38.2148 187.9V187.766C38.2148 187.309 38.2812 186.885 38.4141 186.494C38.5469 186.1 38.7383 185.758 38.9883 185.469C39.2383 185.176 39.541 184.949 39.8965 184.789C40.252 184.625 40.6504 184.543 41.0918 184.543C41.5371 184.543 41.9375 184.625 42.293 184.789C42.6523 184.949 42.957 185.176 43.207 185.469C43.4609 185.758 43.6543 186.1 43.7871 186.494C43.9199 186.885 43.9863 187.309 43.9863 187.766V187.9C43.9863 188.357 43.9199 188.781 43.7871 189.172C43.6543 189.562 43.4609 189.904 43.207 190.197C42.957 190.486 42.6543 190.713 42.2988 190.877C41.9473 191.037 41.5488 191.117 41.1035 191.117C40.6582 191.117 40.2578 191.037 39.9023 190.877C39.5469 190.713 39.2422 190.486 38.9883 190.197C38.7383 189.904 38.5469 189.562 38.4141 189.172C38.2812 188.781 38.2148 188.357 38.2148 187.9ZM39.2988 187.766V187.9C39.2988 188.217 39.3359 188.516 39.4102 188.797C39.4844 189.074 39.5957 189.32 39.7441 189.535C39.8965 189.75 40.0859 189.92 40.3125 190.045C40.5391 190.166 40.8027 190.227 41.1035 190.227C41.4004 190.227 41.6602 190.166 41.8828 190.045C42.1094 189.92 42.2969 189.75 42.4453 189.535C42.5938 189.32 42.7051 189.074 42.7793 188.797C42.8574 188.516 42.8965 188.217 42.8965 187.9V187.766C42.8965 187.453 42.8574 187.158 42.7793 186.881C42.7051 186.6 42.5918 186.352 42.4395 186.137C42.291 185.918 42.1035 185.746 41.877 185.621C41.6543 185.496 41.3926 185.434 41.0918 185.434C40.7949 185.434 40.5332 185.496 40.3066 185.621C40.084 185.746 39.8965 185.918 39.7441 186.137C39.5957 186.352 39.4844 186.6 39.4102 186.881C39.3359 187.158 39.2988 187.453 39.2988 187.766ZM46.4297 186.014V191H45.3457V184.66H46.3711L46.4297 186.014ZM46.1719 187.59L45.7207 187.572C45.7246 187.139 45.7891 186.738 45.9141 186.371C46.0391 186 46.2148 185.678 46.4414 185.404C46.668 185.131 46.9375 184.92 47.25 184.771C47.5664 184.619 47.916 184.543 48.2988 184.543C48.6113 184.543 48.8926 184.586 49.1426 184.672C49.3926 184.754 49.6055 184.887 49.7812 185.07C49.9609 185.254 50.0977 185.492 50.1914 185.785C50.2852 186.074 50.332 186.428 50.332 186.846V191H49.2422V186.834C49.2422 186.502 49.1934 186.236 49.0957 186.037C48.998 185.834 48.8555 185.688 48.668 185.598C48.4805 185.504 48.25 185.457 47.9766 185.457C47.707 185.457 47.4609 185.514 47.2383 185.627C47.0195 185.74 46.8301 185.896 46.6699 186.096C46.5137 186.295 46.3906 186.523 46.3008 186.781C46.2148 187.035 46.1719 187.305 46.1719 187.59ZM54.6328 184.66V185.492H51.2051V184.66H54.6328ZM52.3652 183.119H53.4492V189.43C53.4492 189.645 53.4824 189.807 53.5488 189.916C53.6152 190.025 53.7012 190.098 53.8066 190.133C53.9121 190.168 54.0254 190.186 54.1465 190.186C54.2363 190.186 54.3301 190.178 54.4277 190.162C54.5293 190.143 54.6055 190.127 54.6562 190.115L54.6621 191C54.5762 191.027 54.4629 191.053 54.3223 191.076C54.1855 191.104 54.0195 191.117 53.8242 191.117C53.5586 191.117 53.3145 191.064 53.0918 190.959C52.8691 190.854 52.6914 190.678 52.5586 190.432C52.4297 190.182 52.3652 189.846 52.3652 189.424V183.119ZM56.9883 185.656V191H55.9043V184.66H56.959L56.9883 185.656ZM58.9688 184.625L58.9629 185.633C58.873 185.613 58.7871 185.602 58.7051 185.598C58.627 185.59 58.5371 185.586 58.4355 185.586C58.1855 185.586 57.9648 185.625 57.7734 185.703C57.582 185.781 57.4199 185.891 57.2871 186.031C57.1543 186.172 57.0488 186.34 56.9707 186.535C56.8965 186.727 56.8477 186.938 56.8242 187.168L56.5195 187.344C56.5195 186.961 56.5566 186.602 56.6309 186.266C56.709 185.93 56.8281 185.633 56.9883 185.375C57.1484 185.113 57.3516 184.91 57.5977 184.766C57.8477 184.617 58.1445 184.543 58.4883 184.543C58.5664 184.543 58.6562 184.553 58.7578 184.572C58.8594 184.588 58.9297 184.605 58.9688 184.625ZM61.1484 184.66V191H60.0586V184.66H61.1484ZM59.9766 182.979C59.9766 182.803 60.0293 182.654 60.1348 182.533C60.2441 182.412 60.4043 182.352 60.6152 182.352C60.8223 182.352 60.9805 182.412 61.0898 182.533C61.2031 182.654 61.2598 182.803 61.2598 182.979C61.2598 183.146 61.2031 183.291 61.0898 183.412C60.9805 183.529 60.8223 183.588 60.6152 183.588C60.4043 183.588 60.2441 183.529 60.1348 183.412C60.0293 183.291 59.9766 183.146 59.9766 182.979ZM62.8828 182H63.9727V189.77L63.8789 191H62.8828V182ZM68.2559 187.777V187.9C68.2559 188.361 68.2012 188.789 68.0918 189.184C67.9824 189.574 67.8223 189.914 67.6113 190.203C67.4004 190.492 67.1426 190.717 66.8379 190.877C66.5332 191.037 66.1836 191.117 65.7891 191.117C65.3867 191.117 65.0332 191.049 64.7285 190.912C64.4277 190.771 64.1738 190.57 63.9668 190.309C63.7598 190.047 63.5938 189.73 63.4688 189.359C63.3477 188.988 63.2637 188.57 63.2168 188.105V187.566C63.2637 187.098 63.3477 186.678 63.4688 186.307C63.5938 185.936 63.7598 185.619 63.9668 185.357C64.1738 185.092 64.4277 184.891 64.7285 184.754C65.0293 184.613 65.3789 184.543 65.7773 184.543C66.1758 184.543 66.5293 184.621 66.8379 184.777C67.1465 184.93 67.4043 185.148 67.6113 185.434C67.8223 185.719 67.9824 186.061 68.0918 186.459C68.2012 186.854 68.2559 187.293 68.2559 187.777ZM67.166 187.9V187.777C67.166 187.461 67.1367 187.164 67.0781 186.887C67.0195 186.605 66.9258 186.359 66.7969 186.148C66.668 185.934 66.498 185.766 66.2871 185.645C66.0762 185.52 65.8164 185.457 65.5078 185.457C65.2344 185.457 64.9961 185.504 64.793 185.598C64.5938 185.691 64.4238 185.818 64.2832 185.979C64.1426 186.135 64.0273 186.314 63.9375 186.518C63.8516 186.717 63.7871 186.924 63.7441 187.139V188.551C63.8066 188.824 63.9082 189.088 64.0488 189.342C64.1934 189.592 64.3848 189.797 64.623 189.957C64.8652 190.117 65.1641 190.197 65.5195 190.197C65.8125 190.197 66.0625 190.139 66.2695 190.021C66.4805 189.9 66.6504 189.734 66.7793 189.523C66.9121 189.312 67.0098 189.068 67.0723 188.791C67.1348 188.514 67.166 188.217 67.166 187.9ZM73.5059 189.535V184.66H74.5957V191H73.5586L73.5059 189.535ZM73.7109 188.199L74.1621 188.188C74.1621 188.609 74.1172 189 74.0273 189.359C73.9414 189.715 73.8008 190.023 73.6055 190.285C73.4102 190.547 73.1543 190.752 72.8379 190.9C72.5215 191.045 72.1367 191.117 71.6836 191.117C71.375 191.117 71.0918 191.072 70.834 190.982C70.5801 190.893 70.3613 190.754 70.1777 190.566C69.9941 190.379 69.8516 190.135 69.75 189.834C69.6523 189.533 69.6035 189.172 69.6035 188.75V184.66H70.6875V188.762C70.6875 189.047 70.7188 189.283 70.7812 189.471C70.8477 189.654 70.9355 189.801 71.0449 189.91C71.1582 190.016 71.2832 190.09 71.4199 190.133C71.5605 190.176 71.7051 190.197 71.8535 190.197C72.3145 190.197 72.6797 190.109 72.9492 189.934C73.2188 189.754 73.4121 189.514 73.5293 189.213C73.6504 188.908 73.7109 188.57 73.7109 188.199ZM78.9023 184.66V185.492H75.4746V184.66H78.9023ZM76.6348 183.119H77.7188V189.43C77.7188 189.645 77.752 189.807 77.8184 189.916C77.8848 190.025 77.9707 190.098 78.0762 190.133C78.1816 190.168 78.2949 190.186 78.416 190.186C78.5059 190.186 78.5996 190.178 78.6973 190.162C78.7988 190.143 78.875 190.127 78.9258 190.115L78.9316 191C78.8457 191.027 78.7324 191.053 78.5918 191.076C78.4551 191.104 78.2891 191.117 78.0938 191.117C77.8281 191.117 77.584 191.064 77.3613 190.959C77.1387 190.854 76.9609 190.678 76.8281 190.432C76.6992 190.182 76.6348 189.846 76.6348 189.424V183.119ZM79.7695 187.9V187.766C79.7695 187.309 79.8359 186.885 79.9688 186.494C80.1016 186.1 80.293 185.758 80.543 185.469C80.793 185.176 81.0957 184.949 81.4512 184.789C81.8066 184.625 82.2051 184.543 82.6465 184.543C83.0918 184.543 83.4922 184.625 83.8477 184.789C84.207 184.949 84.5117 185.176 84.7617 185.469C85.0156 185.758 85.209 186.1 85.3418 186.494C85.4746 186.885 85.541 187.309 85.541 187.766V187.9C85.541 188.357 85.4746 188.781 85.3418 189.172C85.209 189.562 85.0156 189.904 84.7617 190.197C84.5117 190.486 84.209 190.713 83.8535 190.877C83.502 191.037 83.1035 191.117 82.6582 191.117C82.2129 191.117 81.8125 191.037 81.457 190.877C81.1016 190.713 80.7969 190.486 80.543 190.197C80.293 189.904 80.1016 189.562 79.9688 189.172C79.8359 188.781 79.7695 188.357 79.7695 187.9ZM80.8535 187.766V187.9C80.8535 188.217 80.8906 188.516 80.9648 188.797C81.0391 189.074 81.1504 189.32 81.2988 189.535C81.4512 189.75 81.6406 189.92 81.8672 190.045C82.0938 190.166 82.3574 190.227 82.6582 190.227C82.9551 190.227 83.2148 190.166 83.4375 190.045C83.6641 189.92 83.8516 189.75 84 189.535C84.1484 189.32 84.2598 189.074 84.334 188.797C84.4121 188.516 84.4512 188.217 84.4512 187.9V187.766C84.4512 187.453 84.4121 187.158 84.334 186.881C84.2598 186.6 84.1465 186.352 83.9941 186.137C83.8457 185.918 83.6582 185.746 83.4316 185.621C83.209 185.496 82.9473 185.434 82.6465 185.434C82.3496 185.434 82.0879 185.496 81.8613 185.621C81.6387 185.746 81.4512 185.918 81.2988 186.137C81.1504 186.352 81.0391 186.6 80.9648 186.881C80.8906 187.158 80.8535 187.453 80.8535 187.766ZM87.9844 185.656V191H86.9004V184.66H87.9551L87.9844 185.656ZM89.9648 184.625L89.959 185.633C89.8691 185.613 89.7832 185.602 89.7012 185.598C89.623 185.59 89.5332 185.586 89.4316 185.586C89.1816 185.586 88.9609 185.625 88.7695 185.703C88.5781 185.781 88.416 185.891 88.2832 186.031C88.1504 186.172 88.0449 186.34 87.9668 186.535C87.8926 186.727 87.8438 186.938 87.8203 187.168L87.5156 187.344C87.5156 186.961 87.5527 186.602 87.627 186.266C87.7051 185.93 87.8242 185.633 87.9844 185.375C88.1445 185.113 88.3477 184.91 88.5938 184.766C88.8438 184.617 89.1406 184.543 89.4844 184.543C89.5625 184.543 89.6523 184.553 89.7539 184.572C89.8555 184.588 89.9258 184.605 89.9648 184.625Z"
                fill="black" />
            <g id="user">
                <g id="icon_box / white_4">
                    <g id="box_4" filter="url(#filter3_d_0_5776)">
                        <rect x="36" y="98" width="48" height="48" rx="2" fill="white" />
                        <rect x="36.5" y="98.5" width="47" height="47" rx="1.5" stroke="#727274" stroke-width="0.25" />
                    </g>
                </g>
                <g id="core / User / dark">
                    <g id="Users">
                        <path id="Shape_4" fill-rule="evenodd" clip-rule="evenodd"
                            d="M59.9999 110C56.3186 110 53.3333 113.111 53.3333 116.944C53.3333 120.778 56.3186 123.889 59.9999 123.889C63.6813 123.889 66.6666 120.778 66.6666 116.944C66.6666 113.111 63.6813 110 59.9999 110ZM55.3333 116.944C55.3333 114.264 57.4226 112.083 59.9999 112.083C62.5773 112.083 64.6666 114.264 64.6666 116.944C64.6666 119.625 62.5773 121.806 59.9999 121.806C57.4226 121.806 55.3333 119.625 55.3333 116.944Z"
                            fill="#000001" />
                        <path id="Path_8"
                            d="M54.3333 125.972C50.836 125.972 48 128.931 48 132.569V133.958C48 134.528 48.448 135 49 135C49.552 135 50 134.528 50 133.958V132.569C50 130.083 51.94 128.056 54.3333 128.056H65.6667C68.06 128.056 70 130.083 70 132.569V133.958C70 134.528 70.448 135 71 135C71.552 135 72 134.528 72 133.958V132.569C72 128.931 69.164 125.972 65.6667 125.972H54.3333Z"
                            fill="#000001" />
                    </g>
                </g>
            </g>
            <path id="apply_2"
                d="M195.959 202.916V199.652C195.959 199.402 195.908 199.186 195.807 199.002C195.709 198.814 195.561 198.67 195.361 198.568C195.162 198.467 194.916 198.416 194.623 198.416C194.35 198.416 194.109 198.463 193.902 198.557C193.699 198.65 193.539 198.773 193.422 198.926C193.309 199.078 193.252 199.242 193.252 199.418H192.168C192.168 199.191 192.227 198.967 192.344 198.744C192.461 198.521 192.629 198.32 192.848 198.141C193.07 197.957 193.336 197.812 193.645 197.707C193.957 197.598 194.305 197.543 194.688 197.543C195.148 197.543 195.555 197.621 195.906 197.777C196.262 197.934 196.539 198.17 196.738 198.486C196.941 198.799 197.043 199.191 197.043 199.664V202.617C197.043 202.828 197.061 203.053 197.096 203.291C197.135 203.529 197.191 203.734 197.266 203.906V204H196.135C196.08 203.875 196.037 203.709 196.006 203.502C195.975 203.291 195.959 203.096 195.959 202.916ZM196.146 200.156L196.158 200.918H195.062C194.754 200.918 194.479 200.943 194.236 200.994C193.994 201.041 193.791 201.113 193.627 201.211C193.463 201.309 193.338 201.432 193.252 201.58C193.166 201.725 193.123 201.895 193.123 202.09C193.123 202.289 193.168 202.471 193.258 202.635C193.348 202.799 193.482 202.93 193.662 203.027C193.846 203.121 194.07 203.168 194.336 203.168C194.668 203.168 194.961 203.098 195.215 202.957C195.469 202.816 195.67 202.645 195.818 202.441C195.971 202.238 196.053 202.041 196.064 201.85L196.527 202.371C196.5 202.535 196.426 202.717 196.305 202.916C196.184 203.115 196.021 203.307 195.818 203.49C195.619 203.67 195.381 203.82 195.104 203.941C194.83 204.059 194.521 204.117 194.178 204.117C193.748 204.117 193.371 204.033 193.047 203.865C192.727 203.697 192.477 203.473 192.297 203.191C192.121 202.906 192.033 202.588 192.033 202.236C192.033 201.896 192.1 201.598 192.232 201.34C192.365 201.078 192.557 200.861 192.807 200.689C193.057 200.514 193.357 200.381 193.709 200.291C194.061 200.201 194.453 200.156 194.887 200.156H196.146ZM199.832 198.879V206.438H198.742V197.66H199.738L199.832 198.879ZM204.104 200.777V200.9C204.104 201.361 204.049 201.789 203.939 202.184C203.83 202.574 203.67 202.914 203.459 203.203C203.252 203.492 202.996 203.717 202.691 203.877C202.387 204.037 202.037 204.117 201.643 204.117C201.24 204.117 200.885 204.051 200.576 203.918C200.268 203.785 200.006 203.592 199.791 203.338C199.576 203.084 199.404 202.779 199.275 202.424C199.15 202.068 199.064 201.668 199.018 201.223V200.566C199.064 200.098 199.152 199.678 199.281 199.307C199.41 198.936 199.58 198.619 199.791 198.357C200.006 198.092 200.266 197.891 200.57 197.754C200.875 197.613 201.227 197.543 201.625 197.543C202.023 197.543 202.377 197.621 202.686 197.777C202.994 197.93 203.254 198.148 203.465 198.434C203.676 198.719 203.834 199.061 203.939 199.459C204.049 199.854 204.104 200.293 204.104 200.777ZM203.014 200.9V200.777C203.014 200.461 202.98 200.164 202.914 199.887C202.848 199.605 202.744 199.359 202.604 199.148C202.467 198.934 202.291 198.766 202.076 198.645C201.861 198.52 201.605 198.457 201.309 198.457C201.035 198.457 200.797 198.504 200.594 198.598C200.395 198.691 200.225 198.818 200.084 198.979C199.943 199.135 199.828 199.314 199.738 199.518C199.652 199.717 199.588 199.924 199.545 200.139V201.656C199.623 201.93 199.732 202.188 199.873 202.43C200.014 202.668 200.201 202.861 200.436 203.01C200.67 203.154 200.965 203.227 201.32 203.227C201.613 203.227 201.865 203.166 202.076 203.045C202.291 202.92 202.467 202.75 202.604 202.535C202.744 202.32 202.848 202.074 202.914 201.797C202.98 201.516 203.014 201.217 203.014 200.9ZM206.57 198.879V206.438H205.48V197.66H206.477L206.57 198.879ZM210.842 200.777V200.9C210.842 201.361 210.787 201.789 210.678 202.184C210.568 202.574 210.408 202.914 210.197 203.203C209.99 203.492 209.734 203.717 209.43 203.877C209.125 204.037 208.775 204.117 208.381 204.117C207.979 204.117 207.623 204.051 207.314 203.918C207.006 203.785 206.744 203.592 206.529 203.338C206.314 203.084 206.143 202.779 206.014 202.424C205.889 202.068 205.803 201.668 205.756 201.223V200.566C205.803 200.098 205.891 199.678 206.02 199.307C206.148 198.936 206.318 198.619 206.529 198.357C206.744 198.092 207.004 197.891 207.309 197.754C207.613 197.613 207.965 197.543 208.363 197.543C208.762 197.543 209.115 197.621 209.424 197.777C209.732 197.93 209.992 198.148 210.203 198.434C210.414 198.719 210.572 199.061 210.678 199.459C210.787 199.854 210.842 200.293 210.842 200.777ZM209.752 200.9V200.777C209.752 200.461 209.719 200.164 209.652 199.887C209.586 199.605 209.482 199.359 209.342 199.148C209.205 198.934 209.029 198.766 208.814 198.645C208.6 198.52 208.344 198.457 208.047 198.457C207.773 198.457 207.535 198.504 207.332 198.598C207.133 198.691 206.963 198.818 206.822 198.979C206.682 199.135 206.566 199.314 206.477 199.518C206.391 199.717 206.326 199.924 206.283 200.139V201.656C206.361 201.93 206.471 202.188 206.611 202.43C206.752 202.668 206.939 202.861 207.174 203.01C207.408 203.154 207.703 203.227 208.059 203.227C208.352 203.227 208.604 203.166 208.814 203.045C209.029 202.92 209.205 202.75 209.342 202.535C209.482 202.32 209.586 202.074 209.652 201.797C209.719 201.516 209.752 201.217 209.752 200.9ZM213.402 195V204H212.312V195H213.402ZM216.924 203.344L218.688 197.66H219.848L217.305 204.979C217.246 205.135 217.168 205.303 217.07 205.482C216.977 205.666 216.855 205.84 216.707 206.004C216.559 206.168 216.379 206.301 216.168 206.402C215.961 206.508 215.713 206.561 215.424 206.561C215.338 206.561 215.229 206.549 215.096 206.525C214.963 206.502 214.869 206.482 214.814 206.467L214.809 205.588C214.84 205.592 214.889 205.596 214.955 205.6C215.025 205.607 215.074 205.611 215.102 205.611C215.348 205.611 215.557 205.578 215.729 205.512C215.9 205.449 216.045 205.342 216.162 205.189C216.283 205.041 216.387 204.836 216.473 204.574L216.924 203.344ZM215.629 197.66L217.275 202.582L217.557 203.725L216.777 204.123L214.445 197.66H215.629Z"
                fill="black" />
            <path id="plan_2"
                d="M450.91 199.879V207.438H449.82V198.66H450.816L450.91 199.879ZM455.182 201.777V201.9C455.182 202.361 455.127 202.789 455.018 203.184C454.908 203.574 454.748 203.914 454.537 204.203C454.33 204.492 454.074 204.717 453.77 204.877C453.465 205.037 453.115 205.117 452.721 205.117C452.318 205.117 451.963 205.051 451.654 204.918C451.346 204.785 451.084 204.592 450.869 204.338C450.654 204.084 450.482 203.779 450.354 203.424C450.229 203.068 450.143 202.668 450.096 202.223V201.566C450.143 201.098 450.23 200.678 450.359 200.307C450.488 199.936 450.658 199.619 450.869 199.357C451.084 199.092 451.344 198.891 451.648 198.754C451.953 198.613 452.305 198.543 452.703 198.543C453.102 198.543 453.455 198.621 453.764 198.777C454.072 198.93 454.332 199.148 454.543 199.434C454.754 199.719 454.912 200.061 455.018 200.459C455.127 200.854 455.182 201.293 455.182 201.777ZM454.092 201.9V201.777C454.092 201.461 454.059 201.164 453.992 200.887C453.926 200.605 453.822 200.359 453.682 200.148C453.545 199.934 453.369 199.766 453.154 199.645C452.939 199.52 452.684 199.457 452.387 199.457C452.113 199.457 451.875 199.504 451.672 199.598C451.473 199.691 451.303 199.818 451.162 199.979C451.021 200.135 450.906 200.314 450.816 200.518C450.73 200.717 450.666 200.924 450.623 201.139V202.656C450.701 202.93 450.811 203.188 450.951 203.43C451.092 203.668 451.279 203.861 451.514 204.01C451.748 204.154 452.043 204.227 452.398 204.227C452.691 204.227 452.943 204.166 453.154 204.045C453.369 203.92 453.545 203.75 453.682 203.535C453.822 203.32 453.926 203.074 453.992 202.797C454.059 202.516 454.092 202.217 454.092 201.9ZM457.742 196V205H456.652V196H457.742ZM463.221 203.916V200.652C463.221 200.402 463.17 200.186 463.068 200.002C462.971 199.814 462.822 199.67 462.623 199.568C462.424 199.467 462.178 199.416 461.885 199.416C461.611 199.416 461.371 199.463 461.164 199.557C460.961 199.65 460.801 199.773 460.684 199.926C460.57 200.078 460.514 200.242 460.514 200.418H459.43C459.43 200.191 459.488 199.967 459.605 199.744C459.723 199.521 459.891 199.32 460.109 199.141C460.332 198.957 460.598 198.812 460.906 198.707C461.219 198.598 461.566 198.543 461.949 198.543C462.41 198.543 462.816 198.621 463.168 198.777C463.523 198.934 463.801 199.17 464 199.486C464.203 199.799 464.305 200.191 464.305 200.664V203.617C464.305 203.828 464.322 204.053 464.357 204.291C464.396 204.529 464.453 204.734 464.527 204.906V205H463.396C463.342 204.875 463.299 204.709 463.268 204.502C463.236 204.291 463.221 204.096 463.221 203.916ZM463.408 201.156L463.42 201.918H462.324C462.016 201.918 461.74 201.943 461.498 201.994C461.256 202.041 461.053 202.113 460.889 202.211C460.725 202.309 460.6 202.432 460.514 202.58C460.428 202.725 460.385 202.895 460.385 203.09C460.385 203.289 460.43 203.471 460.52 203.635C460.609 203.799 460.744 203.93 460.924 204.027C461.107 204.121 461.332 204.168 461.598 204.168C461.93 204.168 462.223 204.098 462.477 203.957C462.73 203.816 462.932 203.645 463.08 203.441C463.232 203.238 463.314 203.041 463.326 202.85L463.789 203.371C463.762 203.535 463.688 203.717 463.566 203.916C463.445 204.115 463.283 204.307 463.08 204.49C462.881 204.67 462.643 204.82 462.365 204.941C462.092 205.059 461.783 205.117 461.439 205.117C461.01 205.117 460.633 205.033 460.309 204.865C459.988 204.697 459.738 204.473 459.559 204.191C459.383 203.906 459.295 203.588 459.295 203.236C459.295 202.896 459.361 202.598 459.494 202.34C459.627 202.078 459.818 201.861 460.068 201.689C460.318 201.514 460.619 201.381 460.971 201.291C461.322 201.201 461.715 201.156 462.148 201.156H463.408ZM467.094 200.014V205H466.01V198.66H467.035L467.094 200.014ZM466.836 201.59L466.385 201.572C466.389 201.139 466.453 200.738 466.578 200.371C466.703 200 466.879 199.678 467.105 199.404C467.332 199.131 467.602 198.92 467.914 198.771C468.23 198.619 468.58 198.543 468.963 198.543C469.275 198.543 469.557 198.586 469.807 198.672C470.057 198.754 470.27 198.887 470.445 199.07C470.625 199.254 470.762 199.492 470.855 199.785C470.949 200.074 470.996 200.428 470.996 200.846V205H469.906V200.834C469.906 200.502 469.857 200.236 469.76 200.037C469.662 199.834 469.52 199.688 469.332 199.598C469.145 199.504 468.914 199.457 468.641 199.457C468.371 199.457 468.125 199.514 467.902 199.627C467.684 199.74 467.494 199.896 467.334 200.096C467.178 200.295 467.055 200.523 466.965 200.781C466.879 201.035 466.836 201.305 466.836 201.59Z"
                fill="black" />
            <path id="IaC"
                d="M327.396 71.4688V80H326.266V71.4688H327.396ZM333.027 78.916V75.6523C333.027 75.4023 332.977 75.1855 332.875 75.002C332.777 74.8145 332.629 74.6699 332.43 74.5684C332.23 74.4668 331.984 74.416 331.691 74.416C331.418 74.416 331.178 74.4629 330.971 74.5566C330.768 74.6504 330.607 74.7734 330.49 74.9258C330.377 75.0781 330.32 75.2422 330.32 75.418H329.236C329.236 75.1914 329.295 74.9668 329.412 74.7441C329.529 74.5215 329.697 74.3203 329.916 74.1406C330.139 73.957 330.404 73.8125 330.713 73.707C331.025 73.5977 331.373 73.543 331.756 73.543C332.217 73.543 332.623 73.6211 332.975 73.7773C333.33 73.9336 333.607 74.1699 333.807 74.4863C334.01 74.7988 334.111 75.1914 334.111 75.6641V78.6172C334.111 78.8281 334.129 79.0527 334.164 79.291C334.203 79.5293 334.26 79.7344 334.334 79.9062V80H333.203C333.148 79.875 333.105 79.709 333.074 79.502C333.043 79.291 333.027 79.0957 333.027 78.916ZM333.215 76.1562L333.227 76.918H332.131C331.822 76.918 331.547 76.9434 331.305 76.9941C331.062 77.041 330.859 77.1133 330.695 77.2109C330.531 77.3086 330.406 77.4316 330.32 77.5801C330.234 77.7246 330.191 77.8945 330.191 78.0898C330.191 78.2891 330.236 78.4707 330.326 78.6348C330.416 78.7988 330.551 78.9297 330.73 79.0273C330.914 79.1211 331.139 79.168 331.404 79.168C331.736 79.168 332.029 79.0977 332.283 78.957C332.537 78.8164 332.738 78.6445 332.887 78.4414C333.039 78.2383 333.121 78.041 333.133 77.8496L333.596 78.3711C333.568 78.5352 333.494 78.7168 333.373 78.916C333.252 79.1152 333.09 79.3066 332.887 79.4902C332.688 79.6699 332.449 79.8203 332.172 79.9414C331.898 80.0586 331.59 80.1172 331.246 80.1172C330.816 80.1172 330.439 80.0332 330.115 79.8652C329.795 79.6973 329.545 79.4727 329.365 79.1914C329.189 78.9062 329.102 78.5879 329.102 78.2363C329.102 77.8965 329.168 77.5977 329.301 77.3398C329.434 77.0781 329.625 76.8613 329.875 76.6895C330.125 76.5137 330.426 76.3809 330.777 76.291C331.129 76.2012 331.521 76.1562 331.955 76.1562H333.215ZM341.131 77.2871H342.256C342.197 77.8262 342.043 78.3086 341.793 78.7344C341.543 79.1602 341.189 79.498 340.732 79.748C340.275 79.9941 339.705 80.1172 339.021 80.1172C338.521 80.1172 338.066 80.0234 337.656 79.8359C337.25 79.6484 336.9 79.3828 336.607 79.0391C336.314 78.6914 336.088 78.2754 335.928 77.791C335.771 77.3027 335.693 76.7598 335.693 76.1621V75.3125C335.693 74.7148 335.771 74.1738 335.928 73.6895C336.088 73.2012 336.316 72.7832 336.613 72.4355C336.914 72.0879 337.275 71.8203 337.697 71.6328C338.119 71.4453 338.594 71.3516 339.121 71.3516C339.766 71.3516 340.311 71.4727 340.756 71.7148C341.201 71.957 341.547 72.293 341.793 72.7227C342.043 73.1484 342.197 73.6426 342.256 74.2051H341.131C341.076 73.8066 340.975 73.4648 340.826 73.1797C340.678 72.8906 340.467 72.668 340.193 72.5117C339.92 72.3555 339.562 72.2773 339.121 72.2773C338.742 72.2773 338.408 72.3496 338.119 72.4941C337.834 72.6387 337.594 72.8438 337.398 73.1094C337.207 73.375 337.062 73.6934 336.965 74.0645C336.867 74.4355 336.818 74.8477 336.818 75.3008V76.1621C336.818 76.5801 336.861 76.9727 336.947 77.3398C337.037 77.707 337.172 78.0293 337.352 78.3066C337.531 78.584 337.76 78.8027 338.037 78.9629C338.314 79.1191 338.643 79.1973 339.021 79.1973C339.502 79.1973 339.885 79.1211 340.17 78.9688C340.455 78.8164 340.67 78.5977 340.814 78.3125C340.963 78.0273 341.068 77.6855 341.131 77.2871Z"
                fill="black" />
        </g>
    </g>
    <defs>
        <style>
            .hg {
                fill: #222;
                opacity: 0
            }
        </style>

        <filter id="filter0_d_0_5776" x="223" y="173" width="62" height="62" filterUnits="userSpaceOnUse"
            color-interpolation-filters="sRGB">
            <feFlood flood-opacity="0" result="BackgroundImageFix" />
            <feColorMatrix in="SourceAlpha" type="matrix" values="0 0 0 0 0 0 0 0 0 0 0 0 0 0 0 0 0 0 127 0"
                result="hardAlpha" />
            <feMorphology radius="2" operator="dilate" in="SourceAlpha" result="effect1_dropShadow_0_5776" />
            <feOffset dy="2" />
            <feGaussianBlur stdDeviation="2.5" />
            <feColorMatrix type="matrix" values="0 0 0 0 0 0 0 0 0 0 0 0 0 0 0 0 0 0 0.1 0" />
            <feBlend mode="normal" in2="BackgroundImageFix" result="effect1_dropShadow_0_5776" />
            <feBlend mode="normal" in="SourceGraphic" in2="effect1_dropShadow_0_5776" result="shape" />
        </filter>
        <filter id="filter1_d_0_5776" x="303" y="93" width="62" height="62" filterUnits="userSpaceOnUse"
            color-interpolation-filters="sRGB">
            <feFlood flood-opacity="0" result="BackgroundImageFix" />
            <feColorMatrix in="SourceAlpha" type="matrix" values="0 0 0 0 0 0 0 0 0 0 0 0 0 0 0 0 0 0 127 0"
                result="hardAlpha" />
            <feMorphology radius="2" operator="dilate" in="SourceAlpha" result="effect1_dropShadow_0_5776" />
            <feOffset dy="2" />
            <feGaussianBlur stdDeviation="2.5" />
            <feColorMatrix type="matrix" values="0 0 0 0 0 0 0 0 0 0 0 0 0 0 0 0 0 0 0.1 0" />
            <feBlend mode="normal" in2="BackgroundImageFix" result="effect1_dropShadow_0_5776" />
            <feBlend mode="normal" in="SourceGraphic" in2="effect1_dropShadow_0_5776" result="shape" />
        </filter>
        <filter id="filter2_d_0_5776" x="383" y="173" width="62" height="62" filterUnits="userSpaceOnUse"
            color-interpolation-filters="sRGB">
            <feFlood flood-opacity="0" result="BackgroundImageFix" />
            <feColorMatrix in="SourceAlpha" type="matrix" values="0 0 0 0 0 0 0 0 0 0 0 0 0 0 0 0 0 0 127 0"
                result="hardAlpha" />
            <feMorphology radius="2" operator="dilate" in="SourceAlpha" result="effect1_dropShadow_0_5776" />
            <feOffset dy="2" />
            <feGaussianBlur stdDeviation="2.5" />
            <feColorMatrix type="matrix" values="0 0 0 0 0 0 0 0 0 0 0 0 0 0 0 0 0 0 0.1 0" />
            <feBlend mode="normal" in2="BackgroundImageFix" result="effect1_dropShadow_0_5776" />
            <feBlend mode="normal" in="SourceGraphic" in2="effect1_dropShadow_0_5776" result="shape" />
        </filter>
        <filter id="filter3_d_0_5776" x="29" y="93" width="62" height="62" filterUnits="userSpaceOnUse"
            color-interpolation-filters="sRGB">
            <feFlood flood-opacity="0" result="BackgroundImageFix" />
            <feColorMatrix in="SourceAlpha" type="matrix" values="0 0 0 0 0 0 0 0 0 0 0 0 0 0 0 0 0 0 127 0"
                result="hardAlpha" />
            <feMorphology radius="2" operator="dilate" in="SourceAlpha" result="effect1_dropShadow_0_5776" />
            <feOffset dy="2" />
            <feGaussianBlur stdDeviation="2.5" />
            <feColorMatrix type="matrix" values="0 0 0 0 0 0 0 0 0 0 0 0 0 0 0 0 0 0 0.1 0" />
            <feBlend mode="normal" in2="BackgroundImageFix" result="effect1_dropShadow_0_5776" />
            <feBlend mode="normal" in="SourceGraphic" in2="effect1_dropShadow_0_5776" result="shape" />
        </filter>
    </defs>
</svg>