<svg version="1.1" viewBox="0.0 0.0 960.0 720.0" fill="none" stroke="none" stroke-linecap="square" stroke-miterlimit="10" xmlns:xlink="http://www.w3.org/1999/xlink" xmlns="http://www.w3.org/2000/svg"><clipPath id="p.0"><path d="m0 0l960.0 0l0 720.0l-960.0 0l0 -720.0z" clip-rule="nonzero"/></clipPath><g clip-path="url(#p.0)"><path fill="#000000" fill-opacity="0.0" d="m0 0l960.0 0l0 720.0l-960.0 0z" fill-rule="evenodd"/><path fill="#0d44cc" d="m760.2141 359.99982c0 159.59387 -223.4762 277.357 -280.2141 304.65808c-56.8006 -27.267944 -280.2141 -144.76569 -280.2141 -304.65808l0 -215.82161l280.2141 -90.52831l280.2141 90.52831c0 0 0 215.82161 0 215.82161zm39.17169 -256.52454l-309.2093 -99.88301c-6.544281 -2.123053 -13.808746 -2.123053 -20.353027 0l-309.20932 99.88301c-11.272446 3.682167 -18.7874 13.0037 -18.7874 23.386757l0 233.13776c0 212.80286 311.93347 349.64026 325.2412 355.37915c4.0706177 1.7581787 8.485657 2.6206665 12.932007 2.6206665c4.44635 0 8.861389 -0.8624878 12.931976 -2.6206665c13.307739 -5.7388916 325.24124 -142.5763 325.24124 -355.37915l0 -233.13776c0 -10.383057 -7.5149536 -19.70459 -18.787415 -23.386757z" fill-rule="evenodd"/><path fill="#0d44cc" d="m329.08124 359.34286c-5.1881714 6.453705 -5.1881714 16.92337 0 23.377075l88.44443 110.21353c2.586853 3.2204285 5.9830017 4.8370667 9.37915 4.8370667c3.3961487 0 6.792328 -1.6166382 9.379181 -4.8370667l194.57776 -242.46977c5.1881714 -6.45372 5.1881714 -16.910522 0 -23.377075c-5.173706 -6.45372 -13.570129 -6.45372 -18.7583 0l-185.19864 230.78123l-79.06528 -98.524994c-5.1881714 -6.453705 -13.584595 -6.453705 -18.7583 0z" fill-rule="evenodd"/></g></svg>