<svg version="1.1" viewBox="0.0 0.0 960.0 720.0" fill="none" stroke="none" stroke-linecap="square" stroke-miterlimit="10" xmlns:xlink="http://www.w3.org/1999/xlink" xmlns="http://www.w3.org/2000/svg"><clipPath id="p.0"><path d="m0 0l960.0 0l0 720.0l-960.0 0l0 -720.0z" clip-rule="nonzero"/></clipPath><g clip-path="url(#p.0)"><path fill="#000000" fill-opacity="0.0" d="m0 0l960.0 0l0 720.0l-960.0 0z" fill-rule="evenodd"/><path fill="#00bc7f" d="m776.80133 360.00006c0 159.66711 -236.7049 277.48425 -296.80145 304.7979c-60.162903 -27.280457 -296.80145 -144.83209 -296.80145 -304.7979l0 -215.92064l296.80145 -90.569855l296.80145 90.569855c0 0 0 215.92064 0 215.92064zm41.49054 -256.64224l-327.51306 -99.92884c-6.931671 -2.1240273 -14.62616 -2.1240273 -21.55783 0l-327.51306 99.92884c-11.939713 3.6838608 -19.899529 13.009674 -19.899529 23.397491l0 233.24475c0 212.90057 330.3985 349.80072 344.494 355.54224c4.3115845 1.7589722 8.987976 2.6218872 13.69751 2.6218872c4.709564 0 9.385956 -0.86291504 13.69751 -2.6218872c14.09552 -5.741516 344.49402 -142.64166 344.49402 -355.54224l0 -233.24475c0 -10.387817 -7.959839 -19.71363 -19.899536 -23.397491z" fill-rule="evenodd"/><path fill="#00bc7f" d="m320.14413 359.37015c-5.4954224 6.4571533 -5.4954224 16.932373 0 23.389496l93.68259 110.272156c2.7400513 3.222168 6.3373413 4.8396606 9.934631 4.8396606c3.59729 0 7.19458 -1.6174927 9.934631 -4.8396606l206.10168 -242.59872c5.4954224 -6.4571533 5.4954224 -16.919525 0 -23.389511c-5.4801025 -6.457138 -14.37384 -6.457138 -19.869263 0l-196.16705 230.90398l-83.747955 -98.57739c-5.4954224 -6.4571533 -14.38913 -6.4571533 -19.869263 0z" fill-rule="evenodd"/></g></svg>