<svg version="1.1" viewBox="0.0 0.0 960.0 720.0" fill="none" stroke="none" stroke-linecap="square" stroke-miterlimit="10" xmlns:xlink="http://www.w3.org/1999/xlink" xmlns="http://www.w3.org/2000/svg"><clipPath id="p.0"><path d="m0 0l960.0 0l0 720.0l-960.0 0l0 -720.0z" clip-rule="nonzero"/></clipPath><g clip-path="url(#p.0)"><path fill="#000000" fill-opacity="0.0" d="m0 0l960.0 0l0 720.0l-960.0 0z" fill-rule="evenodd"/><path fill="#cc0000" d="m223.2982 2.4606223c-55.617706 0 -100.840195 45.22213 -100.840195 100.839386l0 513.4003c0 55.61725 45.22249 100.839355 100.840195 100.839355l513.40436 0c55.617676 0 100.84015 -45.222107 100.84015 -100.839355l0 -513.4003c0 -55.61726 -45.222473 -100.839386 -100.84015 -100.839386c0 0 -513.40436 0 -513.40436 0zm0 55.021362l513.40436 0c25.292786 0 45.81836 20.525417 45.81836 45.818027l0 513.4003c0 25.292603 -20.525574 45.817993 -45.81836 45.817993l-513.40436 0c-25.292816 0 -45.81839 -20.52539 -45.81839 -45.817993l0 -513.4003c0 -25.29261 20.525574 -45.818027 45.81839 -45.818027zm127.19237 173.00941c-10.726257 10.759277 -10.726257 28.238983 0 38.96518l90.54431 90.54358l-90.54431 90.54358c-10.726257 10.726166 -10.726257 28.205902 0 38.96518c5.39624 5.363098 12.447784 8.011536 19.499329 8.011536c7.018402 0 14.103058 -2.6484375 19.466187 -8.011536l90.54428 -90.54358l90.54431 90.54358c5.363098 5.363098 12.447754 8.011536 19.466187 8.011536c7.0515137 0 14.103027 -2.6484375 19.499268 -8.011536c10.726318 -10.759277 10.726318 -28.239014 0 -38.96518l-90.54425 -90.54358l90.54425 -90.54358c10.726318 -10.726196 10.726318 -28.205902 0 -38.96518c-10.759338 -10.726196 -28.239197 -10.726196 -38.965454 0l-90.54431 90.54358l-90.54428 -90.54358c-10.726288 -10.726196 -28.206116 -10.726196 -38.965515 0z" fill-rule="evenodd"/></g></svg>