<svg version="1.1" viewBox="0.0 0.0 960.0 720.0" fill="none" stroke="none" stroke-linecap="square" stroke-miterlimit="10" xmlns:xlink="http://www.w3.org/1999/xlink" xmlns="http://www.w3.org/2000/svg"><clipPath id="p.0"><path d="m0 0l960.0 0l0 720.0l-960.0 0l0 -720.0z" clip-rule="nonzero"/></clipPath><g clip-path="url(#p.0)"><path fill="#000000" fill-opacity="0.0" d="m0 0l960.0 0l0 720.0l-960.0 0z" fill-rule="evenodd"/><path fill="#02b87b" d="m503.1189 7.7438536c-25.776215 -6.345172 -51.816193 -2.4455347 -74.57767 11.335385c-13.604095 8.294989 -25.625458 19.200752 -33.878357 32.88253l-306.11133 513.59534c-13.302628 23.067383 -17.033394 50.232605 -10.174812 75.97687c6.8585815 25.744202 23.326714 47.91925 46.314262 61.237488c14.734642 8.559387 31.24047 12.260742 48.57534 12.458984l613.3908 0c54.830994 -0.59484863 98.8465 -45.8703 98.28125 -100.89484c-0.22613525 -17.118713 -4.7859497 -33.576538 -13.566467 -48.778503c0 0 -306.11127 -513.59534 -306.11127 -513.59534c-13.7925415 -22.769913 -36.32788 -37.87274 -62.141785 -44.217915zm-12.435883 52.14938c11.719879 2.8751564 20.952576 10.178711 27.132843 20.423523l306.11133 512.47174c3.8814697 6.708679 6.7078247 14.937561 6.783203 22.670776c0.30145264 25.01715 -20.575745 45.07715 -45.183716 45.341553l-611.12976 0c-7.7630157 -0.066101074 -15.902863 -1.7846069 -22.610718 -5.651184c-10.438599 -6.0808105 -18.352356 -15.532471 -21.442474 -27.231384c-3.1278229 -11.698914 -1.3189697 -23.893494 4.5221405 -34.006165l306.11133 -513.59534c3.7684326 -6.1799393 9.684906 -11.004913 15.827484 -14.739311c10.325562 -6.279072 22.12082 -8.592415 33.878387 -5.6842117zm-27.095184 162.13235c-14.960754 0 -27.132843 12.194626 -27.132843 27.198318l0 145.14578c0 15.003693 12.172089 27.198334 27.132843 27.198334c14.960754 0 27.095184 -12.194641 27.095184 -27.198334l0 -145.14578c0 -15.003693 -12.13443 -27.198318 -27.095184 -27.198318zm-9.044281 292.53888c-3.580017 1.5863037 -6.255615 3.9656982 -9.044281 6.7747803c-2.7886353 2.809082 -5.20047 5.485901 -6.783203 9.088135c-1.5827637 3.9987793 -2.261078 7.336609 -2.261078 11.335388c0 7.9975586 3.5046692 15.962097 9.044281 21.54712c5.5396423 5.585083 12.360535 9.055115 20.34964 9.055115c3.9568787 0 8.403656 -0.6609497 12.398224 -2.2472534c3.580017 -1.1896973 6.255615 -3.9987793 9.044281 -6.8078613c5.577301 -5.585022 9.044281 -13.549561 9.044281 -21.54712c0 -3.9987793 -0.6783142 -7.336609 -2.261078 -11.335388c-1.5827637 -3.602234 -4.032257 -6.2790527 -6.783203 -9.088135c-2.7886658 -2.809082 -5.464264 -5.1884766 -9.044281 -6.7747803c-7.5369263 -3.205658 -16.166656 -3.205658 -23.703583 0z" fill-rule="evenodd"/></g></svg>