<svg version="1.1" viewBox="0.0 0.0 960.0 720.0" fill="none" stroke="none" stroke-linecap="square" stroke-miterlimit="10" xmlns:xlink="http://www.w3.org/1999/xlink" xmlns="http://www.w3.org/2000/svg"><clipPath id="p.0"><path d="m0 0l960.0 0l0 720.0l-960.0 0l0 -720.0z" clip-rule="nonzero"/></clipPath><g clip-path="url(#p.0)"><path fill="#000000" fill-opacity="0.0" d="m0 0l960.0 0l0 720.0l-960.0 0z" fill-rule="evenodd"/><path fill="#ffffff" d="m424.28616 2.0036805l-281.44547 163.10876l0 389.7768l105.841736 61.652954l0 -391.00012l175.60373 -101.541115l0 -121.99728z" fill-rule="evenodd"/><path fill="#ffffff" d="m536.3748 2.0036805l0 311.32327l-112.09122 0l0 -116.481064l-105.838135 61.65474l0 397.83878l105.838135 61.654724l0 -310.0305l112.09122 0l0 115.18826l105.194885 -61.654724l0 -397.83878l-105.194885 -61.654736z" fill-rule="evenodd"/><path fill="#ffffff" d="m711.90344 103.45712l0 391.00012l-175.53363 101.54111l0 121.997314l280.79144 -161.88538l0 -391.00018l-105.25781 -61.653z" fill-rule="evenodd"/></g></svg>