<svg version="1.1" viewBox="0.0 0.0 960.0 720.0" fill="none" stroke="none" stroke-linecap="square" stroke-miterlimit="10" xmlns:xlink="http://www.w3.org/1999/xlink" xmlns="http://www.w3.org/2000/svg"><clipPath id="p.0"><path d="m0 0l960.0 0l0 720.0l-960.0 0l0 -720.0z" clip-rule="nonzero"/></clipPath><g clip-path="url(#p.0)"><path fill="#000000" fill-opacity="0.0" d="m0 0l960.0 0l0 720.0l-960.0 0z" fill-rule="evenodd"/><path fill="#000000" d="m381.73615 118.21624c-47.606293 0 -86.31183 34.403877 -86.31183 76.72147l0 446.33408c0 42.317566 38.705536 76.721436 86.31183 76.721436l376.67963 0c47.606323 0 86.31183 -34.40387 86.31183 -76.721436l0 -334.76443c0 -2.776764 -0.7628784 -5.303589 -1.9581299 -7.8304443c-1.1952515 -2.554596 -2.746521 -5.0536804 -4.908142 -6.9696045l-188.33984 -167.38223c-2.1361694 -1.9159546 -4.984375 -3.304329 -7.8326416 -4.359497c-2.8482056 -1.0551605 -5.696472 -1.7493439 -8.824463 -1.7493439l-251.12823 0zm0 41.84556l227.5794 0l0 146.44556c0 11.551239 10.52832 20.936646 23.548828 20.936646l164.79102 0c0 0 0 313.8278 0 313.8278c0 19.242798 -17.598083 34.875916 -39.239624 34.875916l-376.67963 0c-21.64154 0 -39.239594 -15.633118 -39.239594 -34.875916l0 -446.33408c0 -19.242844 17.598053 -34.875916 39.239594 -34.875916zm274.65167 29.627869l107.902466 95.90878l-107.902466 0c0 0 0 -95.90878 0 -95.90878zm-211.86325 123.81506c-12.995087 0 -23.548828 9.3576355 -23.548828 20.908905c0 11.55127 10.553741 20.936646 23.548828 20.936646l62.76297 0c13.020508 0 23.548828 -9.385376 23.548828 -20.936646c0 -11.55127 -10.52832 -20.908905 -23.548828 -20.908905l-62.76297 0zm0 111.56964c-12.995087 0 -23.548828 9.3854065 -23.548828 20.936676c0 11.551239 10.553741 20.908875 23.548828 20.908875l251.10281 0c12.995117 0 23.548828 -9.3576355 23.548828 -20.908875c0 -11.55127 -10.553711 -20.936676 -23.548828 -20.936676l-251.10281 0zm0 111.59738c-12.995087 0 -23.548828 9.357666 -23.548828 20.908936c0 11.5512085 10.553741 20.936646 23.548828 20.936646l251.10281 0c12.995117 0 23.548828 -9.385437 23.548828 -20.936646c0 -11.55127 -10.553711 -20.908936 -23.548828 -20.908936l-251.10281 0z" fill-rule="evenodd"/><g filter="url(#shadowFilter-p.1)"><use xlink:href="#p.1" transform="matrix(1.0 0.0 0.0 1.0 0.0 7.332598348302165)"/></g><defs><filter id="shadowFilter-p.1" filterUnits="userSpaceOnUse"><feGaussianBlur in="SourceAlpha" stdDeviation="5.3333335" result="blur"/><feComponentTransfer in="blur" color-interpolation-filters="sRGB"><feFuncR type="linear" slope="0" intercept="0.0"/><feFuncG type="linear" slope="0" intercept="0.0"/><feFuncB type="linear" slope="0" intercept="0.0"/><feFuncA type="linear" slope="0.0627" intercept="0"/></feComponentTransfer></filter></defs><g id="p.1"><path fill="#ffffff" d="m168.51273 141.95932l0 0c0 -77.29378 62.658997 -139.95276 139.95276 -139.95276l0 0l0 0c37.117798 0 72.7153 14.74498 98.96155 40.991215c26.246246 26.246235 40.99121 61.84376 40.99121 98.96155l0 69.95276c0 77.29376 -62.658997 139.95276 -139.95276 139.95276l0 0l0 0c-77.29376 0 -139.95276 -62.658997 -139.95276 -139.95276z" fill-rule="evenodd"/></g><path fill="#000000" d="m308.43924 39.208664c-121.46469 0 -189.02673 126.900055 -191.85901 132.31987c-1.7387924 3.3283997 -1.7387924 7.485718 0 10.814117c2.8322601 5.419815 70.39431 132.31989 191.85901 132.31989c121.46469 0 189.02673 -126.90007 191.85901 -132.31989c1.7387695 -3.3283997 1.7387695 -7.485718 0 -10.814117c-2.8322754 -5.419815 -70.39432 -132.31987 -191.85901 -132.31987zm0 23.604866c93.08826 0 153.39041 91.01455 167.1753 114.12206c-13.749054 23.133026 -73.87192 114.122055 -167.1753 114.122055c-93.08827 0 -153.3904 -91.01454 -167.17528 -114.122055c13.749023 -23.133026 73.87189 -114.12206 167.17528 -114.12206zm0 55.090767c-34.02301 0 -61.71826 26.486938 -61.71826 59.031296c0 32.544357 27.695251 59.031296 61.71826 59.031296c34.02301 0 61.71826 -26.486938 61.71826 -59.031296c0 -32.544357 -27.695251 -59.031296 -61.71826 -59.031296zm0 23.617615c20.417389 0 37.034546 15.889618 37.034546 35.41368c0 19.524063 -16.617157 35.41368 -37.034546 35.41368c-20.417389 0 -37.034546 -15.889618 -37.034546 -35.41368c0 -19.524063 16.617157 -35.41368 37.034546 -35.41368z" fill-rule="evenodd"/></g></svg>