<svg version="1.1" viewBox="0.0 0.0 960.0 720.0" fill="none" stroke="none" stroke-linecap="square" stroke-miterlimit="10" xmlns:xlink="http://www.w3.org/1999/xlink" xmlns="http://www.w3.org/2000/svg"><clipPath id="p.0"><path d="m0 0l960.0 0l0 720.0l-960.0 0l0 -720.0z" clip-rule="nonzero"/></clipPath><g clip-path="url(#p.0)"><path fill="#000000" fill-opacity="0.0" d="m0 0l960.0 0l0 720.0l-960.0 0z" fill-rule="evenodd"/><path fill="#000000" d="m480.43826 2.46063l-338.1745 357.77127l231.3809 245.11319l73.42645 -76.83789l-65.85864 -69.753296l-20.451843 20.72403l46.25116 49.029266l-33.367126 35.35669l-85.434875 -91.43741l85.434875 -91.43744l52.94336 56.08075l126.40109 -132.91864l-65.85867 -69.78641l-20.483093 20.757156l46.28244 49.02925l-86.34177 91.43744l-98.31891 -105.110016l-20.483124 20.72406l46.28244 49.029266l-86.310486 91.43741l-85.434875 -91.43741l32.46025 -35.35669l46.282455 49.029266l20.483093 -21.220642l-46.28244 -48.532684l85.434875 -91.47052l99.2258 105.1431l20.483093 -21.220642l-99.25705 -104.646515l32.491516 -35.356674l52.94336 56.080734l66.76553 -69.75331l-20.483124 -20.72406l-46.28241 48.532684l-32.460266 -34.860107l86.310486 -91.47053l45.40683 48.56579l20.451843 -20.757156l-65.85867 -69.75331zm112.57889 119.74263l-20.451843 20.72406l99.22583 105.11l-32.491516 34.89319l-99.22583 -104.646515l-20.483093 20.757156l119.70892 125.83406l52.94336 -56.08075l32.491516 35.35669l-45.844666 48.532684l20.483154 21.220642l45.844604 -49.029266l32.460266 35.35669l-85.434875 91.43741l-105.88672 -112.16147l-73.42645 76.83789l65.85864 69.289856l20.451843 -20.757172l-46.25116 -48.532684l33.367126 -35.35669l85.434875 91.43744l-85.434875 91.43741l-99.2258 -105.109985l-20.483093 20.72403l46.28244 49.029266l-46.28244 49.029297l20.483093 20.757141l46.28244 -49.029297l32.460266 35.35669l-85.434906 91.43744l-46.28244 -49.029236l-20.451813 20.757141l66.73425 69.753296l337.29892 -357.30777l-224.72003 -238.02864z" fill-rule="evenodd"/></g></svg>