<svg version="1.1" viewBox="0.0 0.0 960.0 720.0" fill="none" stroke="none" stroke-linecap="square" stroke-miterlimit="10" xmlns:xlink="http://www.w3.org/1999/xlink" xmlns="http://www.w3.org/2000/svg"><clipPath id="p.0"><path d="m0 0l960.0 0l0 720.0l-960.0 0l0 -720.0z" clip-rule="nonzero"/></clipPath><g clip-path="url(#p.0)"><path fill="#000000" fill-opacity="0.0" d="m0 0l960.0 0l0 720.0l-960.0 0z" fill-rule="evenodd"/><path fill="#000000" d="m570.25006 3.6503603c-2.4730225 -2.0908062 -6.5426025 -2.0908062 -9.86084 0l-412.68323 310.0367c-3.3182526 2.0907898 -5.791275 6.4051514 -5.791275 11.681946c0 4.3143616 2.4730225 8.496002 5.791275 10.719543l28.674637 22.235565l-28.674637 21.405853c-3.3182526 2.0908203 -5.791275 6.3720093 -5.791275 11.648804c0 4.3143616 2.4730225 8.495972 5.791275 10.719513l28.674637 22.368317l-28.674637 21.273132c-3.3182526 2.0907898 -5.791275 6.3719788 -5.791275 11.681946c0 4.281189 2.4730225 8.595551 5.791275 10.68634l28.674637 22.368317l-28.674637 21.273132c-3.3182526 2.2235413 -5.791275 6.405182 -5.791275 11.814728c0 4.1815796 2.4730225 8.462769 5.791275 11.681946l242.88927 181.0705c3.2243347 2.0907593 7.3878174 2.0907593 9.86084 0l412.71457 -307.84637c3.3182373 -3.1859741 4.914734 -7.5003357 4.914734 -11.781525c0 -5.309967 -1.5964966 -9.591156 -4.914734 -11.681946l-29.551147 -22.368317l29.551147 -21.273132c3.3182373 -3.2191772 4.914734 -7.5003357 4.914734 -11.681976c0 -5.409546 -1.5964966 -9.591156 -4.914734 -11.814697l-28.705933 -21.273132l28.705933 -21.23993c3.3182373 -3.2191772 4.914734 -7.500366 4.914734 -11.814728c0 -5.2767944 -1.5964966 -9.591156 -4.914734 -11.681961l-27.860718 -21.273117l27.860718 -21.372696c3.3182373 -2.090805 4.914734 -6.4051666 4.914734 -10.586777c0 -5.409546 -1.5964966 -9.591156 -4.914734 -11.814713zm83.7074 294.07358l-222.3537 -166.2357l133.73157 -100.19277l222.44763 167.33087zm-100.95599 86.15448l-228.11371 -170.38412l87.87088 -66.009735l232.21457 174.69849l0 181.07047l-87.025696 65.04727l0 -172.60764c0 -5.409546 -1.6278076 -9.591156 -4.946045 -11.814728zm-379.9391 -58.5094l129.66199 -97.96919l222.44763 166.06975l-129.63068 98.10196zm492.35248 29.769104l0 -35.0459l99.3595 -74.63846l23.008606 18.087128zm0 30.963867l98.51428 -73.5101l23.85382 17.091492l-122.3681 91.59723zm-492.35248 5.2767944l23.00859 -18.053955l194.52428 144.82983c3.2243347 2.1903687 7.3878174 2.1903687 10.612152 0l136.26715 -103.279205l0 36.141083l-141.93323 106.5979zm492.35248 97.006775l0 -36.273834l97.73169 -73.5101l24.636414 18.087128zm-492.35248 -30.963867l23.00859 -18.087128l194.52428 144.96255c3.2243347 2.0908203 7.3878174 2.0908203 10.612152 0l136.26715 -102.28354l0 35.145416l-141.93323 106.46521zm222.47894 232.21228l-222.47894 -166.06976l23.885101 -18.21991l193.64777 144.96259c3.2243347 2.0908203 7.3878174 2.0908203 10.612152 0l136.26715 -102.28357l0 35.145447z" fill-rule="evenodd"/></g></svg>