<svg version="1.1" viewBox="0.0 0.0 960.0 720.0" fill="none" stroke="none" stroke-linecap="square" stroke-miterlimit="10" xmlns:xlink="http://www.w3.org/1999/xlink" xmlns="http://www.w3.org/2000/svg"><clipPath id="p.0"><path d="m0 0l960.0 0l0 720.0l-960.0 0l0 -720.0z" clip-rule="nonzero"/></clipPath><g clip-path="url(#p.0)"><path fill="#000000" fill-opacity="0.0" d="m0 0l960.0 0l0 720.0l-960.0 0z" fill-rule="evenodd"/><path fill="#000000" d="m276.4462 233.81386c-19.503448 0 -38.88208 11.396652 -49.554367 27.799942l-80.69745 135.93643c-2.9021149 4.150238 -2.9021149 11.297852 0 16.502106c2.0283508 5.105438 7.863785 8.20166 13.699219 8.20166c5.8042297 0 57.262115 5.105438 129.09721 13.438812c2.0283508 0 2.9020996 0.9552307 3.9318848 2.0092468l4.8056335 5.105438l-116.55258 125.59381c-2.9020996 3.0961914 -3.8070679 7.24646 -3.8070679 11.3966675c0 5.1054077 0.90496826 9.288574 3.8070679 12.351868c2.9021149 3.0961914 6.834015 4.0513916 11.639664 4.0513916c3.9319 0 7.863785 -2.0092163 10.7659 -4.0513916l117.457535 -124.60568l18.504883 19.598328c3.9318848 3.0961914 6.834015 4.1502075 11.639648 4.1502075c3.9318848 0 7.738983 -2.1409912 10.672302 -4.1502075c3.9006653 -3.096222 4.9304504 -7.2464294 4.9304504 -12.351868c0 -4.1831665 -2.0283508 -8.20166 -4.9304504 -11.297852l-45.622467 -49.44043c-5.835449 -6.1594543 -14.572968 -10.342621 -23.310516 -11.3966675c-32.048065 -3.0961914 -68.93298 -7.1146545 -95.145615 -10.210876l-10.7659 -1.0869446l68.028015 -112.155c2.9021149 -7.2464294 11.639664 -12.351868 20.408401 -12.351868l0.9985962 0l131.00073 6.1924133c7.8637695 0 14.572968 -6.1924133 15.602753 -15.44809c0 -5.2371826 -1.9035339 -8.333374 -3.9318848 -12.384796c-2.9021301 -3.063263 -6.7404175 -5.204254 -10.641083 -5.204254l-130.12698 -6.192398zm58.26068 362.3874c-4.930481 0 -8.737549 1.0869751 -11.639648 4.1502686l-55.35858 58.696045c-2.933319 3.0962524 -3.9319153 7.24646 -3.9319153 12.384827c0 4.1502075 0.9985962 8.168701 3.9319153 11.264893c2.9020996 3.0961914 6.7091675 5.2371826 11.639648 5.2371826c3.8070679 0 7.7389526 -2.1409912 10.641083 -5.2371826l55.38977 -58.696045c2.9021301 -3.0962524 4.805664 -7.114685 4.805664 -11.264954c0 -5.1383667 -1.9035339 -9.288574 -4.805664 -12.384766c-2.933319 -3.0632935 -6.8339844 -4.1502686 -10.672272 -4.1502686zm452.57352 -591.9345c-2.9020996 0 -4.930481 1.0540261 -7.8325806 1.0540261l-52.456482 14.394045c-91.213684 25.65895 -179.65009 76.1534 -255.41708 145.19212c-5.8354187 5.105438 -7.7389526 16.403275 -1.9035339 22.562744c2.9020996 4.1831665 7.7389526 6.1924133 11.639648 6.1924133c3.9318848 0 7.738983 -0.95521545 10.672302 -4.051422c72.83368 -64.85555 156.43323 -113.34076 243.74622 -138.0445l47.650818 -13.307083l-12.669434 50.36269c-31.049438 126.64784 -103.91431 246.08218 -201.96204 335.67444l-1.0297852 1.0540161c-0.8737793 0 -0.8737793 0 -0.8737793 1.0540161c-1.0297852 0.9552307 -1.0297852 0.9552307 -1.0297852 0.9552307c0 1.0869446 -0.99853516 1.0869446 -0.99853516 2.1409912c0 0 0 0 0 0.9552002c0 0 -0.90496826 1.0869751 -0.90496826 1.0869751c0 1.0540161 0 1.0540161 -0.9985962 1.0540161l0 4.051422l5.835449 137.94565c0.99853516 10.309692 -3.9318848 19.598328 -12.669434 24.703735l-105.8179 72.13495l-11.639679 -121.4436c0 -8.333374 -6.8339844 -14.492859 -15.571533 -14.492859l-1.0297852 0c-8.737549 0 -14.572968 9.255676 -13.543182 17.58905l12.669434 147.20135c0.8737488 6.192444 3.8070679 11.297852 8.737549 13.307129c1.9035339 2.1409912 4.8056335 2.1409912 6.7091675 2.1409912c2.933319 0 5.835449 0 8.737549 -2.1409912l127.31851 -86.49603c17.506287 -11.297852 28.147339 -32.905396 26.243835 -53.458923l-4.930481 -129.74402l2.9020996 -2.0421753c99.077515 -93.74246 171.94238 -216.24008 204.98901 -344.89716l13.574402 -55.63282c1.9035034 -9.255669 -0.9985962 -20.553513 -8.737549 -28.85397c-4.836853 -5.10544 -11.670837 -8.201642 -19.409851 -8.201642z" fill-rule="evenodd"/></g></svg>