<svg version="1.1" viewBox="0.0 0.0 960.0 720.0" fill="none" stroke="none" stroke-linecap="square" stroke-miterlimit="10" xmlns:xlink="http://www.w3.org/1999/xlink" xmlns="http://www.w3.org/2000/svg"><clipPath id="p.0"><path d="m0 0l960.0 0l0 720.0l-960.0 0l0 -720.0z" clip-rule="nonzero"/></clipPath><g clip-path="url(#p.0)"><path fill="#000000" fill-opacity="0.0" d="m0 0l960.0 0l0 720.0l-960.0 0z" fill-rule="evenodd"/><path fill="#000000" fill-opacity="0.0" d="m482.41733 240.58792l0 -151.55905" fill-rule="evenodd"/><path stroke="#5b44df" stroke-width="2.0" stroke-linejoin="round" stroke-linecap="round" stroke-dasharray="0.0,8.0" d="m482.41733 240.58792l0 -142.55905" fill-rule="evenodd"/><path fill="#5b44df" stroke="#5b44df" stroke-width="2.0" stroke-linecap="butt" d="m484.62888 98.02887l-2.2115479 -6.076195l-2.2115479 6.076195z" fill-rule="evenodd"/><g filter="url(#shadowFilter-p.1)"><use xlink:href="#p.1" transform="matrix(1.0 0.0 0.0 1.0 0.0 7.332598348302165)"/></g><defs><filter id="shadowFilter-p.1" filterUnits="userSpaceOnUse"><feGaussianBlur in="SourceAlpha" stdDeviation="5.3333335" result="blur"/><feComponentTransfer in="blur" color-interpolation-filters="sRGB"><feFuncR type="linear" slope="0" intercept="0.0"/><feFuncG type="linear" slope="0" intercept="0.0"/><feFuncB type="linear" slope="0" intercept="0.0"/><feFuncA type="linear" slope="0.0627" intercept="0"/></feComponentTransfer></filter></defs><g id="p.1"><path fill="#ffffff" d="m373.5366 177.55794l0 0c0 -1.6374664 1.3274231 -2.9648895 2.9649048 -2.9648895l211.83401 0c0.7863159 0 1.5404663 0.31236267 2.0964966 0.86839294c0.5560303 0.556015 0.86834717 1.3101501 0.86834717 2.0964966l0 34.763138c0 1.6374512 -1.3273926 2.9648895 -2.9648438 2.9648895l-211.83401 0c-1.6374817 0 -2.9649048 -1.3274384 -2.9649048 -2.9648895z" fill-rule="evenodd"/><path stroke="#efefef" stroke-width="2.0" stroke-miterlimit="400.0" stroke-linecap="butt" stroke-opacity="0.4784" d="m373.5366 177.55794l0 0c0 -1.6374664 1.3274231 -2.9648895 2.9649048 -2.9648895l211.83401 0c0.7863159 0 1.5404663 0.31236267 2.0964966 0.86839294c0.5560303 0.556015 0.86834717 1.3101501 0.86834717 2.0964966l0 34.763138c0 1.6374512 -1.3273926 2.9648895 -2.9648438 2.9648895l-211.83401 0c-1.6374817 0 -2.9649048 -1.3274384 -2.9649048 -2.9648895z" fill-rule="evenodd"/></g><g filter="url(#shadowFilter-p.2)"><use xlink:href="#p.2" transform="matrix(1.0 0.0 0.0 1.0 0.0 7.332598348302165)"/></g><defs><filter id="shadowFilter-p.2" filterUnits="userSpaceOnUse"><feGaussianBlur in="SourceAlpha" stdDeviation="5.3333335" result="blur"/><feComponentTransfer in="blur" color-interpolation-filters="sRGB"><feFuncR type="linear" slope="0" intercept="0.0"/><feFuncG type="linear" slope="0" intercept="0.0"/><feFuncB type="linear" slope="0" intercept="0.0"/><feFuncA type="linear" slope="0.0627" intercept="0"/></feComponentTransfer></filter></defs><g id="p.2"><defs><linearGradient id="p.3" gradientUnits="userSpaceOnUse" gradientTransform="matrix(10.147440884874516 0.0 0.0 10.147440884874516 0.0 0.0)" spreadMethod="pad" x1="35.183785700181744" y1="24.021471218115657" x2="38.015347273244906" y2="33.76584475210824"><stop offset="0.0" stop-color="#5d42e8"/><stop offset="1.0" stop-color="#3a2aa6"/></linearGradient></defs><path fill="url(#p.3)" d="m367.92938 243.55281l0 0c0 -1.6374664 1.3274231 -2.9648895 2.9648743 -2.9648895l223.0466 0c0.78637695 0 1.5404663 0.31237793 2.0964966 0.86839294c0.5560303 0.5560303 0.8684082 1.3101654 0.8684082 2.0964966l0 34.763138c0 1.6374817 -1.3274536 2.9649048 -2.9649048 2.9649048l-223.0466 0c-1.6374512 0 -2.9648743 -1.3274231 -2.9648743 -2.9649048z" fill-rule="evenodd"/></g><path fill="#000000" fill-opacity="0.0" d="m367.92914 240.58792l228.97638 0l0 40.692932l-228.97638 0z" fill-rule="evenodd"/><path fill="#ffffff" d="m391.09576 256.21875q1.484375 0 2.34375 0.84375q0.875 0.828125 0.875 2.203125q0 1.375 -0.875 2.21875q-0.859375 0.84375 -2.34375 0.84375l-2.265625 0l0 3.40625l-2.09375 0l0 -9.515625l4.359375 0zm-0.578125 4.484375q0.890625 0 1.328125 -0.34375q0.4375 -0.34375 0.4375 -1.09375q0 -0.71875 -0.421875 -1.0625q-0.421875 -0.359375 -1.34375 -0.359375l-1.6875 0l0 2.859375l1.6875 0zm7.20224 -4.484375l0 7.765625l4.640625 0l0 1.75l-6.734375 0l0 -9.515625l2.09375 0zm10.541199 0l3.5625 9.515625l-2.171875 0l-0.71875 -2.125l-3.5625 0l-0.734375 2.125l-2.125 0l3.609375 -9.515625l2.140625 0zm-1.09375 2.34375l-1.25 3.5l2.46875 0l-1.1875 -3.5l-0.03125 0zm7.568054 -2.34375l3.96875 6.390625l0.03125 0l0 -6.390625l1.953125 0l0 9.515625l-2.09375 0l-3.953125 -6.375l-0.03125 0l0 6.375l-1.953125 0l0 -9.515625l2.078125 0zm13.597565 0l0 9.515625l-2.09375 0l0 -9.515625l2.09375 0zm3.9151306 0l3.96875 6.390625l0.03125 0l0 -6.390625l1.953125 0l0 9.515625l-2.09375 0l-3.953125 -6.375l-0.03125 0l0 6.375l-1.953125 0l0 -9.515625l2.078125 0zm18.55069 0l0 1.765625l-2.859375 0l0 7.75l-2.078125 0l0 -7.75l-2.859375 0l0 -1.765625l7.796875 0zm8.203857 0l0 1.765625l-5.015625 0l0 2.03125l4.609375 0l0 1.625l-4.609375 0l0 2.34375l5.125 0l0 1.75l-7.21875 0l0 -9.515625l7.109375 0zm6.714081 0q1.140625 0 1.9375 0.75q0.796875 0.734375 0.796875 1.875q0 0.90625 -0.375 1.5q-0.375 0.578125 -1.140625 0.890625l0 0.015625q0.671875 0.1875 1.03125 0.8125q0.359375 0.625 0.390625 1.90625q0.015625 1.296875 0.375 1.765625l-2.109375 0q-0.171875 -0.46875 -0.234375 -1.5q-0.109375 -1.40625 -0.484375 -1.8125q-0.375 -0.40625 -1.140625 -0.40625l-2.140625 0l0 3.71875l-2.09375 0l0 -9.515625l5.1875 0zm-0.765625 4.296875q0.65625 0 1.015625 -0.3125q0.375 -0.3125 0.375 -1.046875q0 -0.671875 -0.359375 -0.984375q-0.34375 -0.328125 -1.03125 -0.328125l-2.328125 0l0 2.671875l2.328125 0zm10.390778 -4.296875q1.140625 0 1.9375 0.75q0.796875 0.734375 0.796875 1.875q0 0.90625 -0.375 1.5q-0.375 0.578125 -1.140625 0.890625l0 0.015625q0.671875 0.1875 1.03125 0.8125q0.359375 0.625 0.390625 1.90625q0.015625 1.296875 0.375 1.765625l-2.109375 0q-0.171875 -0.46875 -0.234375 -1.5q-0.109375 -1.40625 -0.484375 -1.8125q-0.375 -0.40625 -1.140625 -0.40625l-2.140625 0l0 3.71875l-2.09375 0l0 -9.515625l5.1875 0zm-0.765625 4.296875q0.65625 0 1.015625 -0.3125q0.375 -0.3125 0.375 -1.046875q0 -0.671875 -0.359375 -0.984375q-0.34375 -0.328125 -1.03125 -0.328125l-2.328125 0l0 2.671875l2.328125 0zm9.937653 -4.296875l3.5625 9.515625l-2.171875 0l-0.71875 -2.125l-3.5625 0l-0.734375 2.125l-2.125 0l3.609375 -9.515625l2.140625 0zm-1.09375 2.34375l-1.25 3.5l2.46875 0l-1.1875 -3.5l-0.03125 0zm12.177429 -2.34375l0 1.765625l-4.59375 0l0 2.1875l3.984375 0l0 1.625l-3.984375 0l0 3.9375l-2.09375 0l0 -9.515625l6.6875 0zm5.478668 -0.234375q2.125 0 3.390625 1.4375q1.28125 1.421875 1.28125 3.59375q0 2.125 -1.28125 3.546875q-1.28125 1.40625 -3.390625 1.40625q-1.375 0 -2.453125 -0.625q-1.0625 -0.640625 -1.65625 -1.78125q-0.578125 -1.140625 -0.578125 -2.546875q0 -2.203125 1.28125 -3.609375q1.296875 -1.421875 3.40625 -1.421875zm-2.59375 5.03125q0 1.40625 0.671875 2.296875q0.671875 0.890625 1.921875 0.890625q1.234375 0 1.90625 -0.875q0.671875 -0.875 0.671875 -2.3125q0 -1.5 -0.6875 -2.375q-0.6875 -0.890625 -1.90625 -0.890625q-1.21875 0 -1.90625 0.890625q-0.671875 0.890625 -0.671875 2.375zm13.88269 -4.796875q1.140625 0 1.9375 0.75q0.796875 0.734375 0.796875 1.875q0 0.90625 -0.375 1.5q-0.375 0.578125 -1.140625 0.890625l0 0.015625q0.671875 0.1875 1.03125 0.8125q0.359375 0.625 0.390625 1.90625q0.015625 1.296875 0.375 1.765625l-2.109375 0q-0.171875 -0.46875 -0.234375 -1.5q-0.109375 -1.40625 -0.484375 -1.8125q-0.375 -0.40625 -1.140625 -0.40625l-2.140625 0l0 3.71875l-2.09375 0l0 -9.515625l5.1875 0zm-0.765625 4.296875q0.65625 0 1.015625 -0.3125q0.375 -0.3125 0.375 -1.046875q0 -0.671875 -0.359375 -0.984375q-0.34375 -0.328125 -1.03125 -0.328125l-2.328125 0l0 2.671875l2.328125 0zm8.140747 -4.296875l2.234375 6.546875l0.03125 0l2.09375 -6.515625l0.015625 -0.03125l2.9375 0l0 9.515625l-1.96875 0l0 -6.734375l-0.015625 0l-2.328125 6.734375l-1.625 0l-2.328125 -6.671875l-0.03125 0l0 6.671875l-1.953125 0l0 -9.515625l2.9375 0zm17.122742 -0.234375q1.625 0 2.765625 0.921875q1.140625 0.921875 1.328125 2.515625l-2.015625 0q-0.140625 -0.75 -0.75 -1.203125q-0.59375 -0.46875 -1.328125 -0.46875q-1.234375 0 -1.921875 0.890625q-0.671875 0.890625 -0.671875 2.375q0 1.40625 0.671875 2.296875q0.671875 0.890625 1.921875 0.890625q0.90625 0 1.453125 -0.5625q0.5625 -0.5625 0.703125 -1.5625l2.03125 0q-0.1875 1.8125 -1.328125 2.859375q-1.125 1.03125 -2.859375 1.03125q-1.375 0 -2.453125 -0.625q-1.0625 -0.640625 -1.65625 -1.78125q-0.578125 -1.140625 -0.578125 -2.546875q0 -2.1875 1.28125 -3.609375q1.296875 -1.421875 3.40625 -1.421875zm7.7070923 0.234375l0 7.765625l4.640625 0l0 1.75l-6.734375 0l0 -9.515625l2.09375 0zm9.512573 -0.234375q2.125 0 3.390625 1.4375q1.28125 1.421875 1.28125 3.59375q0 2.125 -1.28125 3.546875q-1.28125 1.40625 -3.390625 1.40625q-1.375 0 -2.453125 -0.625q-1.0625 -0.640625 -1.65625 -1.78125q-0.578125 -1.140625 -0.578125 -2.546875q0 -2.203125 1.28125 -3.609375q1.296875 -1.421875 3.40625 -1.421875zm-2.59375 5.03125q0 1.40625 0.671875 2.296875q0.671875 0.890625 1.921875 0.890625q1.234375 0 1.90625 -0.875q0.671875 -0.875 0.671875 -2.3125q0 -1.5 -0.6875 -2.375q-0.6875 -0.890625 -1.90625 -0.890625q-1.21875 0 -1.90625 0.890625q-0.671875 0.890625 -0.671875 2.375zm10.742004 -4.796875l0 5.96875q0 1.03125 0.46875 1.53125q0.484375 0.484375 1.5 0.484375q1.09375 0 1.53125 -0.484375q0.4375 -0.484375 0.4375 -1.515625l0 -5.984375l2.09375 0l0 5.984375q0 1.765625 -1.03125 2.765625q-1.03125 1.0 -3.03125 1.0q-2.015625 0 -3.046875 -0.984375q-1.015625 -0.984375 -1.015625 -2.78125l0 -5.984375l2.09375 0zm12.003967 0q1.890625 0 3.0625 1.25q1.1875 1.234375 1.1875 3.453125q0 2.234375 -1.15625 3.53125q-1.140625 1.28125 -3.09375 1.28125l-4.171875 0l0 -9.515625l4.171875 0zm-0.171875 7.765625q1.0 0 1.65625 -0.71875q0.671875 -0.734375 0.671875 -2.15625q0 -1.640625 -0.6875 -2.375q-0.6875 -0.75 -2.0 -0.75l-1.546875 0l0 6.0l1.90625 0z" fill-rule="nonzero"/><g filter="url(#shadowFilter-p.4)"><use xlink:href="#p.4" transform="matrix(1.0 0.0 0.0 1.0 0.0 7.332598348302165)"/></g><defs><filter id="shadowFilter-p.4" filterUnits="userSpaceOnUse"><feGaussianBlur in="SourceAlpha" stdDeviation="5.3333335" result="blur"/><feComponentTransfer in="blur" color-interpolation-filters="sRGB"><feFuncR type="linear" slope="0" intercept="0.0"/><feFuncG type="linear" slope="0" intercept="0.0"/><feFuncB type="linear" slope="0" intercept="0.0"/><feFuncA type="linear" slope="0.0627" intercept="0"/></feComponentTransfer></filter></defs><g id="p.4"><path fill="#ffffff" d="m465.3622 139.1693l0 0c0 -9.419281 7.6358337 -17.055122 17.055115 -17.055122l0 0l0 0c4.523285 0 8.861328 1.796875 12.059784 4.995331c3.1984558 3.1984482 4.995331 7.5364914 4.995331 12.059792l0 1.4803162l0 0c0 9.419281 -7.6358337 17.055115 -17.055115 17.055115l0 0l0 0c-9.419281 0 -17.055115 -7.6358337 -17.055115 -17.055115z" fill-rule="evenodd"/><path stroke="#d2d4db" stroke-width="1.0" stroke-miterlimit="400.0" stroke-linecap="butt" d="m465.3622 139.1693l0 0c0 -9.419281 7.6358337 -17.055122 17.055115 -17.055122l0 0l0 0c4.523285 0 8.861328 1.796875 12.059784 4.995331c3.1984558 3.1984482 4.995331 7.5364914 4.995331 12.059792l0 1.4803162l0 0c0 9.419281 -7.6358337 17.055115 -17.055115 17.055115l0 0l0 0c-9.419281 0 -17.055115 -7.6358337 -17.055115 -17.055115z" fill-rule="evenodd"/></g><path fill="#5d42e8" d="m490.23456 141.70714l-2.488922 -1.7974701l2.488922 -1.7974701c0 0 0 3.5949402 0 3.5949402zm-7.190613 5.724304l0 -4.1266327l3.5953064 -2.595871l3.0951843 2.2353363c0 0 -6.6904907 4.4871674 -6.6904907 4.4871674zm-0.6340332 -5.266464l-3.1229553 -2.25531l3.1229553 -2.25531l3.1229553 2.25531c0 0 -3.1229553 2.25531 -3.1229553 2.25531zm-0.6340332 5.266464l-6.6904907 -4.4871674l3.0951843 -2.2353363l3.5953064 2.595871c0 0 0 4.1266327 0 4.1266327zm-7.190613 -9.319244l2.488922 1.7974701l-2.488922 1.7974701c0 0 0 -3.5949402 0 -3.5949402zm7.190613 -5.724304l0 4.1266327l-3.5953064 2.595871l-3.0951843 -2.2353363c0 0 6.6904907 -4.4871674 6.6904907 -4.4871674zm1.2680664 0l6.6904907 4.4871674l-3.0951843 2.2353363l-3.5953064 -2.595871c0 0 0 -4.1266327 0 -4.1266327zm8.398041 4.2178497c-0.011779785 -0.029525757 -0.020202637 -0.059066772 -0.03704834 -0.086868286c-0.0067443848 -0.013031006 -0.008422852 -0.026931763 -0.015991211 -0.039093018c-0.042938232 -0.063430786 -0.09768677 -0.1103363 -0.15493774 -0.15203857c-0.0075683594 -0.006088257 -0.010925293 -0.01651001 -0.019348145 -0.021713257l-8.458679 -5.67305c-0.021057129 -0.013900757 -0.043792725 -0.019989014 -0.06567383 -0.031280518c-0.020233154 -0.010421753 -0.0395813 -0.020843506 -0.06149292 -0.029525757c-0.069885254 -0.02607727 -0.14227295 -0.044311523 -0.21554565 -0.044311523c-8.239746E-4 0 -0.0025024414 -8.69751E-4 -0.0033569336 -8.69751E-4c-8.544922E-4 0 -0.002532959 8.69751E-4 -0.0033569336 8.69751E-4c-0.073272705 0 -0.14569092 0.018234253 -0.21557617 0.044311523c-0.021881104 0.008682251 -0.041229248 0.019104004 -0.061462402 0.029525757c-0.021881104 0.011291504 -0.0446167 0.01737976 -0.06567383 0.031280518l-8.450256 5.6669617c0 0 0 8.69751E-4 -8.239746E-4 8.69751E-4l-0.007598877 0.005218506c-0.0075683594 0.005203247 -0.010925293 0.014770508 -0.01852417 0.020843506c-0.057250977 0.04170227 -0.11282349 0.08947754 -0.15576172 0.15290833c-0.0075683594 0.012161255 -0.009246826 0.026062012 -0.015991211 0.039093018c-0.016845703 0.027801514 -0.025268555 0.05734253 -0.03704834 0.086868286c-0.026947021 0.06517029 -0.043792725 0.13032532 -0.048828125 0.1980896c-0.0017089844 0.018234253 -0.012634277 0.03300476 -0.012634277 0.051254272l0 6.1091614c0 0.018249512 0.010925293 0.03302002 0.012634277 0.051254272c0.0050354004 0.06776428 0.021881104 0.13291931 0.048828125 0.1980896c0.011779785 0.029525757 0.020202637 0.059066772 0.03704834 0.086868286c0.0067443848 0.013031006 0.008422852 0.026931763 0.015991211 0.039093018c0.042938232 0.063430786 0.09851074 0.111206055 0.15661621 0.15377808c0.0067443848 0.005203247 0.010101318 0.014770508 0.017669678 0.019973755l0.007598877 0.005218506c8.239746E-4 0 0.0016784668 8.69751E-4 0.0016784668 0.001739502l8.449402 5.666092c0.021057129 0.013900757 0.044647217 0.019989014 0.06567383 0.031280518c0.020233154 0.010421753 0.0395813 0.020843506 0.061462402 0.028671265c0.070739746 0.027786255 0.14398193 0.046035767 0.2189331 0.046035767c0.07495117 0 0.14819336 -0.018249512 0.21890259 -0.046035767c0.021911621 -0.007827759 0.041259766 -0.018249512 0.06149292 -0.028671265c0.021026611 -0.011291504 0.0446167 -0.01737976 0.06567383 -0.031280518l8.458679 -5.67305c0.03366089 -0.022583008 0.05050659 -0.059936523 0.07913208 -0.08773804c0.030303955 -0.030410767 0.069885254 -0.047790527 0.09515381 -0.086013794c0.0075683594 -0.012161255 0.009246826 -0.026062012 0.015991211 -0.039093018c0.016845703 -0.027801514 0.025268555 -0.05734253 0.03704834 -0.086868286c0.026947021 -0.06517029 0.043792725 -0.13032532 0.048828125 -0.1980896c0.0017089844 -0.018234253 0.012634277 -0.03300476 0.012634277 -0.051254272l0 -6.1091614c0 -0.018249512 -0.010925293 -0.03302002 -0.012634277 -0.051254272c-0.0050354004 -0.06776428 -0.021881104 -0.13291931 -0.048828125 -0.1980896z" fill-rule="evenodd"/><path fill="#000000" fill-opacity="0.0" d="m388.98334 183.80615l186.86615 0l0 22.267715l-186.86615 0z" fill-rule="evenodd"/><path fill="#5d42e8" d="m448.5111 189.09053l2.234375 6.546875l0.03125 0l2.09375 -6.515625l0.015625 -0.03125l2.9375 0l0 9.515625l-1.96875 0l0 -6.734375l-0.015625 0l-2.328125 6.734375l-1.625 0l-2.328125 -6.671875l-0.03125 0l0 6.671875l-1.953125 0l0 -9.515625l2.9375 0zm13.419769 -0.234375q2.125 0 3.390625 1.4375q1.28125 1.421875 1.28125 3.59375q0 2.125 -1.28125 3.546875q-1.28125 1.40625 -3.390625 1.40625q-1.375 0 -2.453125 -0.625q-1.0625 -0.640625 -1.65625 -1.78125q-0.578125 -1.140625 -0.578125 -2.546875q0 -2.203125 1.28125 -3.609375q1.296875 -1.421875 3.40625 -1.421875zm-2.59375 5.03125q0 1.40625 0.671875 2.296875q0.671875 0.890625 1.921875 0.890625q1.234375 0 1.90625 -0.875q0.671875 -0.875 0.671875 -2.3125q0 -1.5 -0.6875 -2.375q-0.6875 -0.890625 -1.90625 -0.890625q-1.21875 0 -1.90625 0.890625q-0.671875 0.890625 -0.671875 2.375zm12.960785 -5.03125q1.625 0 2.765625 0.921875q1.140625 0.921875 1.328125 2.515625l-2.015625 0q-0.140625 -0.75 -0.75 -1.203125q-0.59375 -0.46875 -1.328125 -0.46875q-1.234375 0 -1.921875 0.890625q-0.671875 0.890625 -0.671875 2.375q0 1.40625 0.671875 2.296875q0.671875 0.890625 1.921875 0.890625q0.90625 0 1.453125 -0.5625q0.5625 -0.5625 0.703125 -1.5625l2.03125 0q-0.1875 1.8125 -1.328125 2.859375q-1.125 1.03125 -2.859375 1.03125q-1.375 0 -2.453125 -0.625q-1.0625 -0.640625 -1.65625 -1.78125q-0.578125 -1.140625 -0.578125 -2.546875q0 -2.1875 1.28125 -3.609375q1.296875 -1.421875 3.40625 -1.421875zm7.7070923 0.234375l0 3.9375l3.71875 -3.9375l2.609375 0l-3.71875 3.75l4.078125 5.765625l-2.625 0l-2.875 -4.28125l-1.1875 1.21875l0 3.0625l-2.09375 0l0 -9.515625l2.09375 0zm15.40625 0q1.890625 0 3.0625 1.25q1.1875 1.234375 1.1875 3.453125q0 2.234375 -1.15625 3.53125q-1.140625 1.28125 -3.09375 1.28125l-4.171875 0l0 -9.515625l4.171875 0zm-0.171875 7.765625q1.0 0 1.65625 -0.71875q0.671875 -0.734375 0.671875 -2.15625q0 -1.640625 -0.6875 -2.375q-0.6875 -0.75 -2.0 -0.75l-1.546875 0l0 6.0l1.90625 0zm10.294312 -7.765625l3.5625 9.515625l-2.171875 0l-0.71875 -2.125l-3.5625 0l-0.734375 2.125l-2.125 0l3.609375 -9.515625l2.140625 0zm-1.09375 2.34375l-1.25 3.5l2.46875 0l-1.1875 -3.5l-0.03125 0zm11.338867 -2.34375l0 1.765625l-2.859375 0l0 7.75l-2.0780945 0l0 -7.75l-2.859375 0l0 -1.765625l7.7968445 0zm4.6309814 0l3.5625 9.515625l-2.171875 0l-0.71875 -2.125l-3.5625 0l-0.734375 2.125l-2.125 0l3.609375 -9.515625l2.140625 0zm-1.09375 2.34375l-1.25 3.5l2.46875 0l-1.1875 -3.5l-0.03125 0z" fill-rule="nonzero"/><g filter="url(#shadowFilter-p.5)"><use xlink:href="#p.5" transform="matrix(1.0 0.0 0.0 1.0 0.0 7.332598348302165)"/></g><defs><filter id="shadowFilter-p.5" filterUnits="userSpaceOnUse"><feGaussianBlur in="SourceAlpha" stdDeviation="5.3333335" result="blur"/><feComponentTransfer in="blur" color-interpolation-filters="sRGB"><feFuncR type="linear" slope="0" intercept="0.0"/><feFuncG type="linear" slope="0" intercept="0.0"/><feFuncB type="linear" slope="0" intercept="0.0"/><feFuncA type="linear" slope="0.0627" intercept="0"/></feComponentTransfer></filter></defs><g id="p.5"><path fill="#ffffff" d="m666.5652 59.0527l0 0c0 -1.6374626 1.3273926 -2.9648857 2.9649048 -2.9648857l211.83398 0c0.7863159 0 1.5404663 0.3123703 2.0964966 0.86839294c0.5560303 0.55602646 0.8684082 1.3101578 0.8684082 2.0964928l0 34.76314c0 1.6374588 -1.3274536 2.9648895 -2.9649048 2.9648895l-211.83398 0c-1.6375122 0 -2.9649048 -1.3274307 -2.9649048 -2.9648895z" fill-rule="evenodd"/><path stroke="#efefef" stroke-width="2.0" stroke-miterlimit="400.0" stroke-linecap="butt" stroke-opacity="0.4784" d="m666.5652 59.0527l0 0c0 -1.6374626 1.3273926 -2.9648857 2.9649048 -2.9648857l211.83398 0c0.7863159 0 1.5404663 0.3123703 2.0964966 0.86839294c0.5560303 0.55602646 0.8684082 1.3101578 0.8684082 2.0964928l0 34.76314c0 1.6374588 -1.3274536 2.9648895 -2.9649048 2.9648895l-211.83398 0c-1.6375122 0 -2.9649048 -1.3274307 -2.9649048 -2.9648895z" fill-rule="evenodd"/></g><g filter="url(#shadowFilter-p.6)"><use xlink:href="#p.6" transform="matrix(1.0 0.0 0.0 1.0 0.0 7.332598348302165)"/></g><defs><filter id="shadowFilter-p.6" filterUnits="userSpaceOnUse"><feGaussianBlur in="SourceAlpha" stdDeviation="5.3333335" result="blur"/><feComponentTransfer in="blur" color-interpolation-filters="sRGB"><feFuncR type="linear" slope="0" intercept="0.0"/><feFuncG type="linear" slope="0" intercept="0.0"/><feFuncB type="linear" slope="0" intercept="0.0"/><feFuncA type="linear" slope="0.0627" intercept="0"/></feComponentTransfer></filter></defs><g id="p.6"><path fill="#ffffff" d="m75.67279 59.015953l0 0c0 -1.6374588 1.3274307 -2.9648857 2.9648895 -2.9648857l211.834 0c0.78634644 0 1.5404663 0.31237411 2.0964966 0.86839676c0.5560303 0.55602264 0.8684082 1.310154 0.8684082 2.096489l0 34.763145c0 1.6374588 -1.3274231 2.964882 -2.9649048 2.964882l-211.834 0c-1.6374588 0 -2.9648895 -1.3274231 -2.9648895 -2.964882z" fill-rule="evenodd"/><path stroke="#efefef" stroke-width="2.0" stroke-miterlimit="400.0" stroke-linecap="butt" stroke-opacity="0.4784" d="m75.67279 59.015953l0 0c0 -1.6374588 1.3274307 -2.9648857 2.9648895 -2.9648857l211.834 0c0.78634644 0 1.5404663 0.31237411 2.0964966 0.86839676c0.5560303 0.55602264 0.8684082 1.310154 0.8684082 2.096489l0 34.763145c0 1.6374588 -1.3274231 2.964882 -2.9649048 2.964882l-211.834 0c-1.6374588 0 -2.9648895 -1.3274231 -2.9648895 -2.964882z" fill-rule="evenodd"/></g><path fill="#000000" fill-opacity="0.0" d="m93.774994 59.82824l186.86615 0l0 33.196854l-186.86615 0z" fill-rule="evenodd"/><path fill="#5d42e8" d="m141.31088 70.21104l1.5 6.46875l0.015625 0l1.65625 -6.46875l1.96875 0l1.625 6.546875l0.015625 0l1.5625 -6.546875l2.0625 0l-2.5625 9.515625l-2.078125 0l-1.609375 -6.46875l-0.03125 0l-1.59375 6.46875l-2.109375 0l-2.53125 -9.515625l2.109375 0zm16.548477 0q1.140625 0 1.9375 0.75q0.796875 0.734375 0.796875 1.875q0 0.90625 -0.375 1.5q-0.375 0.578125 -1.140625 0.890625l0 0.015625q0.671875 0.1875 1.03125 0.8125q0.359375 0.625 0.390625 1.90625q0.015625 1.296875 0.375 1.765625l-2.109375 0q-0.171875 -0.46875 -0.234375 -1.5q-0.109375 -1.40625 -0.484375 -1.8125q-0.375 -0.40625 -1.140625 -0.40625l-2.140625 0l0 3.71875l-2.09375 0l0 -9.515625l5.1875 0zm-0.765625 4.296875q0.65625 0 1.015625 -0.3125q0.375 -0.3125 0.375 -1.046875q0 -0.671875 -0.359375 -0.984375q-0.34375 -0.328125 -1.03125 -0.328125l-2.328125 0l0 2.671875l2.328125 0zm7.2970276 -4.296875l0 9.515625l-2.09375 0l0 -9.515625l2.09375 0zm8.883881 0l0 1.765625l-2.859375 0l0 7.75l-2.078125 0l0 -7.75l-2.859375 0l0 -1.765625l7.796875 0zm8.203857 0l0 1.765625l-5.015625 0l0 2.03125l4.609375 0l0 1.625l-4.609375 0l0 2.34375l5.125 0l0 1.75l-7.21875 0l0 -9.515625l7.109375 0zm9.5889435 0q1.484375 0 2.34375 0.84375q0.875 0.828125 0.875 2.203125q0 1.375 -0.875 2.21875q-0.859375 0.84375 -2.34375 0.84375l-2.265625 0l0 3.40625l-2.09375 0l0 -9.515625l4.359375 0zm-0.578125 4.484375q0.890625 0 1.328125 -0.34375q0.4375 -0.34375 0.4375 -1.09375q0 -0.71875 -0.421875 -1.0625q-0.421875 -0.359375 -1.34375 -0.359375l-1.6875 0l0 2.859375l1.6875 0zm9.37413 -4.71875q2.125 0 3.390625 1.4375q1.28125 1.421875 1.28125 3.59375q0 2.125 -1.28125 3.546875q-1.28125 1.40625 -3.390625 1.40625q-1.375 0 -2.453125 -0.625q-1.0625 -0.640625 -1.65625 -1.78125q-0.578125 -1.140625 -0.578125 -2.546875q0 -2.203125 1.28125 -3.609375q1.296875 -1.421875 3.40625 -1.421875zm-2.59375 5.03125q0 1.40625 0.671875 2.296875q0.671875 0.890625 1.921875 0.890625q1.234375 0 1.90625 -0.875q0.671875 -0.875 0.671875 -2.3125q0 -1.5 -0.6875 -2.375q-0.6875 -0.890625 -1.90625 -0.890625q-1.21875 0 -1.90625 0.890625q-0.671875 0.890625 -0.671875 2.375zm10.788925 -4.796875l0 7.765625l4.640625 0l0 1.75l-6.734375 0l0 -9.515625l2.09375 0zm7.9005585 0l0 9.515625l-2.09375 0l0 -9.515625l2.09375 0zm6.1026154 -0.234375q1.625 0 2.765625 0.921875q1.140625 0.921875 1.328125 2.515625l-2.015625 0q-0.140625 -0.75 -0.75 -1.203125q-0.59375 -0.46875 -1.328125 -0.46875q-1.2343597 0 -1.9218597 0.890625q-0.671875 0.890625 -0.671875 2.375q0 1.40625 0.671875 2.296875q0.671875 0.890625 1.9218597 0.890625q0.90625 0 1.453125 -0.5625q0.5625 -0.5625 0.703125 -1.5625l2.03125 0q-0.1875 1.8125 -1.328125 2.859375q-1.125 1.03125 -2.859375 1.03125q-1.3749847 0 -2.4531097 -0.625q-1.0625 -0.640625 -1.65625 -1.78125q-0.578125 -1.140625 -0.578125 -2.546875q0 -2.1875 1.28125 -3.609375q1.296875 -1.421875 3.4062347 -1.421875zm6.5286865 0.234375l2.234375 3.75l2.203125 -3.75l2.328125 0l-3.515625 5.859375l0 3.65625l-2.09375 0l0 -3.703125l-3.5 -5.8125l2.34375 0z" fill-rule="nonzero"/><g filter="url(#shadowFilter-p.7)"><use xlink:href="#p.7" transform="matrix(1.0 0.0 0.0 1.0 0.0 7.332598348302165)"/></g><defs><filter id="shadowFilter-p.7" filterUnits="userSpaceOnUse"><feGaussianBlur in="SourceAlpha" stdDeviation="5.3333335" result="blur"/><feComponentTransfer in="blur" color-interpolation-filters="sRGB"><feFuncR type="linear" slope="0" intercept="0.0"/><feFuncG type="linear" slope="0" intercept="0.0"/><feFuncB type="linear" slope="0" intercept="0.0"/><feFuncA type="linear" slope="0.0627" intercept="0"/></feComponentTransfer></filter></defs><g id="p.7"><defs><linearGradient id="p.8" gradientUnits="userSpaceOnUse" gradientTransform="matrix(11.053332005230613 0.0 0.0 11.053332005230613 0.0 0.0)" spreadMethod="pad" x1="31.815384748442707" y1="4.596575138026752" x2="34.899728329718855" y2="15.21085670064304"><stop offset="0.0" stop-color="#5d42e8"/><stop offset="1.0" stop-color="#3a2aa6"/></linearGradient></defs><path fill="url(#p.8)" d="m367.92917 50.503742l0 0c0 -2.4422493 1.9798584 -4.422085 4.4220886 -4.422085l220.1322 0c1.1728516 0 2.2976074 0.4658966 3.126892 1.2951965c0.82928467 0.82930374 1.295227 1.9540787 1.295227 3.1268883l0 51.848743c0 2.4422455 -1.9798584 4.422081 -4.422119 4.422081l-220.1322 0c-2.4422302 0 -4.4220886 -1.9798355 -4.4220886 -4.422081z" fill-rule="evenodd"/></g><path fill="#000000" fill-opacity="0.0" d="m367.91602 55.818897l228.97638 0l0 33.19685l-228.97638 0z" fill-rule="evenodd"/><path fill="#ffffff" d="m447.1673 61.10327l0 1.765625l-2.859375 0l0 7.75l-2.078125 0l0 -7.75l-2.859375 0l0 -1.765625l7.796875 0zm8.203857 0l0 1.765625l-5.015625 0l0 2.03125l4.609375 0l0 1.625l-4.609375 0l0 2.34375l5.125 0l0 1.75l-7.21875 0l0 -9.515625l7.109375 0zm4.807831 -0.234375q1.71875 0 2.75 0.8125q1.046875 0.796875 1.046875 2.265625l-2.015625 0q-0.046875 -0.71875 -0.5 -1.078125q-0.4375 -0.359375 -1.375 -0.359375q-0.640625 0 -1.046875 0.28125q-0.40625 0.265625 -0.40625 0.796875q0 0.359375 0.171875 0.53125q0.171875 0.171875 0.6875 0.375q0.53125 0.1875 2.296875 0.59375q1.1875 0.296875 1.84375 0.984375q0.671875 0.671875 0.671875 1.71875q0 1.390625 -1.046875 2.234375q-1.03125 0.828125 -2.90625 0.828125q-1.796875 0 -2.9375 -0.890625q-1.125 -0.890625 -1.125 -2.453125l0 -0.046875l2.03125 0q0 0.890625 0.578125 1.328125q0.578125 0.421875 1.515625 0.421875q0.859375 0 1.359375 -0.296875q0.5 -0.3125 0.5 -0.875q0 -0.46875 -0.390625 -0.765625q-0.375 -0.296875 -1.234375 -0.515625q-1.09375 -0.234375 -1.984375 -0.515625q-0.890625 -0.28125 -1.484375 -0.890625q-0.578125 -0.625 -0.578125 -1.59375q0 -1.28125 1.03125 -2.078125q1.03125 -0.8125 2.546875 -0.8125zm12.095581 0.234375l0 1.765625l-2.859375 0l0 7.75l-2.078125 0l0 -7.75l-2.859375 0l0 -1.765625l7.796875 0zm9.15683 0q1.484375 0 2.34375 0.84375q0.875 0.828125 0.875 2.203125q0 1.375 -0.875 2.21875q-0.859375 0.84375 -2.34375 0.84375l-2.265625 0l0 3.40625l-2.09375 0l0 -9.515625l4.359375 0zm-0.578125 4.484375q0.890625 0 1.328125 -0.34375q0.4375 -0.34375 0.4375 -1.09375q0 -0.71875 -0.421875 -1.0625q-0.421875 -0.359375 -1.34375 -0.359375l-1.6875 0l0 2.859375l1.6875 0zm9.3741455 -4.71875q2.125 0 3.390625 1.4375q1.28125 1.421875 1.28125 3.59375q0 2.125 -1.28125 3.546875q-1.28125 1.40625 -3.390625 1.40625q-1.375 0 -2.453125 -0.625q-1.0625 -0.640625 -1.65625 -1.78125q-0.578125 -1.140625 -0.578125 -2.546875q0 -2.203125 1.28125 -3.609375q1.296875 -1.421875 3.40625 -1.421875zm-2.59375 5.03125q0 1.40625 0.671875 2.296875q0.671875 0.890625 1.921875 0.890625q1.234375 0 1.90625 -0.875q0.671875 -0.875 0.671875 -2.3125q0 -1.5 -0.6875 -2.375q-0.6875 -0.890625 -1.90625 -0.890625q-1.21875 0 -1.90625 0.890625q-0.671875 0.890625 -0.671875 2.375zm10.78894 -4.796875l0 7.765625l4.640625 0l0 1.75l-6.734375 0l0 -9.515625l2.09375 0zm7.900543 0l0 9.515625l-2.09375 0l0 -9.515625l2.09375 0zm6.1026306 -0.234375q1.625 0 2.765625 0.921875q1.140625 0.921875 1.328125 2.515625l-2.015625 0q-0.140625 -0.75 -0.75 -1.203125q-0.59375 -0.46875 -1.328125 -0.46875q-1.234375 0 -1.921875 0.890625q-0.671875 0.890625 -0.671875 2.375q0 1.40625 0.671875 2.296875q0.671875 0.890625 1.921875 0.890625q0.90625 0 1.453125 -0.5625q0.5625 -0.5625 0.703125 -1.5625l2.03125 0q-0.1875 1.8125 -1.328125 2.859375q-1.125 1.03125 -2.859375 1.03125q-1.375 0 -2.453125 -0.625q-1.0625 -0.640625 -1.65625 -1.78125q-0.578125 -1.140625 -0.578125 -2.546875q0 -2.1875 1.28125 -3.609375q1.296875 -1.421875 3.40625 -1.421875zm6.5286865 0.234375l2.234375 3.75l2.203125 -3.75l2.328125 0l-3.515625 5.859375l0 3.65625l-2.09375 0l0 -3.703125l-3.5 -5.8125l2.34375 0z" fill-rule="nonzero"/><path fill="#ffffff" d="m426.339 80.10327l2.125 6.6875l0.03125 0l2.140625 -6.6875l2.15625 0l-3.15625 9.515625l-2.359375 0l-3.09375 -9.515625l2.15625 0zm9.363892 0l0 9.515625l-2.09375 0l0 -9.515625l2.09375 0zm6.5713806 0l3.5625 9.515625l-2.171875 0l-0.71875 -2.125l-3.5625 0l-0.734375 2.125l-2.125 0l3.609375 -9.515625l2.140625 0zm-1.09375 2.34375l-1.25 3.5l2.46875 0l-1.1875 -3.5l-0.03125 0zm12.474182 -2.578125q1.71875 0 2.75 0.8125q1.046875 0.796875 1.046875 2.265625l-2.015625 0q-0.046875 -0.71875 -0.5 -1.078125q-0.4375 -0.359375 -1.375 -0.359375q-0.640625 0 -1.046875 0.28125q-0.40625 0.265625 -0.40625 0.796875q0 0.359375 0.171875 0.53125q0.171875 0.171875 0.6875 0.375q0.53125 0.1875 2.296875 0.59375q1.1875 0.296875 1.84375 0.984375q0.671875 0.671875 0.671875 1.71875q0 1.390625 -1.046875 2.234375q-1.03125 0.828125 -2.90625 0.828125q-1.796875 0 -2.9375 -0.890625q-1.125 -0.890625 -1.125 -2.453125l0 -0.046875l2.03125 0q0 0.890625 0.578125 1.328125q0.578125 0.421875 1.515625 0.421875q0.859375 0 1.359375 -0.296875q0.5 -0.3125 0.5 -0.875q0 -0.46875 -0.390625 -0.765625q-0.375 -0.296875 -1.234375 -0.515625q-1.09375 -0.234375 -1.984375 -0.515625q-0.890625 -0.28125 -1.484375 -0.890625q-0.578125 -0.625 -0.578125 -1.59375q0 -1.28125 1.03125 -2.078125q1.03125 -0.8125 2.546875 -0.8125zm12.477081 0.234375l0 1.765625l-5.015625 0l0 2.03125l4.609375 0l0 1.625l-4.609375 0l0 2.34375l5.125 0l0 1.75l-7.21875 0l0 -9.515625l7.109375 0zm3.6047058 0l3.96875 6.390625l0.03125 0l0 -6.390625l1.953125 0l0 9.515625l-2.09375 0l-3.953125 -6.375l-0.03125 0l0 6.375l-1.953125 0l0 -9.515625l2.078125 0zm14.847717 0l0 1.765625l-2.859375 0l0 7.75l-2.078125 0l0 -7.75l-2.859375 0l0 -1.765625l7.796875 0zm3.1882324 0l0 9.515625l-2.09375 0l0 -9.515625l2.09375 0zm3.9151306 0l3.96875 6.390625l0.03125 0l0 -6.390625l1.953125 0l0 9.515625l-2.09375 0l-3.953125 -6.375l-0.03125 0l0 6.375l-1.953125 0l0 -9.515625l2.078125 0zm14.910217 0l0 1.765625l-5.015625 0l0 2.03125l4.609375 0l0 1.625l-4.609375 0l0 2.34375l5.125 0l0 1.75l-7.21875 0l0 -9.515625l7.109375 0zm3.6203308 0l0 7.765625l4.6405945 0l0 1.75l-6.7343445 0l0 -9.515625l2.09375 0zm13.775421 -0.234375q1.625 0 2.765625 0.921875q1.140625 0.921875 1.328125 2.515625l-2.015625 0q-0.140625 -0.75 -0.75 -1.203125q-0.59375 -0.46875 -1.328125 -0.46875q-1.234375 0 -1.921875 0.890625q-0.671875 0.890625 -0.671875 2.375q0 1.40625 0.671875 2.296875q0.671875 0.890625 1.921875 0.890625q0.90625 0 1.453125 -0.5625q0.5625 -0.5625 0.703125 -1.5625l2.03125 0q-0.1875 1.8125 -1.328125 2.859375q-1.125 1.03125 -2.859375 1.03125q-1.375 0 -2.453125 -0.625q-1.0625 -0.640625 -1.65625 -1.78125q-0.578125 -1.140625 -0.578125 -2.546875q0 -2.1875 1.28125 -3.609375q1.296875 -1.421875 3.40625 -1.421875zm7.7070312 0.234375l0 7.765625l4.640625 0l0 1.75l-6.734375 0l0 -9.515625l2.09375 0zm7.9005737 0l0 9.515625l-2.09375 0l0 -9.515625l2.09375 0z" fill-rule="nonzero"/><path fill="#000000" fill-opacity="0.0" d="m297.14435 76.43292l72.37793 0" fill-rule="evenodd"/><path stroke="#5b44df" stroke-width="1.0" stroke-miterlimit="400.0" stroke-linecap="butt" d="m297.14435 76.43292l66.37793 0" fill-rule="evenodd"/><path fill="#5b44df" stroke="#5b44df" stroke-width="1.0" stroke-linecap="butt" d="m363.52228 78.084656l4.538086 -1.6517334l-4.538086 -1.6517334z" fill-rule="evenodd"/><path fill="#000000" fill-opacity="0.0" d="m681.00366 59.826965l186.86615 0l0 33.196854l-186.86615 0z" fill-rule="evenodd"/><path fill="#5d42e8" d="m727.5477 70.20976l2.234375 6.546875l0.03125 0l2.09375 -6.515625l0.015625 -0.03125l2.9375 0l0 9.515625l-1.96875 0l0 -6.734375l-0.015625 0l-2.328125 6.734375l-1.625 0l-2.328125 -6.671875l-0.03125 0l0 6.671875l-1.953125 0l0 -9.515625l2.9375 0zm16.26355 0l0 1.765625l-5.015625 0l0 2.03125l4.609375 0l0 1.625l-4.609375 0l0 2.34375l5.125 0l0 1.75l-7.21875 0l0 -9.515625l7.109375 0zm6.7140503 0q1.140625 0 1.9375 0.75q0.796875 0.734375 0.796875 1.875q0 0.90625 -0.375 1.5q-0.375 0.578125 -1.140625 0.890625l0 0.015625q0.671875 0.1875 1.03125 0.8125q0.359375 0.625 0.390625 1.90625q0.015625 1.296875 0.375 1.765625l-2.109375 0q-0.171875 -0.46875 -0.234375 -1.5q-0.109375 -1.40625 -0.484375 -1.8125q-0.375 -0.40625 -1.140625 -0.40625l-2.140625 0l0 3.71875l-2.09375 0l0 -9.515625l5.1875 0zm-0.765625 4.296875q0.65625 0 1.015625 -0.3125q0.375 -0.3125 0.375 -1.046875q0 -0.671875 -0.359375 -0.984375q-0.34375 -0.328125 -1.03125 -0.328125l-2.328125 0l0 2.671875l2.328125 0zm9.468933 -4.53125q1.546875 0 2.6875 0.90625q1.140625 0.890625 1.328125 2.453125l-2.0 0q-0.203125 -0.796875 -0.734375 -1.1875q-0.53125 -0.40625 -1.28125 -0.40625q-1.25 0 -1.921875 0.90625q-0.671875 0.890625 -0.671875 2.359375q0 1.390625 0.671875 2.296875q0.671875 0.890625 1.921875 0.890625q1.0 0 1.578125 -0.515625q0.59375 -0.515625 0.6875 -1.53125l-2.109375 0l0 -1.5625l4.0 0l0 5.140625l-1.328125 0l-0.21875 -1.078125q-0.515625 0.65625 -1.171875 0.984375q-0.640625 0.328125 -1.4375 0.328125q-1.375 0 -2.453125 -0.625q-1.0625 -0.640625 -1.65625 -1.78125q-0.578125 -1.140625 -0.578125 -2.546875q0 -2.203125 1.28125 -3.609375q1.296875 -1.421875 3.40625 -1.421875zm12.95697 0.234375l0 1.765625l-5.015625 0l0 2.03125l4.609375 0l0 1.625l-4.609375 0l0 2.34375l5.125 0l0 1.75l-7.21875 0l0 -9.515625l7.109375 0zm12.276428 0l0 1.765625l-2.859375 0l0 7.75l-2.078125 0l0 -7.75l-2.859375 0l0 -1.765625l7.796875 0zm4.9174194 -0.234375q2.125 0 3.390625 1.4375q1.28125 1.421875 1.28125 3.59375q0 2.125 -1.28125 3.546875q-1.28125 1.40625 -3.390625 1.40625q-1.375 0 -2.453125 -0.625q-1.0625 -0.640625 -1.65625 -1.78125q-0.578125 -1.140625 -0.578125 -2.546875q0 -2.203125 1.28125 -3.609375q1.296875 -1.421875 3.40625 -1.421875zm-2.59375 5.03125q0 1.40625 0.671875 2.296875q0.671875 0.890625 1.921875 0.890625q1.234375 0 1.90625 -0.875q0.671875 -0.875 0.671875 -2.3125q0 -1.5 -0.6875 -2.375q-0.6875 -0.890625 -1.90625 -0.890625q-1.21875 0 -1.90625 0.890625q-0.671875 0.890625 -0.671875 2.375zm13.523132 -4.796875l2.125 6.6875l0.03125 0l2.140625 -6.6875l2.15625 0l-3.15625 9.515625l-2.359375 0l-3.09375 -9.515625l2.15625 0zm11.535828 -0.234375q1.625 0 2.765625 0.921875q1.140625 0.921875 1.328125 2.515625l-2.015625 0q-0.140625 -0.75 -0.75 -1.203125q-0.59375 -0.46875 -1.328125 -0.46875q-1.234375 0 -1.921875 0.890625q-0.671875 0.890625 -0.671875 2.375q0 1.40625 0.671875 2.296875q0.671875 0.890625 1.921875 0.890625q0.90625 0 1.453125 -0.5625q0.5625 -0.5625 0.703125 -1.5625l2.03125 0q-0.1875 1.8125 -1.328125 2.859375q-1.125 1.03125 -2.859375 1.03125q-1.375 0 -2.453125 -0.625q-1.0625 -0.640625 -1.65625 -1.78125q-0.578125 -1.140625 -0.578125 -2.546875q0 -2.1875 1.28125 -3.609375q1.296875 -1.421875 3.40625 -1.421875zm8.894531 0q1.71875 0 2.75 0.8125q1.046875 0.796875 1.046875 2.265625l-2.015625 0q-0.046875 -0.71875 -0.5 -1.078125q-0.4375 -0.359375 -1.375 -0.359375q-0.640625 0 -1.046875 0.28125q-0.40625 0.265625 -0.40625 0.796875q0 0.359375 0.171875 0.53125q0.171875 0.171875 0.6875 0.375q0.53125 0.1875 2.296875 0.59375q1.1875 0.296875 1.84375 0.984375q0.671875 0.671875 0.671875 1.71875q0 1.390625 -1.046875 2.234375q-1.03125 0.828125 -2.90625 0.828125q-1.796875 0 -2.9375 -0.890625q-1.125 -0.890625 -1.125 -2.453125l0 -0.046875l2.03125 0q0 0.890625 0.578125 1.328125q0.578125 0.421875 1.515625 0.421875q0.859375 0 1.359375 -0.296875q0.5 -0.3125 0.5 -0.875q0 -0.46875 -0.390625 -0.765625q-0.375 -0.296875 -1.234375 -0.515625q-1.09375 -0.234375 -1.984375 -0.515625q-0.890625 -0.28125 -1.484375 -0.890625q-0.578125 -0.625 -0.578125 -1.59375q0 -1.28125 1.03125 -2.078125q1.03125 -0.8125 2.546875 -0.8125z" fill-rule="nonzero"/><path fill="#000000" fill-opacity="0.0" d="m593.9472 76.42865l72.37793 0" fill-rule="evenodd"/><path stroke="#5b44df" stroke-width="1.0" stroke-miterlimit="400.0" stroke-linecap="butt" d="m593.9472 76.42865l66.37799 0" fill-rule="evenodd"/><path fill="#5b44df" stroke="#5b44df" stroke-width="1.0" stroke-linecap="butt" d="m660.3252 78.080376l4.538086 -1.6517258l-4.538086 -1.6517334z" fill-rule="evenodd"/><g filter="url(#shadowFilter-p.9)"><use xlink:href="#p.9" transform="matrix(1.0 0.0 0.0 1.0 0.0 7.332598348302165)"/></g><defs><filter id="shadowFilter-p.9" filterUnits="userSpaceOnUse"><feGaussianBlur in="SourceAlpha" stdDeviation="5.3333335" result="blur"/><feComponentTransfer in="blur" color-interpolation-filters="sRGB"><feFuncR type="linear" slope="0" intercept="0.0"/><feFuncG type="linear" slope="0" intercept="0.0"/><feFuncB type="linear" slope="0" intercept="0.0"/><feFuncA type="linear" slope="0.0627" intercept="0"/></feComponentTransfer></filter></defs><g id="p.9"><path fill="#ffffff" d="m606.6755 75.684456l0 0c0 -9.419281 7.635803 -17.055115 17.055115 -17.055115l0 0l0 0c4.5233154 0 8.861328 1.7968712 12.059814 4.995327c3.1984253 3.198452 4.9953003 7.5364876 4.9953003 12.059788l0 1.4803162l0 0c0 9.419281 -7.6358643 17.055122 -17.055115 17.055122l0 0l0 0c-9.419312 0 -17.055115 -7.6358414 -17.055115 -17.055122z" fill-rule="evenodd"/><path stroke="#d2d4db" stroke-width="1.0" stroke-miterlimit="400.0" stroke-linecap="butt" d="m606.6755 75.684456l0 0c0 -9.419281 7.635803 -17.055115 17.055115 -17.055115l0 0l0 0c4.5233154 0 8.861328 1.7968712 12.059814 4.995327c3.1984253 3.198452 4.9953003 7.5364876 4.9953003 12.059788l0 1.4803162l0 0c0 9.419281 -7.6358643 17.055122 -17.055115 17.055122l0 0l0 0c-9.419312 0 -17.055115 -7.6358414 -17.055115 -17.055122z" fill-rule="evenodd"/></g><g filter="url(#shadowFilter-p.10)"><use xlink:href="#p.10" transform="matrix(1.0 0.0 0.0 1.0 0.0 7.332598348302165)"/></g><defs><filter id="shadowFilter-p.10" filterUnits="userSpaceOnUse"><feGaussianBlur in="SourceAlpha" stdDeviation="5.3333335" result="blur"/><feComponentTransfer in="blur" color-interpolation-filters="sRGB"><feFuncR type="linear" slope="0" intercept="0.0"/><feFuncG type="linear" slope="0" intercept="0.0"/><feFuncB type="linear" slope="0" intercept="0.0"/><feFuncA type="linear" slope="0.0627" intercept="0"/></feComponentTransfer></filter></defs><g id="p.10"><path fill="#ffffff" d="m308.99603 75.650795l0 0c0 -9.414246 7.6317444 -17.046001 17.04599 -17.046001l0 0l0 0c4.520874 0 8.856598 1.7959137 12.053345 4.9926567c3.1967468 3.1967468 4.9926453 7.532463 4.9926453 12.053345l0 1.4927979l0 0c0 9.414246 -7.6317444 17.045998 -17.04599 17.045998l0 0l0 0c-9.414246 0 -17.04599 -7.631752 -17.04599 -17.045998z" fill-rule="evenodd"/><path stroke="#d2d4db" stroke-width="1.0" stroke-miterlimit="400.0" stroke-linecap="butt" d="m308.99603 75.650795l0 0c0 -9.414246 7.6317444 -17.046001 17.04599 -17.046001l0 0l0 0c4.520874 0 8.856598 1.7959137 12.053345 4.9926567c3.1967468 3.1967468 4.9926453 7.532463 4.9926453 12.053345l0 1.4927979l0 0c0 9.414246 -7.6317444 17.045998 -17.04599 17.045998l0 0l0 0c-9.414246 0 -17.04599 -7.631752 -17.04599 -17.045998z" fill-rule="evenodd"/></g><path fill="#5d42e8" d="m334.9795 68.34742c-0.336792 0 -0.60995483 0.3090515 -0.60995483 0.6896286l0 3.9258347l-2.7288818 -2.9050827c-0.8300476 -0.94039917 -1.8537292 -1.671524 -2.9604797 -2.1147919c-4.1149597 -1.6512222 -8.654266 0.80088043 -10.111969 5.4649124c-0.11227417 0.35938263 0.05392456 0.7540817 0.37127686 0.88124084c0.3191223 0.12715149 0.6665344 -0.060928345 0.7779236 -0.42031097c1.2331543 -3.9479141 5.0723267 -6.0194397 8.556122 -4.6251755c0.9361572 0.37615967 1.8024597 0.9942627 2.5184937 1.8048553l2.6493225 2.8203201l-3.3370667 0c-0.336792 0 -0.60995483 0.3090515 -0.60995483 0.689621c0 0.3814621 0.27316284 0.6905136 0.60995483 0.6905136l4.8752136 0c0.083984375 0 0.16442871 -0.019424438 0.23690796 -0.054748535c0.0026550293 -8.8500977E-4 0.004425049 -0.0035324097 0.0061950684 -0.0044174194c0.07336426 -0.036201477 0.13790894 -0.08829498 0.1927185 -0.15187073c0.0026550293 -0.0026550293 0.0061950684 -0.0035324097 0.00793457 -0.0061798096c0.023010254 -0.027374268 0.031829834 -0.060928345 0.04953003 -0.09095001c0.025634766 -0.041503906 0.05392456 -0.08035278 0.07070923 -0.12892151c0.017669678 -0.051216125 0.021209717 -0.10419464 0.028289795 -0.15805817c0.004425049 -0.032669067 0.016784668 -0.061813354 0.016784668 -0.09536743l0 -5.5214233c0 -0.3805771 -0.27313232 -0.6896286 -0.6090698 -0.6896286zm-1.836029 10.161613c-0.3156128 -0.12715149 -0.6656494 0.060928345 -0.7779236 0.42031097c-0.33151245 1.0613708 -0.8786926 2.042389 -1.5805664 2.8370972c-2.6157532 2.9589462 -6.867737 2.9571762 -9.49408 -0.017662048l-2.6484375 -2.8194351l3.3361816 0c0.336792 0 0.60995483 -0.3090515 0.60995483 -0.689621c0 -0.3814621 -0.27316284 -0.6905136 -0.60995483 -0.6905136l-4.8752136 0c-0.0026550293 0 -0.005279541 0.0017700195 -0.00881958 0.0026474c-0.05392456 0 -0.1060791 0.018547058 -0.15823364 0.036209106c-0.023864746 0.0079422 -0.05038452 0.00705719 -0.073394775 0.018539429c-0.029144287 0.014129639 -0.05215454 0.041503906 -0.079559326 0.060043335c-0.039764404 0.029136658 -0.08218384 0.054748535 -0.11578369 0.09359741c-0.0026550293 0.0026474 -0.0053100586 0.0035324097 -0.007965088 0.0070648193c-0.022979736 0.026489258 -0.031829834 0.060043335 -0.04949951 0.090065c-0.025634766 0.042388916 -0.05392456 0.08035278 -0.07070923 0.12892151c-0.017700195 0.051216125 -0.021240234 0.10419464 -0.028289795 0.15805817c-0.004425049 0.032669067 -0.016815186 0.061813354 -0.016815186 0.09536743l0 5.5214233c0 0.3805771 0.27316284 0.6896286 0.6090698 0.6896286c0.3368225 0 0.60995483 -0.3090515 0.60995483 -0.6896286l0 -3.9258347l2.7288818 2.9041977c1.545227 1.7501144 3.5739746 2.6251678 5.6036377 2.6251678c2.0287476 0 4.05661 -0.8741684 5.600952 -2.6225204c0.8300781 -0.93862915 1.4753723 -2.0980148 1.8678894 -3.351883c0.11224365 -0.35938263 -0.05392456 -0.7540817 -0.37127686 -0.88124084z" fill-rule="evenodd"/><path fill="#000000" d="m618.9499 68.49389c1.1569214 0 2.0982666 0.9712753 2.0982666 2.1649628c0 1.1936874 -0.9413452 2.1649628 -2.0982666 2.1649628c-1.1569214 0 -2.0982666 -0.9712753 -2.0982666 -2.1649628c0 -1.1936874 0.9413452 -2.1649628 2.0982666 -2.1649628zm11.191772 11.547638c1.1569214 0 2.0982666 0.97128296 2.0982666 2.1649704c0 1.1936798 -0.9413452 2.1649628 -2.0982666 2.1649628c-1.1568604 0 -2.0982056 -0.97128296 -2.0982056 -2.1649628c0 -1.1936874 0.9413452 -2.1649704 2.0982056 -2.1649704zm-11.8914795 -5.846794l0 10.898674c0 0.39876556 0.31323242 0.7219467 0.69970703 0.7219467c0.3864746 0 0.69970703 -0.32318115 0.69970703 -0.7219467l0 -6.5522385c1.5046387 2.4594803 4.092102 4.1309814 7.060974 4.3447037c0.30981445 1.6654205 1.7277832 2.9294815 3.4310913 2.9294815c1.9290161 0 3.4976807 -1.618515 3.4976807 -3.6088562c0 -1.9894791 -1.5686646 -3.6088562 -3.4976807 -3.6088562c-1.6772461 0 -3.0808105 1.2258301 -3.4176025 2.8547668c-3.7477417 -0.3110199 -6.7418823 -3.4003525 -7.043335 -7.267235c1.5787354 -0.34750366 2.7667847 -1.7957382 2.7667847 -3.5263214c0 -1.9903412 -1.569458 -3.6088562 -3.4976196 -3.6088562c-1.9290161 0 -3.4976196 1.618515 -3.4976196 3.6088562c0 1.7427444 1.203186 3.2005386 2.7979126 3.535881z" fill-rule="evenodd"/><g filter="url(#shadowFilter-p.11)"><use xlink:href="#p.11" transform="matrix(1.0 0.0 0.0 1.0 0.0 7.332598348302165)"/></g><defs><filter id="shadowFilter-p.11" filterUnits="userSpaceOnUse"><feGaussianBlur in="SourceAlpha" stdDeviation="5.3333335" result="blur"/><feComponentTransfer in="blur" color-interpolation-filters="sRGB"><feFuncR type="linear" slope="0" intercept="0.0"/><feFuncG type="linear" slope="0" intercept="0.0"/><feFuncB type="linear" slope="0" intercept="0.0"/><feFuncA type="linear" slope="0.0627" intercept="0"/></feComponentTransfer></filter></defs><g id="p.11"><path fill="#5b45e1" d="m761.4457 13.99899l0 0c0 -7.7319865 6.2680664 -14.0 14.0 -14.0l0 0l0 0c3.7130737 0 7.273987 1.4749957 9.899536 4.100505c2.6254883 2.6255093 4.100464 6.1864643 4.100464 9.899495l0 0l0 0c0 7.731986 -6.2680054 13.999999 -14.0 13.999999l0 0l0 0c-7.7319336 0 -14.0 -6.268013 -14.0 -13.999999z" fill-rule="evenodd"/><path fill="#ffffff" d="m778.1527 8.655865l0 6.734375l1.484375 0l0 1.875l-1.484375 0l0 2.59375l-2.15625 0l0 -2.59375l-4.734375 0l0 -2.078125l4.859375 -6.53125l2.03125 0zm-2.203125 2.84375l-2.90625 3.890625l2.953125 0l0 -3.890625l-0.046875 0z" fill-rule="nonzero"/></g><g filter="url(#shadowFilter-p.12)"><use xlink:href="#p.12" transform="matrix(1.0 0.0 0.0 1.0 0.0 7.332598348302165)"/></g><defs><filter id="shadowFilter-p.12" filterUnits="userSpaceOnUse"><feGaussianBlur in="SourceAlpha" stdDeviation="5.3333335" result="blur"/><feComponentTransfer in="blur" color-interpolation-filters="sRGB"><feFuncR type="linear" slope="0" intercept="0.0"/><feFuncG type="linear" slope="0" intercept="0.0"/><feFuncB type="linear" slope="0" intercept="0.0"/><feFuncA type="linear" slope="0.0627" intercept="0"/></feComponentTransfer></filter></defs><g id="p.12"><path fill="#5b45e1" d="m170.55331 14.000302l0 0c0 -7.7319865 6.2680054 -14.0 14.0 -14.0l0 0l0 0c3.713028 0 7.273987 1.4749959 9.89949 4.100505c2.6255188 2.6255097 4.1005096 6.1864643 4.1005096 9.899495l0 0l0 0c0 7.731986 -6.2680206 14.000001 -14.0 14.000001l0 0l0 0c-7.7319946 0 -14.0 -6.268015 -14.0 -14.000001z" fill-rule="evenodd"/><path fill="#ffffff" d="m186.38535 8.657177l0 11.203125l-2.28125 0l0 -7.265625l-2.8125 0l0 -1.71875l0.15625 0q1.375 0 2.15625 -0.5625q0.796875 -0.5625 0.96875 -1.65625l1.8125 0z" fill-rule="nonzero"/></g><g filter="url(#shadowFilter-p.13)"><use xlink:href="#p.13" transform="matrix(1.0 0.0 0.0 1.0 0.0 7.332598348302165)"/></g><defs><filter id="shadowFilter-p.13" filterUnits="userSpaceOnUse"><feGaussianBlur in="SourceAlpha" stdDeviation="5.3333335" result="blur"/><feComponentTransfer in="blur" color-interpolation-filters="sRGB"><feFuncR type="linear" slope="0" intercept="0.0"/><feFuncG type="linear" slope="0" intercept="0.0"/><feFuncB type="linear" slope="0" intercept="0.0"/><feFuncA type="linear" slope="0.0627" intercept="0"/></feComponentTransfer></filter></defs><g id="p.13"><path fill="#5b45e1" d="m465.9995 307.8389l0 0c0 -7.7319946 6.2680054 -14.0 14.0 -14.0l0 0l0 0c3.7130127 0 7.273987 1.4749756 9.899506 4.1004944c2.6254883 2.6255188 4.1004944 6.1864624 4.1004944 9.899506l0 0l0 0c0 7.731964 -6.2680054 14.0 -14.0 14.0l0 0l0 0c-7.7319946 0 -14.0 -6.268036 -14.0 -14.0z" fill-rule="evenodd"/><path fill="#ffffff" d="m480.20654 302.277q1.640625 0 2.734375 0.984375q1.109375 0.96875 1.109375 2.515625q0 1.078125 -0.515625 1.9375q-0.515625 0.859375 -2.171875 1.90625q-1.140625 0.734375 -1.6875 1.21875q-0.546875 0.46875 -0.859375 0.90625l5.296875 0l0 1.953125l-8.21875 0q0 -1.109375 0.390625 -1.96875q0.390625 -0.859375 1.125 -1.53125q0.75 -0.671875 2.828125 -2.0625q0.796875 -0.515625 1.171875 -1.046875q0.375 -0.53125 0.375 -1.140625q0 -0.75 -0.46875 -1.234375q-0.453125 -0.484375 -1.21875 -0.484375q-0.84375 0 -1.296875 0.6875q-0.453125 0.6875 -0.484375 1.875l-2.171875 0l0 -0.203125q0 -1.953125 1.109375 -3.125q1.109375 -1.1875 2.953125 -1.1875z" fill-rule="nonzero"/></g><g filter="url(#shadowFilter-p.14)"><use xlink:href="#p.14" transform="matrix(1.0 0.0 0.0 1.0 0.0 7.332598348302165)"/></g><defs><filter id="shadowFilter-p.14" filterUnits="userSpaceOnUse"><feGaussianBlur in="SourceAlpha" stdDeviation="5.3333335" result="blur"/><feComponentTransfer in="blur" color-interpolation-filters="sRGB"><feFuncR type="linear" slope="0" intercept="0.0"/><feFuncG type="linear" slope="0" intercept="0.0"/><feFuncB type="linear" slope="0" intercept="0.0"/><feFuncA type="linear" slope="0.0627" intercept="0"/></feComponentTransfer></filter></defs><g id="p.14"><path fill="#5b45e1" d="m468.41684 13.99899l0 0c0 -7.7319865 6.2680054 -14.0 14.0 -14.0l0 0l0 0c3.7130127 0 7.273987 1.4749957 9.899475 4.100505c2.6255188 2.6255093 4.100525 6.1864643 4.100525 9.899495l0 0l0 0c0 7.731986 -6.268036 13.999999 -14.0 13.999999l0 0l0 0c-7.7319946 0 -14.0 -6.268013 -14.0 -13.999999z" fill-rule="evenodd"/><path fill="#ffffff" d="m482.3895 8.437115q1.515625 0 2.640625 0.890625q1.125 0.875 1.125 2.203125q0 0.8125 -0.40625 1.4375q-0.390625 0.609375 -1.171875 0.859375l0 0.03125q0.9375 0.21875 1.453125 0.921875q0.53125 0.6875 0.53125 1.625q0 1.640625 -1.203125 2.671875q-1.203125 1.015625 -2.953125 1.015625q-1.890625 0 -3.03125 -1.078125q-1.125 -1.078125 -1.125 -2.890625l0 -0.125l2.15625 0q0.046875 1.046875 0.5625 1.625q0.515625 0.578125 1.40625 0.578125q0.8125 0 1.3125 -0.5q0.515625 -0.5 0.515625 -1.25q0 -0.84375 -0.5 -1.25q-0.5 -0.421875 -1.859375 -0.421875l-0.234375 0l0 -1.59375l0.375 0.015625q0.96875 0 1.484375 -0.359375q0.515625 -0.375 0.515625 -1.046875q0 -0.671875 -0.453125 -1.078125q-0.4375 -0.421875 -1.125 -0.421875q-0.765625 0 -1.25 0.515625q-0.46875 0.5 -0.484375 1.484375l-2.15625 0q0.0625 -1.765625 1.109375 -2.8125q1.0625 -1.046875 2.765625 -1.046875z" fill-rule="nonzero"/></g></g></svg>