<svg version="1.1" viewBox="0.0 0.0 960.0 720.0" fill="none" stroke="none" stroke-linecap="square" stroke-miterlimit="10" xmlns:xlink="http://www.w3.org/1999/xlink" xmlns="http://www.w3.org/2000/svg"><clipPath id="p.0"><path d="m0 0l960.0 0l0 720.0l-960.0 0l0 -720.0z" clip-rule="nonzero"/></clipPath><g clip-path="url(#p.0)"><path fill="#000000" fill-opacity="0.0" d="m0 0l960.0 0l0 720.0l-960.0 0z" fill-rule="evenodd"/><path fill="#e69138" d="m344.7255 7.4520535c-6.528656 0 -12.828827 2.5461783 -17.431519 7.1815276l-192.6608 192.6608c-4.6353455 4.602707 -7.181526 10.902878 -7.181526 17.431534l0 270.54773c0 6.5286865 2.5461807 12.828827 7.181526 17.431519l192.6608 192.66083c4.6026917 4.635315 10.902863 7.1815186 17.431519 7.1815186l270.54776 0c6.5286255 0 12.828796 -2.5462036 17.431519 -7.1815186l192.66077 -192.66083c4.635376 -4.6026917 7.1815186 -10.902832 7.1815186 -17.431519l0 -270.54773c0 -6.528656 -2.5461426 -12.828827 -7.1815186 -17.431534c0 0 -192.66077 -192.6608 -192.66077 -192.6608c-4.602722 -4.6353493 -10.902893 -7.1815276 -17.431519 -7.1815276l-270.54776 0zm9.205414 49.193462l252.1369 0l177.28583 177.2858c0 0 0 252.13692 0 252.13692l-177.28583 177.28577l-252.1369 0l-177.2858 -177.28577l0 -252.13692l177.2858 -177.2858zm126.06845 147.58038c-13.57962 0 -24.580414 11.000793 -24.580414 24.580414l0 131.19344c0 13.57962 11.000793 24.580414 24.580414 24.580414c13.57962 0 24.580414 -11.000793 24.580414 -24.580414l0 -131.19344c0 -13.57962 -11.000793 -24.580414 -24.580414 -24.580414zm-16.386932 269.53577c-5.059723 5.0923767 -8.193481 12.208618 -8.193481 19.455414c0 7.2794495 3.1337585 14.395691 8.193481 19.488037c5.059723 5.092407 11.229309 8.193481 18.443481 8.193481c7.1815186 0 14.395691 -3.1010742 19.455383 -8.193481c2.5135498 -2.5461426 4.733307 -4.9291077 6.169586 -8.193451c1.4363098 -3.2969666 2.0238953 -7.671173 2.0238953 -11.294586c0 -7.2467957 -3.1337585 -14.363037 -8.193481 -19.455414c-10.086761 -10.152069 -27.812073 -10.152069 -37.898865 0z" fill-rule="evenodd"/></g></svg>