<svg width="480" height="400" viewBox="0 0 480 400" fill="none" xmlns="http://www.w3.org/2000/svg">
    <g id="adoption_journey_groups">
        <g id="svg-background">
            <rect id="rectangle" width="480" height="400" rx="10" fill="#F2F2F3" />
        </g>
        <g id="workflow">
            <g id="user-to-iac">
                <path id="user-to-iac_2" d="M276 121.5L266 115.726V127.274L276 121.5ZM98 122.5H267V120.5H98V122.5Z"
                    fill="#1D1E1F" class="hg">
                    <animate attributeName="opacity" dur="20s" keyTimes="0;0.01;0.06;0.8;0.9;1" values="0;0;1;1;1;0"
                        repeatCount="indefinite" />
                </path>
            </g>
            <g id="iac-to-plan">
                <path id="arrow"
                    d="M410 178L412.657 166.763L401.597 170.081L410 178ZM359.319 126.396L359.031 127.353L359.319 126.396ZM357.713 126.958L359.031 127.353L359.606 125.438L358.287 125.042L357.713 126.958ZM359.031 127.353C382.858 134.501 401.499 153.142 408.647 176.969L410.562 176.394C403.221 151.924 384.076 132.779 359.606 125.438L359.031 127.353Z"
                    fill="#1D1E1F" class="hg">
                    <animate attributeName="opacity" dur="20s" keyTimes="0;0.06;0.12;0.8;0.9;1" values="0;0;1;1;1;0"
                        repeatCount="indefinite" />
                </path>
            </g>
            <g id="plan-to-vcs">
                <path id="arrow_3"
                    d="M358 278L369.237 280.657L365.919 269.597L358 278ZM409.604 227.319L408.647 227.031L409.604 227.319ZM409.042 225.713L408.647 227.031L410.562 227.606L410.958 226.287L409.042 225.713ZM408.647 227.031C401.499 250.858 382.858 269.499 359.031 276.647L359.606 278.562C384.076 271.221 403.221 252.076 410.562 227.606L408.647 227.031Z"
                    fill="#1D1E1F" class="hg">
                    <animate attributeName="opacity" dur="20s" keyTimes="0;0.12;0.18;0.8;0.9;1" values="0;0;1;1;1;0"
                        repeatCount="indefinite" />
                </path>
            </g>
            <g id="vcs-to-apply">
                <path id="arrow_4"
                    d="M258 226L255.343 237.237L266.403 233.919L258 226ZM308.681 277.604L308.969 276.647L308.681 277.604ZM310.287 277.042L308.969 276.647L308.394 278.562L309.713 278.958L310.287 277.042ZM308.969 276.647C285.142 269.499 266.501 250.858 259.353 227.031L257.438 227.606C264.779 252.076 283.924 271.221 308.394 278.562L308.969 276.647Z"
                    fill="#1D1E1F" class="hg">
                    <animate attributeName="opacity" dur="20s" keyTimes="0;0.18;0.24;0.8;0.9;1" values="0;0;1;1;1;0"
                        repeatCount="indefinite" />
                </path>
            </g>
            <g id="apply-to-iac">
                <path id="arrow_2"
                    d="M310 126L298.763 123.343L302.081 134.403L310 126ZM258.396 176.681L259.353 176.969L258.396 176.681ZM258.958 178.287L259.353 176.969L257.438 176.394L257.042 177.713L258.958 178.287ZM259.353 176.969C266.501 153.142 285.142 134.501 308.969 127.353L308.394 125.438C283.924 132.779 264.779 151.924 257.438 176.394L259.353 176.969Z"
                    fill="#1D1E1F" class="hg">
                    <animate attributeName="opacity" dur="20s" keyTimes="0;0.24;0.30;0.8;0.9;1" values="0;0;1;1;1;0"
                        repeatCount="indefinite" />
                </path>
            </g>
            <g id="apply">
                <g id="icon_box / white">
                    <g id="box" filter="url(#filter0_d_0_5748)">
                        <rect x="230" y="178" width="48" height="48" rx="2" fill="white" />
                        <rect x="230.5" y="178.5" width="47" height="47" rx="1.5" stroke="#727274" />
                    </g>
                </g>
                <g id="core / Terminal / Dark">
                    <g id="Group">
                        <path id="Path"
                            d="M243.526 191.665C243.911 191.2 244.599 191.142 245.062 191.52L251.608 196.975C251.856 197.193 252 197.498 252 197.818C252 198.138 251.856 198.444 251.608 198.662L245.062 204.116C244.599 204.495 243.911 204.436 243.526 203.971C243.14 203.505 243.202 202.822 243.665 202.429L249.205 197.818L243.665 193.207C243.202 192.815 243.14 192.131 243.526 191.665Z"
                            fill="#222222" />
                        <path id="Path_2"
                            d="M251.636 204.364C251.034 204.364 250.545 204.858 250.545 205.455C250.545 206.051 251.034 206.545 251.636 206.545H259.636C260.239 206.545 260.727 206.051 260.727 205.455C260.727 204.858 260.239 204.364 259.636 204.364H251.636Z"
                            fill="#222222" />
                        <path id="Shape" fill-rule="evenodd" clip-rule="evenodd"
                            d="M238 191C238 188.789 239.791 187 242 187H266C268.209 187 270 188.789 270 191V212.091C270 214.302 268.209 216.091 266 216.091H242C239.791 216.091 238 214.302 238 212.091V191ZM242 189.182C240.996 189.182 240.182 189.996 240.182 191V212.091C240.182 213.095 240.996 213.909 242 213.909H266C267.004 213.909 267.818 213.095 267.818 212.091V191C267.818 189.996 267.004 189.182 266 189.182H242Z"
                            fill="#222222" />
                    </g>
                </g>
            </g>
            <g id="iac">
                <g id="icon_box / white_2">
                    <g id="box_2" filter="url(#filter1_d_0_5748)">
                        <rect x="310" y="98" width="48" height="48" rx="2" fill="white" />
                        <rect x="310.5" y="98.5" width="47" height="47" rx="1.5" stroke="#727274" />
                    </g>
                </g>
                <g id="core / Document / Dark">
                    <g id="Group_2">
                        <path id="Path_3"
                            d="M327.909 122C327.307 122 326.818 122.495 326.818 123.091C326.818 123.687 327.307 124.182 327.909 124.182H339.545C340.148 124.182 340.636 123.687 340.636 123.091C340.636 122.495 340.148 122 339.545 122H327.909Z"
                            fill="#222222" />
                        <path id="Path_4"
                            d="M326.818 128.909C326.818 128.313 327.307 127.818 327.909 127.818H336.636C337.238 127.818 337.727 128.313 337.727 128.909C337.727 129.505 337.238 130 336.636 130H327.909C327.307 130 326.818 129.505 326.818 128.909Z"
                            fill="#222222" />
                        <path id="Path_5"
                            d="M327.909 116.182C327.307 116.182 326.818 116.676 326.818 117.273C326.818 117.869 327.307 118.364 327.909 118.364H330.818C331.42 118.364 331.909 117.869 331.909 117.273C331.909 116.676 331.42 116.182 330.818 116.182H327.909Z"
                            fill="#222222" />
                        <path id="Shape_2" fill-rule="evenodd" clip-rule="evenodd"
                            d="M321 110C321 107.789 322.791 106 325 106H336.034C336.709 106 337.356 106.262 337.833 106.742L346.436 115.353C346.914 115.818 347.182 116.473 347.182 117.142V134C347.182 136.211 345.391 138 343.182 138H325C322.791 138 321 136.211 321 134V110ZM325 108.182C323.996 108.182 323.182 108.996 323.182 110V134C323.182 135.004 323.996 135.818 325 135.818H343.182C344.185 135.818 345 135.004 345 134V117.636H336.636C336.034 117.636 335.545 117.142 335.545 116.545V108.182H325ZM337.727 109.724L343.457 115.455H337.727V109.724Z"
                            fill="#222222" />
                    </g>
                </g>
            </g>
            <g id="plan">
                <g id="icon_box / white_3">
                    <g id="box_3" filter="url(#filter2_d_0_5748)">
                        <rect x="390" y="178" width="48" height="48" rx="2" fill="white" />
                        <rect x="390.5" y="178.5" width="47" height="47" rx="1.5" stroke="#727274" />
                    </g>
                </g>
                <g id="core / Terminal / Dark_2">
                    <g id="Group_3">
                        <path id="Path_6"
                            d="M403.526 193.665C403.911 193.2 404.599 193.142 405.062 193.52L411.608 198.975C411.856 199.193 412 199.498 412 199.818C412 200.138 411.856 200.444 411.608 200.662L405.062 206.116C404.599 206.495 403.911 206.436 403.526 205.971C403.14 205.505 403.202 204.822 403.665 204.429L409.205 199.818L403.665 195.207C403.202 194.815 403.14 194.131 403.526 193.665Z"
                            fill="#222222" />
                        <path id="Path_7"
                            d="M411.636 206.364C411.034 206.364 410.545 206.858 410.545 207.455C410.545 208.051 411.034 208.545 411.636 208.545H419.636C420.239 208.545 420.727 208.051 420.727 207.455C420.727 206.858 420.239 206.364 419.636 206.364H411.636Z"
                            fill="#222222" />
                        <path id="Shape_3" fill-rule="evenodd" clip-rule="evenodd"
                            d="M398 193C398 190.789 399.791 189 402 189H426C428.209 189 430 190.789 430 193V214.091C430 216.302 428.209 218.091 426 218.091H402C399.791 218.091 398 216.302 398 214.091V193ZM402 191.182C400.996 191.182 400.182 191.996 400.182 193V214.091C400.182 215.095 400.996 215.909 402 215.909H426C427.004 215.909 427.818 215.095 427.818 214.091V193C427.818 191.996 427.004 191.182 426 191.182H402Z"
                            fill="#222222" />
                    </g>
                </g>
            </g>
            <path id="Team Collaboration"
                d="M49.1484 170.469V179H48.0352V170.469H49.1484ZM51.8906 170.469V171.395H45.2988V170.469H51.8906ZM55.0371 179.117C54.5957 179.117 54.1953 179.043 53.8359 178.895C53.4805 178.742 53.1738 178.529 52.916 178.256C52.6621 177.982 52.4668 177.658 52.3301 177.283C52.1934 176.908 52.125 176.498 52.125 176.053V175.807C52.125 175.291 52.2012 174.832 52.3535 174.43C52.5059 174.023 52.7129 173.68 52.9746 173.398C53.2363 173.117 53.5332 172.904 53.8652 172.76C54.1973 172.615 54.541 172.543 54.8965 172.543C55.3496 172.543 55.7402 172.621 56.0684 172.777C56.4004 172.934 56.6719 173.152 56.8828 173.434C57.0938 173.711 57.25 174.039 57.3516 174.418C57.4531 174.793 57.5039 175.203 57.5039 175.648V176.135H52.7695V175.25H56.4199V175.168C56.4043 174.887 56.3457 174.613 56.2441 174.348C56.1465 174.082 55.9902 173.863 55.7754 173.691C55.5605 173.52 55.2676 173.434 54.8965 173.434C54.6504 173.434 54.4238 173.486 54.2168 173.592C54.0098 173.693 53.832 173.846 53.6836 174.049C53.5352 174.252 53.4199 174.5 53.3379 174.793C53.2559 175.086 53.2148 175.424 53.2148 175.807V176.053C53.2148 176.354 53.2559 176.637 53.3379 176.902C53.4238 177.164 53.5469 177.395 53.707 177.594C53.8711 177.793 54.0684 177.949 54.2988 178.062C54.5332 178.176 54.7988 178.232 55.0957 178.232C55.4785 178.232 55.8027 178.154 56.0684 177.998C56.334 177.842 56.5664 177.633 56.7656 177.371L57.4219 177.893C57.2852 178.1 57.1113 178.297 56.9004 178.484C56.6895 178.672 56.4297 178.824 56.1211 178.941C55.8164 179.059 55.4551 179.117 55.0371 179.117ZM62.5078 177.916V174.652C62.5078 174.402 62.457 174.186 62.3555 174.002C62.2578 173.814 62.1094 173.67 61.9102 173.568C61.7109 173.467 61.4648 173.416 61.1719 173.416C60.8984 173.416 60.6582 173.463 60.4512 173.557C60.248 173.65 60.0879 173.773 59.9707 173.926C59.8574 174.078 59.8008 174.242 59.8008 174.418H58.7168C58.7168 174.191 58.7754 173.967 58.8926 173.744C59.0098 173.521 59.1777 173.32 59.3965 173.141C59.6191 172.957 59.8848 172.812 60.1934 172.707C60.5059 172.598 60.8535 172.543 61.2363 172.543C61.6973 172.543 62.1035 172.621 62.4551 172.777C62.8105 172.934 63.0879 173.17 63.2871 173.486C63.4902 173.799 63.5918 174.191 63.5918 174.664V177.617C63.5918 177.828 63.6094 178.053 63.6445 178.291C63.6836 178.529 63.7402 178.734 63.8145 178.906V179H62.6836C62.6289 178.875 62.5859 178.709 62.5547 178.502C62.5234 178.291 62.5078 178.096 62.5078 177.916ZM62.6953 175.156L62.707 175.918H61.6113C61.3027 175.918 61.0273 175.943 60.7852 175.994C60.543 176.041 60.3398 176.113 60.1758 176.211C60.0117 176.309 59.8867 176.432 59.8008 176.58C59.7148 176.725 59.6719 176.895 59.6719 177.09C59.6719 177.289 59.7168 177.471 59.8066 177.635C59.8965 177.799 60.0312 177.93 60.2109 178.027C60.3945 178.121 60.6191 178.168 60.8848 178.168C61.2168 178.168 61.5098 178.098 61.7637 177.957C62.0176 177.816 62.2188 177.645 62.3672 177.441C62.5195 177.238 62.6016 177.041 62.6133 176.85L63.0762 177.371C63.0488 177.535 62.9746 177.717 62.8535 177.916C62.7324 178.115 62.5703 178.307 62.3672 178.49C62.168 178.67 61.9297 178.82 61.6523 178.941C61.3789 179.059 61.0703 179.117 60.7266 179.117C60.2969 179.117 59.9199 179.033 59.5957 178.865C59.2754 178.697 59.0254 178.473 58.8457 178.191C58.6699 177.906 58.582 177.588 58.582 177.236C58.582 176.896 58.6484 176.598 58.7812 176.34C58.9141 176.078 59.1055 175.861 59.3555 175.689C59.6055 175.514 59.9062 175.381 60.2578 175.291C60.6094 175.201 61.002 175.156 61.4355 175.156H62.6953ZM66.375 173.92V179H65.2852V172.66H66.3164L66.375 173.92ZM66.1523 175.59L65.6484 175.572C65.6523 175.139 65.709 174.738 65.8184 174.371C65.9277 174 66.0898 173.678 66.3047 173.404C66.5195 173.131 66.7871 172.92 67.1074 172.771C67.4277 172.619 67.7988 172.543 68.2207 172.543C68.5176 172.543 68.791 172.586 69.041 172.672C69.291 172.754 69.5078 172.885 69.6914 173.064C69.875 173.244 70.0176 173.475 70.1191 173.756C70.2207 174.037 70.2715 174.377 70.2715 174.775V179H69.1875V174.828C69.1875 174.496 69.1309 174.23 69.0176 174.031C68.9082 173.832 68.752 173.688 68.5488 173.598C68.3457 173.504 68.1074 173.457 67.834 173.457C67.5137 173.457 67.2461 173.514 67.0312 173.627C66.8164 173.74 66.6445 173.896 66.5156 174.096C66.3867 174.295 66.293 174.523 66.2344 174.781C66.1797 175.035 66.1523 175.305 66.1523 175.59ZM70.2598 174.992L69.5332 175.215C69.5371 174.867 69.5938 174.533 69.7031 174.213C69.8164 173.893 69.9785 173.607 70.1895 173.357C70.4043 173.107 70.668 172.91 70.9805 172.766C71.293 172.617 71.6504 172.543 72.0527 172.543C72.3926 172.543 72.6934 172.588 72.9551 172.678C73.2207 172.768 73.4434 172.906 73.623 173.094C73.8066 173.277 73.9453 173.514 74.0391 173.803C74.1328 174.092 74.1797 174.436 74.1797 174.834V179H73.0898V174.822C73.0898 174.467 73.0332 174.191 72.9199 173.996C72.8105 173.797 72.6543 173.658 72.4512 173.58C72.252 173.498 72.0137 173.457 71.7363 173.457C71.498 173.457 71.2871 173.498 71.1035 173.58C70.9199 173.662 70.7656 173.775 70.6406 173.92C70.5156 174.061 70.4199 174.223 70.3535 174.406C70.291 174.59 70.2598 174.785 70.2598 174.992ZM30.498 190.287H31.623C31.5645 190.826 31.4102 191.309 31.1602 191.734C30.9102 192.16 30.5566 192.498 30.0996 192.748C29.6426 192.994 29.0723 193.117 28.3887 193.117C27.8887 193.117 27.4336 193.023 27.0234 192.836C26.6172 192.648 26.2676 192.383 25.9746 192.039C25.6816 191.691 25.4551 191.275 25.2949 190.791C25.1387 190.303 25.0605 189.76 25.0605 189.162V188.312C25.0605 187.715 25.1387 187.174 25.2949 186.689C25.4551 186.201 25.6836 185.783 25.9805 185.436C26.2812 185.088 26.6426 184.82 27.0645 184.633C27.4863 184.445 27.9609 184.352 28.4883 184.352C29.1328 184.352 29.6777 184.473 30.123 184.715C30.5684 184.957 30.9141 185.293 31.1602 185.723C31.4102 186.148 31.5645 186.643 31.623 187.205H30.498C30.4434 186.807 30.3418 186.465 30.1934 186.18C30.0449 185.891 29.834 185.668 29.5605 185.512C29.2871 185.355 28.9297 185.277 28.4883 185.277C28.1094 185.277 27.7754 185.35 27.4863 185.494C27.2012 185.639 26.9609 185.844 26.7656 186.109C26.5742 186.375 26.4297 186.693 26.332 187.064C26.2344 187.436 26.1855 187.848 26.1855 188.301V189.162C26.1855 189.58 26.2285 189.973 26.3145 190.34C26.4043 190.707 26.5391 191.029 26.7188 191.307C26.8984 191.584 27.127 191.803 27.4043 191.963C27.6816 192.119 28.0098 192.197 28.3887 192.197C28.8691 192.197 29.252 192.121 29.5371 191.969C29.8223 191.816 30.0371 191.598 30.1816 191.312C30.3301 191.027 30.4355 190.686 30.498 190.287ZM32.7129 189.9V189.766C32.7129 189.309 32.7793 188.885 32.9121 188.494C33.0449 188.1 33.2363 187.758 33.4863 187.469C33.7363 187.176 34.0391 186.949 34.3945 186.789C34.75 186.625 35.1484 186.543 35.5898 186.543C36.0352 186.543 36.4355 186.625 36.791 186.789C37.1504 186.949 37.4551 187.176 37.7051 187.469C37.959 187.758 38.1523 188.1 38.2852 188.494C38.418 188.885 38.4844 189.309 38.4844 189.766V189.9C38.4844 190.357 38.418 190.781 38.2852 191.172C38.1523 191.562 37.959 191.904 37.7051 192.197C37.4551 192.486 37.1523 192.713 36.7969 192.877C36.4453 193.037 36.0469 193.117 35.6016 193.117C35.1562 193.117 34.7559 193.037 34.4004 192.877C34.0449 192.713 33.7402 192.486 33.4863 192.197C33.2363 191.904 33.0449 191.562 32.9121 191.172C32.7793 190.781 32.7129 190.357 32.7129 189.9ZM33.7969 189.766V189.9C33.7969 190.217 33.834 190.516 33.9082 190.797C33.9824 191.074 34.0938 191.32 34.2422 191.535C34.3945 191.75 34.584 191.92 34.8105 192.045C35.0371 192.166 35.3008 192.227 35.6016 192.227C35.8984 192.227 36.1582 192.166 36.3809 192.045C36.6074 191.92 36.7949 191.75 36.9434 191.535C37.0918 191.32 37.2031 191.074 37.2773 190.797C37.3555 190.516 37.3945 190.217 37.3945 189.9V189.766C37.3945 189.453 37.3555 189.158 37.2773 188.881C37.2031 188.6 37.0898 188.352 36.9375 188.137C36.7891 187.918 36.6016 187.746 36.375 187.621C36.1523 187.496 35.8906 187.434 35.5898 187.434C35.293 187.434 35.0312 187.496 34.8047 187.621C34.582 187.746 34.3945 187.918 34.2422 188.137C34.0938 188.352 33.9824 188.6 33.9082 188.881C33.834 189.158 33.7969 189.453 33.7969 189.766ZM41.0215 184V193H39.9316V184H41.0215ZM43.9395 184V193H42.8496V184H43.9395ZM49.418 191.916V188.652C49.418 188.402 49.3672 188.186 49.2656 188.002C49.168 187.814 49.0195 187.67 48.8203 187.568C48.6211 187.467 48.375 187.416 48.082 187.416C47.8086 187.416 47.5684 187.463 47.3613 187.557C47.1582 187.65 46.998 187.773 46.8809 187.926C46.7676 188.078 46.7109 188.242 46.7109 188.418H45.627C45.627 188.191 45.6855 187.967 45.8027 187.744C45.9199 187.521 46.0879 187.32 46.3066 187.141C46.5293 186.957 46.7949 186.812 47.1035 186.707C47.416 186.598 47.7637 186.543 48.1465 186.543C48.6074 186.543 49.0137 186.621 49.3652 186.777C49.7207 186.934 49.998 187.17 50.1973 187.486C50.4004 187.799 50.502 188.191 50.502 188.664V191.617C50.502 191.828 50.5195 192.053 50.5547 192.291C50.5938 192.529 50.6504 192.734 50.7246 192.906V193H49.5938C49.5391 192.875 49.4961 192.709 49.4648 192.502C49.4336 192.291 49.418 192.096 49.418 191.916ZM49.6055 189.156L49.6172 189.918H48.5215C48.2129 189.918 47.9375 189.943 47.6953 189.994C47.4531 190.041 47.25 190.113 47.0859 190.211C46.9219 190.309 46.7969 190.432 46.7109 190.58C46.625 190.725 46.582 190.895 46.582 191.09C46.582 191.289 46.627 191.471 46.7168 191.635C46.8066 191.799 46.9414 191.93 47.1211 192.027C47.3047 192.121 47.5293 192.168 47.7949 192.168C48.127 192.168 48.4199 192.098 48.6738 191.957C48.9277 191.816 49.1289 191.645 49.2773 191.441C49.4297 191.238 49.5117 191.041 49.5234 190.85L49.9863 191.371C49.959 191.535 49.8848 191.717 49.7637 191.916C49.6426 192.115 49.4805 192.307 49.2773 192.49C49.0781 192.67 48.8398 192.82 48.5625 192.941C48.2891 193.059 47.9805 193.117 47.6367 193.117C47.207 193.117 46.8301 193.033 46.5059 192.865C46.1855 192.697 45.9355 192.473 45.7559 192.191C45.5801 191.906 45.4922 191.588 45.4922 191.236C45.4922 190.896 45.5586 190.598 45.6914 190.34C45.8242 190.078 46.0156 189.861 46.2656 189.689C46.5156 189.514 46.8164 189.381 47.168 189.291C47.5195 189.201 47.9121 189.156 48.3457 189.156H49.6055ZM52.2012 184H53.291V191.77L53.1973 193H52.2012V184ZM57.5742 189.777V189.9C57.5742 190.361 57.5195 190.789 57.4102 191.184C57.3008 191.574 57.1406 191.914 56.9297 192.203C56.7188 192.492 56.4609 192.717 56.1562 192.877C55.8516 193.037 55.502 193.117 55.1074 193.117C54.7051 193.117 54.3516 193.049 54.0469 192.912C53.7461 192.771 53.4922 192.57 53.2852 192.309C53.0781 192.047 52.9121 191.73 52.7871 191.359C52.666 190.988 52.582 190.57 52.5352 190.105V189.566C52.582 189.098 52.666 188.678 52.7871 188.307C52.9121 187.936 53.0781 187.619 53.2852 187.357C53.4922 187.092 53.7461 186.891 54.0469 186.754C54.3477 186.613 54.6973 186.543 55.0957 186.543C55.4941 186.543 55.8477 186.621 56.1562 186.777C56.4648 186.93 56.7227 187.148 56.9297 187.434C57.1406 187.719 57.3008 188.061 57.4102 188.459C57.5195 188.854 57.5742 189.293 57.5742 189.777ZM56.4844 189.9V189.777C56.4844 189.461 56.4551 189.164 56.3965 188.887C56.3379 188.605 56.2441 188.359 56.1152 188.148C55.9863 187.934 55.8164 187.766 55.6055 187.645C55.3945 187.52 55.1348 187.457 54.8262 187.457C54.5527 187.457 54.3145 187.504 54.1113 187.598C53.9121 187.691 53.7422 187.818 53.6016 187.979C53.4609 188.135 53.3457 188.314 53.2559 188.518C53.1699 188.717 53.1055 188.924 53.0625 189.139V190.551C53.125 190.824 53.2266 191.088 53.3672 191.342C53.5117 191.592 53.7031 191.797 53.9414 191.957C54.1836 192.117 54.4824 192.197 54.8379 192.197C55.1309 192.197 55.3809 192.139 55.5879 192.021C55.7988 191.9 55.9688 191.734 56.0977 191.523C56.2305 191.312 56.3281 191.068 56.3906 190.791C56.4531 190.514 56.4844 190.217 56.4844 189.9ZM58.6582 189.9V189.766C58.6582 189.309 58.7246 188.885 58.8574 188.494C58.9902 188.1 59.1816 187.758 59.4316 187.469C59.6816 187.176 59.9844 186.949 60.3398 186.789C60.6953 186.625 61.0938 186.543 61.5352 186.543C61.9805 186.543 62.3809 186.625 62.7363 186.789C63.0957 186.949 63.4004 187.176 63.6504 187.469C63.9043 187.758 64.0977 188.1 64.2305 188.494C64.3633 188.885 64.4297 189.309 64.4297 189.766V189.9C64.4297 190.357 64.3633 190.781 64.2305 191.172C64.0977 191.562 63.9043 191.904 63.6504 192.197C63.4004 192.486 63.0977 192.713 62.7422 192.877C62.3906 193.037 61.9922 193.117 61.5469 193.117C61.1016 193.117 60.7012 193.037 60.3457 192.877C59.9902 192.713 59.6855 192.486 59.4316 192.197C59.1816 191.904 58.9902 191.562 58.8574 191.172C58.7246 190.781 58.6582 190.357 58.6582 189.9ZM59.7422 189.766V189.9C59.7422 190.217 59.7793 190.516 59.8535 190.797C59.9277 191.074 60.0391 191.32 60.1875 191.535C60.3398 191.75 60.5293 191.92 60.7559 192.045C60.9824 192.166 61.2461 192.227 61.5469 192.227C61.8438 192.227 62.1035 192.166 62.3262 192.045C62.5527 191.92 62.7402 191.75 62.8887 191.535C63.0371 191.32 63.1484 191.074 63.2227 190.797C63.3008 190.516 63.3398 190.217 63.3398 189.9V189.766C63.3398 189.453 63.3008 189.158 63.2227 188.881C63.1484 188.6 63.0352 188.352 62.8828 188.137C62.7344 187.918 62.5469 187.746 62.3203 187.621C62.0977 187.496 61.8359 187.434 61.5352 187.434C61.2383 187.434 60.9766 187.496 60.75 187.621C60.5273 187.746 60.3398 187.918 60.1875 188.137C60.0391 188.352 59.9277 188.6 59.8535 188.881C59.7793 189.158 59.7422 189.453 59.7422 189.766ZM66.873 187.656V193H65.7891V186.66H66.8438L66.873 187.656ZM68.8535 186.625L68.8477 187.633C68.7578 187.613 68.6719 187.602 68.5898 187.598C68.5117 187.59 68.4219 187.586 68.3203 187.586C68.0703 187.586 67.8496 187.625 67.6582 187.703C67.4668 187.781 67.3047 187.891 67.1719 188.031C67.0391 188.172 66.9336 188.34 66.8555 188.535C66.7812 188.727 66.7324 188.938 66.709 189.168L66.4043 189.344C66.4043 188.961 66.4414 188.602 66.5156 188.266C66.5938 187.93 66.7129 187.633 66.873 187.375C67.0332 187.113 67.2363 186.91 67.4824 186.766C67.7324 186.617 68.0293 186.543 68.373 186.543C68.4512 186.543 68.541 186.553 68.6426 186.572C68.7441 186.588 68.8145 186.605 68.8535 186.625ZM73.3594 191.916V188.652C73.3594 188.402 73.3086 188.186 73.207 188.002C73.1094 187.814 72.9609 187.67 72.7617 187.568C72.5625 187.467 72.3164 187.416 72.0234 187.416C71.75 187.416 71.5098 187.463 71.3027 187.557C71.0996 187.65 70.9395 187.773 70.8223 187.926C70.709 188.078 70.6523 188.242 70.6523 188.418H69.5684C69.5684 188.191 69.627 187.967 69.7441 187.744C69.8613 187.521 70.0293 187.32 70.248 187.141C70.4707 186.957 70.7363 186.812 71.0449 186.707C71.3574 186.598 71.7051 186.543 72.0879 186.543C72.5488 186.543 72.9551 186.621 73.3066 186.777C73.6621 186.934 73.9395 187.17 74.1387 187.486C74.3418 187.799 74.4434 188.191 74.4434 188.664V191.617C74.4434 191.828 74.4609 192.053 74.4961 192.291C74.5352 192.529 74.5918 192.734 74.666 192.906V193H73.5352C73.4805 192.875 73.4375 192.709 73.4062 192.502C73.375 192.291 73.3594 192.096 73.3594 191.916ZM73.5469 189.156L73.5586 189.918H72.4629C72.1543 189.918 71.8789 189.943 71.6367 189.994C71.3945 190.041 71.1914 190.113 71.0273 190.211C70.8633 190.309 70.7383 190.432 70.6523 190.58C70.5664 190.725 70.5234 190.895 70.5234 191.09C70.5234 191.289 70.5684 191.471 70.6582 191.635C70.748 191.799 70.8828 191.93 71.0625 192.027C71.2461 192.121 71.4707 192.168 71.7363 192.168C72.0684 192.168 72.3613 192.098 72.6152 191.957C72.8691 191.816 73.0703 191.645 73.2188 191.441C73.3711 191.238 73.4531 191.041 73.4648 190.85L73.9277 191.371C73.9004 191.535 73.8262 191.717 73.7051 191.916C73.584 192.115 73.4219 192.307 73.2188 192.49C73.0195 192.67 72.7812 192.82 72.5039 192.941C72.2305 193.059 71.9219 193.117 71.5781 193.117C71.1484 193.117 70.7715 193.033 70.4473 192.865C70.127 192.697 69.877 192.473 69.6973 192.191C69.5215 191.906 69.4336 191.588 69.4336 191.236C69.4336 190.896 69.5 190.598 69.6328 190.34C69.7656 190.078 69.957 189.861 70.207 189.689C70.457 189.514 70.7578 189.381 71.1094 189.291C71.4609 189.201 71.8535 189.156 72.2871 189.156H73.5469ZM78.8027 186.66V187.492H75.375V186.66H78.8027ZM76.5352 185.119H77.6191V191.43C77.6191 191.645 77.6523 191.807 77.7188 191.916C77.7852 192.025 77.8711 192.098 77.9766 192.133C78.082 192.168 78.1953 192.186 78.3164 192.186C78.4062 192.186 78.5 192.178 78.5977 192.162C78.6992 192.143 78.7754 192.127 78.8262 192.115L78.832 193C78.7461 193.027 78.6328 193.053 78.4922 193.076C78.3555 193.104 78.1895 193.117 77.9941 193.117C77.7285 193.117 77.4844 193.064 77.2617 192.959C77.0391 192.854 76.8613 192.678 76.7285 192.432C76.5996 192.182 76.5352 191.846 76.5352 191.424V185.119ZM81.252 186.66V193H80.1621V186.66H81.252ZM80.0801 184.979C80.0801 184.803 80.1328 184.654 80.2383 184.533C80.3477 184.412 80.5078 184.352 80.7188 184.352C80.9258 184.352 81.084 184.412 81.1934 184.533C81.3066 184.654 81.3633 184.803 81.3633 184.979C81.3633 185.146 81.3066 185.291 81.1934 185.412C81.084 185.529 80.9258 185.588 80.7188 185.588C80.5078 185.588 80.3477 185.529 80.2383 185.412C80.1328 185.291 80.0801 185.146 80.0801 184.979ZM82.7051 189.9V189.766C82.7051 189.309 82.7715 188.885 82.9043 188.494C83.0371 188.1 83.2285 187.758 83.4785 187.469C83.7285 187.176 84.0312 186.949 84.3867 186.789C84.7422 186.625 85.1406 186.543 85.582 186.543C86.0273 186.543 86.4277 186.625 86.7832 186.789C87.1426 186.949 87.4473 187.176 87.6973 187.469C87.9512 187.758 88.1445 188.1 88.2773 188.494C88.4102 188.885 88.4766 189.309 88.4766 189.766V189.9C88.4766 190.357 88.4102 190.781 88.2773 191.172C88.1445 191.562 87.9512 191.904 87.6973 192.197C87.4473 192.486 87.1445 192.713 86.7891 192.877C86.4375 193.037 86.0391 193.117 85.5938 193.117C85.1484 193.117 84.748 193.037 84.3926 192.877C84.0371 192.713 83.7324 192.486 83.4785 192.197C83.2285 191.904 83.0371 191.562 82.9043 191.172C82.7715 190.781 82.7051 190.357 82.7051 189.9ZM83.7891 189.766V189.9C83.7891 190.217 83.8262 190.516 83.9004 190.797C83.9746 191.074 84.0859 191.32 84.2344 191.535C84.3867 191.75 84.5762 191.92 84.8027 192.045C85.0293 192.166 85.293 192.227 85.5938 192.227C85.8906 192.227 86.1504 192.166 86.373 192.045C86.5996 191.92 86.7871 191.75 86.9355 191.535C87.084 191.32 87.1953 191.074 87.2695 190.797C87.3477 190.516 87.3867 190.217 87.3867 189.9V189.766C87.3867 189.453 87.3477 189.158 87.2695 188.881C87.1953 188.6 87.082 188.352 86.9297 188.137C86.7812 187.918 86.5938 187.746 86.3672 187.621C86.1445 187.496 85.8828 187.434 85.582 187.434C85.2852 187.434 85.0234 187.496 84.7969 187.621C84.5742 187.746 84.3867 187.918 84.2344 188.137C84.0859 188.352 83.9746 188.6 83.9004 188.881C83.8262 189.158 83.7891 189.453 83.7891 189.766ZM90.9199 188.014V193H89.8359V186.66H90.8613L90.9199 188.014ZM90.6621 189.59L90.2109 189.572C90.2148 189.139 90.2793 188.738 90.4043 188.371C90.5293 188 90.7051 187.678 90.9316 187.404C91.1582 187.131 91.4277 186.92 91.7402 186.771C92.0566 186.619 92.4062 186.543 92.7891 186.543C93.1016 186.543 93.3828 186.586 93.6328 186.672C93.8828 186.754 94.0957 186.887 94.2715 187.07C94.4512 187.254 94.5879 187.492 94.6816 187.785C94.7754 188.074 94.8223 188.428 94.8223 188.846V193H93.7324V188.834C93.7324 188.502 93.6836 188.236 93.5859 188.037C93.4883 187.834 93.3457 187.688 93.1582 187.598C92.9707 187.504 92.7402 187.457 92.4668 187.457C92.1973 187.457 91.9512 187.514 91.7285 187.627C91.5098 187.74 91.3203 187.896 91.1602 188.096C91.0039 188.295 90.8809 188.523 90.791 188.781C90.7051 189.035 90.6621 189.305 90.6621 189.59Z"
                fill="black" />
            <path id="apply_2"
                d="M195.959 202.916V199.652C195.959 199.402 195.908 199.186 195.807 199.002C195.709 198.814 195.561 198.67 195.361 198.568C195.162 198.467 194.916 198.416 194.623 198.416C194.35 198.416 194.109 198.463 193.902 198.557C193.699 198.65 193.539 198.773 193.422 198.926C193.309 199.078 193.252 199.242 193.252 199.418H192.168C192.168 199.191 192.227 198.967 192.344 198.744C192.461 198.521 192.629 198.32 192.848 198.141C193.07 197.957 193.336 197.812 193.645 197.707C193.957 197.598 194.305 197.543 194.688 197.543C195.148 197.543 195.555 197.621 195.906 197.777C196.262 197.934 196.539 198.17 196.738 198.486C196.941 198.799 197.043 199.191 197.043 199.664V202.617C197.043 202.828 197.061 203.053 197.096 203.291C197.135 203.529 197.191 203.734 197.266 203.906V204H196.135C196.08 203.875 196.037 203.709 196.006 203.502C195.975 203.291 195.959 203.096 195.959 202.916ZM196.146 200.156L196.158 200.918H195.062C194.754 200.918 194.479 200.943 194.236 200.994C193.994 201.041 193.791 201.113 193.627 201.211C193.463 201.309 193.338 201.432 193.252 201.58C193.166 201.725 193.123 201.895 193.123 202.09C193.123 202.289 193.168 202.471 193.258 202.635C193.348 202.799 193.482 202.93 193.662 203.027C193.846 203.121 194.07 203.168 194.336 203.168C194.668 203.168 194.961 203.098 195.215 202.957C195.469 202.816 195.67 202.645 195.818 202.441C195.971 202.238 196.053 202.041 196.064 201.85L196.527 202.371C196.5 202.535 196.426 202.717 196.305 202.916C196.184 203.115 196.021 203.307 195.818 203.49C195.619 203.67 195.381 203.82 195.104 203.941C194.83 204.059 194.521 204.117 194.178 204.117C193.748 204.117 193.371 204.033 193.047 203.865C192.727 203.697 192.477 203.473 192.297 203.191C192.121 202.906 192.033 202.588 192.033 202.236C192.033 201.896 192.1 201.598 192.232 201.34C192.365 201.078 192.557 200.861 192.807 200.689C193.057 200.514 193.357 200.381 193.709 200.291C194.061 200.201 194.453 200.156 194.887 200.156H196.146ZM199.832 198.879V206.438H198.742V197.66H199.738L199.832 198.879ZM204.104 200.777V200.9C204.104 201.361 204.049 201.789 203.939 202.184C203.83 202.574 203.67 202.914 203.459 203.203C203.252 203.492 202.996 203.717 202.691 203.877C202.387 204.037 202.037 204.117 201.643 204.117C201.24 204.117 200.885 204.051 200.576 203.918C200.268 203.785 200.006 203.592 199.791 203.338C199.576 203.084 199.404 202.779 199.275 202.424C199.15 202.068 199.064 201.668 199.018 201.223V200.566C199.064 200.098 199.152 199.678 199.281 199.307C199.41 198.936 199.58 198.619 199.791 198.357C200.006 198.092 200.266 197.891 200.57 197.754C200.875 197.613 201.227 197.543 201.625 197.543C202.023 197.543 202.377 197.621 202.686 197.777C202.994 197.93 203.254 198.148 203.465 198.434C203.676 198.719 203.834 199.061 203.939 199.459C204.049 199.854 204.104 200.293 204.104 200.777ZM203.014 200.9V200.777C203.014 200.461 202.98 200.164 202.914 199.887C202.848 199.605 202.744 199.359 202.604 199.148C202.467 198.934 202.291 198.766 202.076 198.645C201.861 198.52 201.605 198.457 201.309 198.457C201.035 198.457 200.797 198.504 200.594 198.598C200.395 198.691 200.225 198.818 200.084 198.979C199.943 199.135 199.828 199.314 199.738 199.518C199.652 199.717 199.588 199.924 199.545 200.139V201.656C199.623 201.93 199.732 202.188 199.873 202.43C200.014 202.668 200.201 202.861 200.436 203.01C200.67 203.154 200.965 203.227 201.32 203.227C201.613 203.227 201.865 203.166 202.076 203.045C202.291 202.92 202.467 202.75 202.604 202.535C202.744 202.32 202.848 202.074 202.914 201.797C202.98 201.516 203.014 201.217 203.014 200.9ZM206.57 198.879V206.438H205.48V197.66H206.477L206.57 198.879ZM210.842 200.777V200.9C210.842 201.361 210.787 201.789 210.678 202.184C210.568 202.574 210.408 202.914 210.197 203.203C209.99 203.492 209.734 203.717 209.43 203.877C209.125 204.037 208.775 204.117 208.381 204.117C207.979 204.117 207.623 204.051 207.314 203.918C207.006 203.785 206.744 203.592 206.529 203.338C206.314 203.084 206.143 202.779 206.014 202.424C205.889 202.068 205.803 201.668 205.756 201.223V200.566C205.803 200.098 205.891 199.678 206.02 199.307C206.148 198.936 206.318 198.619 206.529 198.357C206.744 198.092 207.004 197.891 207.309 197.754C207.613 197.613 207.965 197.543 208.363 197.543C208.762 197.543 209.115 197.621 209.424 197.777C209.732 197.93 209.992 198.148 210.203 198.434C210.414 198.719 210.572 199.061 210.678 199.459C210.787 199.854 210.842 200.293 210.842 200.777ZM209.752 200.9V200.777C209.752 200.461 209.719 200.164 209.652 199.887C209.586 199.605 209.482 199.359 209.342 199.148C209.205 198.934 209.029 198.766 208.814 198.645C208.6 198.52 208.344 198.457 208.047 198.457C207.773 198.457 207.535 198.504 207.332 198.598C207.133 198.691 206.963 198.818 206.822 198.979C206.682 199.135 206.566 199.314 206.477 199.518C206.391 199.717 206.326 199.924 206.283 200.139V201.656C206.361 201.93 206.471 202.188 206.611 202.43C206.752 202.668 206.939 202.861 207.174 203.01C207.408 203.154 207.703 203.227 208.059 203.227C208.352 203.227 208.604 203.166 208.814 203.045C209.029 202.92 209.205 202.75 209.342 202.535C209.482 202.32 209.586 202.074 209.652 201.797C209.719 201.516 209.752 201.217 209.752 200.9ZM213.402 195V204H212.312V195H213.402ZM216.924 203.344L218.688 197.66H219.848L217.305 204.979C217.246 205.135 217.168 205.303 217.07 205.482C216.977 205.666 216.855 205.84 216.707 206.004C216.559 206.168 216.379 206.301 216.168 206.402C215.961 206.508 215.713 206.561 215.424 206.561C215.338 206.561 215.229 206.549 215.096 206.525C214.963 206.502 214.869 206.482 214.814 206.467L214.809 205.588C214.84 205.592 214.889 205.596 214.955 205.6C215.025 205.607 215.074 205.611 215.102 205.611C215.348 205.611 215.557 205.578 215.729 205.512C215.9 205.449 216.045 205.342 216.162 205.189C216.283 205.041 216.387 204.836 216.473 204.574L216.924 203.344ZM215.629 197.66L217.275 202.582L217.557 203.725L216.777 204.123L214.445 197.66H215.629Z"
                fill="black" />
            <path id="plan_2"
                d="M450.91 199.879V207.438H449.82V198.66H450.816L450.91 199.879ZM455.182 201.777V201.9C455.182 202.361 455.127 202.789 455.018 203.184C454.908 203.574 454.748 203.914 454.537 204.203C454.33 204.492 454.074 204.717 453.77 204.877C453.465 205.037 453.115 205.117 452.721 205.117C452.318 205.117 451.963 205.051 451.654 204.918C451.346 204.785 451.084 204.592 450.869 204.338C450.654 204.084 450.482 203.779 450.354 203.424C450.229 203.068 450.143 202.668 450.096 202.223V201.566C450.143 201.098 450.23 200.678 450.359 200.307C450.488 199.936 450.658 199.619 450.869 199.357C451.084 199.092 451.344 198.891 451.648 198.754C451.953 198.613 452.305 198.543 452.703 198.543C453.102 198.543 453.455 198.621 453.764 198.777C454.072 198.93 454.332 199.148 454.543 199.434C454.754 199.719 454.912 200.061 455.018 200.459C455.127 200.854 455.182 201.293 455.182 201.777ZM454.092 201.9V201.777C454.092 201.461 454.059 201.164 453.992 200.887C453.926 200.605 453.822 200.359 453.682 200.148C453.545 199.934 453.369 199.766 453.154 199.645C452.939 199.52 452.684 199.457 452.387 199.457C452.113 199.457 451.875 199.504 451.672 199.598C451.473 199.691 451.303 199.818 451.162 199.979C451.021 200.135 450.906 200.314 450.816 200.518C450.73 200.717 450.666 200.924 450.623 201.139V202.656C450.701 202.93 450.811 203.188 450.951 203.43C451.092 203.668 451.279 203.861 451.514 204.01C451.748 204.154 452.043 204.227 452.398 204.227C452.691 204.227 452.943 204.166 453.154 204.045C453.369 203.92 453.545 203.75 453.682 203.535C453.822 203.32 453.926 203.074 453.992 202.797C454.059 202.516 454.092 202.217 454.092 201.9ZM457.742 196V205H456.652V196H457.742ZM463.221 203.916V200.652C463.221 200.402 463.17 200.186 463.068 200.002C462.971 199.814 462.822 199.67 462.623 199.568C462.424 199.467 462.178 199.416 461.885 199.416C461.611 199.416 461.371 199.463 461.164 199.557C460.961 199.65 460.801 199.773 460.684 199.926C460.57 200.078 460.514 200.242 460.514 200.418H459.43C459.43 200.191 459.488 199.967 459.605 199.744C459.723 199.521 459.891 199.32 460.109 199.141C460.332 198.957 460.598 198.812 460.906 198.707C461.219 198.598 461.566 198.543 461.949 198.543C462.41 198.543 462.816 198.621 463.168 198.777C463.523 198.934 463.801 199.17 464 199.486C464.203 199.799 464.305 200.191 464.305 200.664V203.617C464.305 203.828 464.322 204.053 464.357 204.291C464.396 204.529 464.453 204.734 464.527 204.906V205H463.396C463.342 204.875 463.299 204.709 463.268 204.502C463.236 204.291 463.221 204.096 463.221 203.916ZM463.408 201.156L463.42 201.918H462.324C462.016 201.918 461.74 201.943 461.498 201.994C461.256 202.041 461.053 202.113 460.889 202.211C460.725 202.309 460.6 202.432 460.514 202.58C460.428 202.725 460.385 202.895 460.385 203.09C460.385 203.289 460.43 203.471 460.52 203.635C460.609 203.799 460.744 203.93 460.924 204.027C461.107 204.121 461.332 204.168 461.598 204.168C461.93 204.168 462.223 204.098 462.477 203.957C462.73 203.816 462.932 203.645 463.08 203.441C463.232 203.238 463.314 203.041 463.326 202.85L463.789 203.371C463.762 203.535 463.688 203.717 463.566 203.916C463.445 204.115 463.283 204.307 463.08 204.49C462.881 204.67 462.643 204.82 462.365 204.941C462.092 205.059 461.783 205.117 461.439 205.117C461.01 205.117 460.633 205.033 460.309 204.865C459.988 204.697 459.738 204.473 459.559 204.191C459.383 203.906 459.295 203.588 459.295 203.236C459.295 202.896 459.361 202.598 459.494 202.34C459.627 202.078 459.818 201.861 460.068 201.689C460.318 201.514 460.619 201.381 460.971 201.291C461.322 201.201 461.715 201.156 462.148 201.156H463.408ZM467.094 200.014V205H466.01V198.66H467.035L467.094 200.014ZM466.836 201.59L466.385 201.572C466.389 201.139 466.453 200.738 466.578 200.371C466.703 200 466.879 199.678 467.105 199.404C467.332 199.131 467.602 198.92 467.914 198.771C468.23 198.619 468.58 198.543 468.963 198.543C469.275 198.543 469.557 198.586 469.807 198.672C470.057 198.754 470.27 198.887 470.445 199.07C470.625 199.254 470.762 199.492 470.855 199.785C470.949 200.074 470.996 200.428 470.996 200.846V205H469.906V200.834C469.906 200.502 469.857 200.236 469.76 200.037C469.662 199.834 469.52 199.688 469.332 199.598C469.145 199.504 468.914 199.457 468.641 199.457C468.371 199.457 468.125 199.514 467.902 199.627C467.684 199.74 467.494 199.896 467.334 200.096C467.178 200.295 467.055 200.523 466.965 200.781C466.879 201.035 466.836 201.305 466.836 201.59Z"
                fill="black" />
            <g id="teams">
                <g id="icon_box / white_4">
                    <g id="box_4" filter="url(#filter3_d_0_5748)">
                        <rect x="36" y="98" width="48" height="48" rx="2" fill="white" />
                        <rect x="36.5" y="98.5" width="47" height="47" rx="1.5" stroke="#727274" />
                    </g>
                </g>
                <g id="core / users / dark">
                    <g id="Users">
                        <path id="Shape_4" fill-rule="evenodd" clip-rule="evenodd"
                            d="M55.9999 110C52.3186 110 49.3333 113.111 49.3333 116.944C49.3333 120.778 52.3186 123.889 55.9999 123.889C59.6813 123.889 62.6666 120.778 62.6666 116.944C62.6666 113.111 59.6813 110 55.9999 110ZM51.3333 116.944C51.3333 114.264 53.4226 112.083 55.9999 112.083C58.5773 112.083 60.6666 114.264 60.6666 116.944C60.6666 119.625 58.5773 121.806 55.9999 121.806C53.4226 121.806 51.3333 119.625 51.3333 116.944Z"
                            fill="#000001" />
                        <path id="Path_8"
                            d="M50.3333 125.972C46.836 125.972 44 128.931 44 132.569V133.958C44 134.528 44.448 135 45 135C45.552 135 46 134.528 46 133.958V132.569C46 130.083 47.94 128.056 50.3333 128.056H61.6667C64.06 128.056 66 130.083 66 132.569V133.958C66 134.528 66.448 135 67 135C67.552 135 68 134.528 68 133.958V132.569C68 128.931 65.164 125.972 61.6667 125.972H50.3333Z"
                            fill="#000001" />
                        <path id="Path_9"
                            d="M68.3333 127.014C68.3333 126.444 68.7813 125.972 69.3333 125.972H69.6666C73.1639 125.972 75.9999 128.931 75.9999 132.569V133.958C75.9999 134.528 75.5519 135 74.9999 135C74.4479 135 73.9999 134.528 73.9999 133.958V132.569C73.9999 130.083 72.0599 128.056 69.6666 128.056H69.3333C68.7813 128.056 68.3333 127.583 68.3333 127.014Z"
                            fill="#000001" />
                        <path id="Path_10"
                            d="M64 110C63.448 110 63 110.472 63 111.042C63 111.611 63.448 112.083 64 112.083C66.5773 112.083 68.6667 114.264 68.6667 116.944C68.6667 119.625 66.5773 121.806 64 121.806C63.448 121.806 63 122.278 63 122.847C63 123.417 63.448 123.889 64 123.889C67.6813 123.889 70.6667 120.778 70.6667 116.944C70.6667 113.111 67.6813 110 64 110Z"
                            fill="#000001" />
                    </g>
                </g>
            </g>
            <g id="vsc-database">
                <g id="icon_box / white_5">
                    <g id="box_5" filter="url(#filter4_d_0_5748)">
                        <rect x="310" y="254" width="48" height="48" rx="2" fill="white" />
                        <rect x="310.5" y="254.5" width="47" height="47" rx="1.5" stroke="#727274" />
                    </g>
                </g>
                <g id="core / Database / Dark">
                    <path id="Database" fill-rule="evenodd" clip-rule="evenodd"
                        d="M350 268C350 266.8 349.25 265.856 348.366 265.184C347.469 264.496 346.243 263.92 344.835 263.472C342.008 262.544 338.178 262 334 262C329.822 262 325.992 262.544 323.165 263.472C321.757 263.92 320.531 264.496 319.634 265.184C318.75 265.856 318 266.8 318 268V287.856C318 289.056 318.726 290.016 319.61 290.72C320.506 291.44 321.73 292.016 323.136 292.496C325.962 293.44 329.797 294 334 294C338.203 294 342.038 293.44 344.864 292.496C346.27 292.016 347.494 291.44 348.39 290.72C349.274 290.016 350 289.056 350 287.856V268ZM321.093 267.088C320.477 267.552 320.4 267.872 320.4 268C320.4 268.128 320.477 268.448 321.093 268.912C321.691 269.376 322.634 269.84 323.906 270.256C326.434 271.072 330.003 271.6 334 271.6C337.997 271.6 341.566 271.072 344.094 270.256C345.366 269.84 346.309 269.376 346.907 268.912C347.523 268.448 347.6 268.128 347.6 268C347.6 267.872 347.523 267.552 346.907 267.088C346.309 266.624 345.366 266.16 344.094 265.744C341.566 264.928 337.997 264.4 334 264.4C330.003 264.4 326.434 264.928 323.906 265.744C322.634 266.16 321.691 266.624 321.093 267.088ZM347.6 271.328C346.816 271.792 345.875 272.192 344.835 272.528C342.008 273.456 338.178 274 334 274C329.822 274 325.992 273.456 323.165 272.528C322.125 272.192 321.184 271.792 320.4 271.328V277.6C320.4 277.728 320.478 278.048 321.09 278.528C321.683 278.976 322.619 279.44 323.888 279.856C326.41 280.672 329.978 281.2 334 281.2C338.022 281.2 341.59 280.672 344.112 279.856C345.381 279.44 346.317 278.976 346.91 278.528C347.522 278.048 347.6 277.728 347.6 277.6V271.328ZM347.6 280.944C346.821 281.408 345.888 281.808 344.854 282.144C342.032 283.056 338.2 283.6 334 283.6C329.8 283.6 325.968 283.056 323.146 282.144C322.112 281.808 321.179 281.408 320.4 280.944V287.856C320.4 288.016 320.496 288.368 321.102 288.848C321.696 289.312 322.632 289.792 323.898 290.224C326.416 291.056 329.981 291.6 334 291.6C338.019 291.6 341.584 291.056 344.102 290.224C345.368 289.792 346.304 289.312 346.898 288.848C347.504 288.368 347.6 288.016 347.6 287.856V280.944Z"
                        fill="#222222" />
                </g>
            </g>
            <path id="IaC"
                d="M327.396 71.4688V80H326.266V71.4688H327.396ZM333.027 78.916V75.6523C333.027 75.4023 332.977 75.1855 332.875 75.002C332.777 74.8145 332.629 74.6699 332.43 74.5684C332.23 74.4668 331.984 74.416 331.691 74.416C331.418 74.416 331.178 74.4629 330.971 74.5566C330.768 74.6504 330.607 74.7734 330.49 74.9258C330.377 75.0781 330.32 75.2422 330.32 75.418H329.236C329.236 75.1914 329.295 74.9668 329.412 74.7441C329.529 74.5215 329.697 74.3203 329.916 74.1406C330.139 73.957 330.404 73.8125 330.713 73.707C331.025 73.5977 331.373 73.543 331.756 73.543C332.217 73.543 332.623 73.6211 332.975 73.7773C333.33 73.9336 333.607 74.1699 333.807 74.4863C334.01 74.7988 334.111 75.1914 334.111 75.6641V78.6172C334.111 78.8281 334.129 79.0527 334.164 79.291C334.203 79.5293 334.26 79.7344 334.334 79.9062V80H333.203C333.148 79.875 333.105 79.709 333.074 79.502C333.043 79.291 333.027 79.0957 333.027 78.916ZM333.215 76.1562L333.227 76.918H332.131C331.822 76.918 331.547 76.9434 331.305 76.9941C331.062 77.041 330.859 77.1133 330.695 77.2109C330.531 77.3086 330.406 77.4316 330.32 77.5801C330.234 77.7246 330.191 77.8945 330.191 78.0898C330.191 78.2891 330.236 78.4707 330.326 78.6348C330.416 78.7988 330.551 78.9297 330.73 79.0273C330.914 79.1211 331.139 79.168 331.404 79.168C331.736 79.168 332.029 79.0977 332.283 78.957C332.537 78.8164 332.738 78.6445 332.887 78.4414C333.039 78.2383 333.121 78.041 333.133 77.8496L333.596 78.3711C333.568 78.5352 333.494 78.7168 333.373 78.916C333.252 79.1152 333.09 79.3066 332.887 79.4902C332.688 79.6699 332.449 79.8203 332.172 79.9414C331.898 80.0586 331.59 80.1172 331.246 80.1172C330.816 80.1172 330.439 80.0332 330.115 79.8652C329.795 79.6973 329.545 79.4727 329.365 79.1914C329.189 78.9062 329.102 78.5879 329.102 78.2363C329.102 77.8965 329.168 77.5977 329.301 77.3398C329.434 77.0781 329.625 76.8613 329.875 76.6895C330.125 76.5137 330.426 76.3809 330.777 76.291C331.129 76.2012 331.521 76.1562 331.955 76.1562H333.215ZM341.131 77.2871H342.256C342.197 77.8262 342.043 78.3086 341.793 78.7344C341.543 79.1602 341.189 79.498 340.732 79.748C340.275 79.9941 339.705 80.1172 339.021 80.1172C338.521 80.1172 338.066 80.0234 337.656 79.8359C337.25 79.6484 336.9 79.3828 336.607 79.0391C336.314 78.6914 336.088 78.2754 335.928 77.791C335.771 77.3027 335.693 76.7598 335.693 76.1621V75.3125C335.693 74.7148 335.771 74.1738 335.928 73.6895C336.088 73.2012 336.316 72.7832 336.613 72.4355C336.914 72.0879 337.275 71.8203 337.697 71.6328C338.119 71.4453 338.594 71.3516 339.121 71.3516C339.766 71.3516 340.311 71.4727 340.756 71.7148C341.201 71.957 341.547 72.293 341.793 72.7227C342.043 73.1484 342.197 73.6426 342.256 74.2051H341.131C341.076 73.8066 340.975 73.4648 340.826 73.1797C340.678 72.8906 340.467 72.668 340.193 72.5117C339.92 72.3555 339.562 72.2773 339.121 72.2773C338.742 72.2773 338.408 72.3496 338.119 72.4941C337.834 72.6387 337.594 72.8438 337.398 73.1094C337.207 73.375 337.062 73.6934 336.965 74.0645C336.867 74.4355 336.818 74.8477 336.818 75.3008V76.1621C336.818 76.5801 336.861 76.9727 336.947 77.3398C337.037 77.707 337.172 78.0293 337.352 78.3066C337.531 78.584 337.76 78.8027 338.037 78.9629C338.314 79.1191 338.643 79.1973 339.021 79.1973C339.502 79.1973 339.885 79.1211 340.17 78.9688C340.455 78.8164 340.67 78.5977 340.814 78.3125C340.963 78.0273 341.068 77.6855 341.131 77.2871Z"
                fill="black" />
            <path id="VCS"
                d="M326.494 326.705L329.008 319.469H330.232L327.074 328H326.201L326.494 326.705ZM324.145 319.469L326.635 326.705L326.945 328H326.072L322.92 319.469H324.145ZM336.449 325.287H337.574C337.516 325.826 337.361 326.309 337.111 326.734C336.861 327.16 336.508 327.498 336.051 327.748C335.594 327.994 335.023 328.117 334.34 328.117C333.84 328.117 333.385 328.023 332.975 327.836C332.568 327.648 332.219 327.383 331.926 327.039C331.633 326.691 331.406 326.275 331.246 325.791C331.09 325.303 331.012 324.76 331.012 324.162V323.312C331.012 322.715 331.09 322.174 331.246 321.689C331.406 321.201 331.635 320.783 331.932 320.436C332.232 320.088 332.594 319.82 333.016 319.633C333.438 319.445 333.912 319.352 334.439 319.352C335.084 319.352 335.629 319.473 336.074 319.715C336.52 319.957 336.865 320.293 337.111 320.723C337.361 321.148 337.516 321.643 337.574 322.205H336.449C336.395 321.807 336.293 321.465 336.145 321.18C335.996 320.891 335.785 320.668 335.512 320.512C335.238 320.355 334.881 320.277 334.439 320.277C334.061 320.277 333.727 320.35 333.438 320.494C333.152 320.639 332.912 320.844 332.717 321.109C332.525 321.375 332.381 321.693 332.283 322.064C332.186 322.436 332.137 322.848 332.137 323.301V324.162C332.137 324.58 332.18 324.973 332.266 325.34C332.355 325.707 332.49 326.029 332.67 326.307C332.85 326.584 333.078 326.803 333.355 326.963C333.633 327.119 333.961 327.197 334.34 327.197C334.82 327.197 335.203 327.121 335.488 326.969C335.773 326.816 335.988 326.598 336.133 326.312C336.281 326.027 336.387 325.686 336.449 325.287ZM343.662 325.844C343.662 325.645 343.631 325.469 343.568 325.316C343.51 325.16 343.404 325.02 343.252 324.895C343.104 324.77 342.896 324.65 342.631 324.537C342.369 324.424 342.037 324.309 341.635 324.191C341.213 324.066 340.832 323.928 340.492 323.775C340.152 323.619 339.861 323.441 339.619 323.242C339.377 323.043 339.191 322.814 339.062 322.557C338.934 322.299 338.869 322.004 338.869 321.672C338.869 321.34 338.938 321.033 339.074 320.752C339.211 320.471 339.406 320.227 339.66 320.02C339.918 319.809 340.225 319.645 340.58 319.527C340.936 319.41 341.332 319.352 341.77 319.352C342.41 319.352 342.953 319.475 343.398 319.721C343.848 319.963 344.189 320.281 344.424 320.676C344.658 321.066 344.775 321.484 344.775 321.93H343.65C343.65 321.609 343.582 321.326 343.445 321.08C343.309 320.83 343.102 320.635 342.824 320.494C342.547 320.35 342.195 320.277 341.77 320.277C341.367 320.277 341.035 320.338 340.773 320.459C340.512 320.58 340.316 320.744 340.188 320.951C340.062 321.158 340 321.395 340 321.66C340 321.84 340.037 322.004 340.111 322.152C340.189 322.297 340.309 322.432 340.469 322.557C340.633 322.682 340.84 322.797 341.09 322.902C341.344 323.008 341.646 323.109 341.998 323.207C342.482 323.344 342.9 323.496 343.252 323.664C343.604 323.832 343.893 324.021 344.119 324.232C344.35 324.439 344.52 324.676 344.629 324.941C344.742 325.203 344.799 325.5 344.799 325.832C344.799 326.18 344.729 326.494 344.588 326.775C344.447 327.057 344.246 327.297 343.984 327.496C343.723 327.695 343.408 327.85 343.041 327.959C342.678 328.064 342.271 328.117 341.822 328.117C341.428 328.117 341.039 328.062 340.656 327.953C340.277 327.844 339.932 327.68 339.619 327.461C339.311 327.242 339.062 326.973 338.875 326.652C338.691 326.328 338.6 325.953 338.6 325.527H339.725C339.725 325.82 339.781 326.072 339.895 326.283C340.008 326.49 340.162 326.662 340.357 326.799C340.557 326.936 340.781 327.037 341.031 327.104C341.285 327.166 341.549 327.197 341.822 327.197C342.217 327.197 342.551 327.143 342.824 327.033C343.098 326.924 343.305 326.768 343.445 326.564C343.59 326.361 343.662 326.121 343.662 325.844Z"
                fill="black" />
        </g>
    </g>
    <defs>
        <style>
            .hg {
                fill: #222;
                opacity: 0
            }
        </style>
        <filter id="filter0_d_0_5748" x="223" y="173" width="62" height="62" filterUnits="userSpaceOnUse"
            color-interpolation-filters="sRGB">
            <feFlood flood-opacity="0" result="BackgroundImageFix" />
            <feColorMatrix in="SourceAlpha" type="matrix" values="0 0 0 0 0 0 0 0 0 0 0 0 0 0 0 0 0 0 127 0"
                result="hardAlpha" />
            <feMorphology radius="2" operator="dilate" in="SourceAlpha" result="effect1_dropShadow_0_5748" />
            <feOffset dy="2" />
            <feGaussianBlur stdDeviation="2.5" />
            <feColorMatrix type="matrix" values="0 0 0 0 0 0 0 0 0 0 0 0 0 0 0 0 0 0 0.1 0" />
            <feBlend mode="normal" in2="BackgroundImageFix" result="effect1_dropShadow_0_5748" />
            <feBlend mode="normal" in="SourceGraphic" in2="effect1_dropShadow_0_5748" result="shape" />
        </filter>
        <filter id="filter1_d_0_5748" x="303" y="93" width="62" height="62" filterUnits="userSpaceOnUse"
            color-interpolation-filters="sRGB">
            <feFlood flood-opacity="0" result="BackgroundImageFix" />
            <feColorMatrix in="SourceAlpha" type="matrix" values="0 0 0 0 0 0 0 0 0 0 0 0 0 0 0 0 0 0 127 0"
                result="hardAlpha" />
            <feMorphology radius="2" operator="dilate" in="SourceAlpha" result="effect1_dropShadow_0_5748" />
            <feOffset dy="2" />
            <feGaussianBlur stdDeviation="2.5" />
            <feColorMatrix type="matrix" values="0 0 0 0 0 0 0 0 0 0 0 0 0 0 0 0 0 0 0.1 0" />
            <feBlend mode="normal" in2="BackgroundImageFix" result="effect1_dropShadow_0_5748" />
            <feBlend mode="normal" in="SourceGraphic" in2="effect1_dropShadow_0_5748" result="shape" />
        </filter>
        <filter id="filter2_d_0_5748" x="383" y="173" width="62" height="62" filterUnits="userSpaceOnUse"
            color-interpolation-filters="sRGB">
            <feFlood flood-opacity="0" result="BackgroundImageFix" />
            <feColorMatrix in="SourceAlpha" type="matrix" values="0 0 0 0 0 0 0 0 0 0 0 0 0 0 0 0 0 0 127 0"
                result="hardAlpha" />
            <feMorphology radius="2" operator="dilate" in="SourceAlpha" result="effect1_dropShadow_0_5748" />
            <feOffset dy="2" />
            <feGaussianBlur stdDeviation="2.5" />
            <feColorMatrix type="matrix" values="0 0 0 0 0 0 0 0 0 0 0 0 0 0 0 0 0 0 0.1 0" />
            <feBlend mode="normal" in2="BackgroundImageFix" result="effect1_dropShadow_0_5748" />
            <feBlend mode="normal" in="SourceGraphic" in2="effect1_dropShadow_0_5748" result="shape" />
        </filter>
        <filter id="filter3_d_0_5748" x="29" y="93" width="62" height="62" filterUnits="userSpaceOnUse"
            color-interpolation-filters="sRGB">
            <feFlood flood-opacity="0" result="BackgroundImageFix" />
            <feColorMatrix in="SourceAlpha" type="matrix" values="0 0 0 0 0 0 0 0 0 0 0 0 0 0 0 0 0 0 127 0"
                result="hardAlpha" />
            <feMorphology radius="2" operator="dilate" in="SourceAlpha" result="effect1_dropShadow_0_5748" />
            <feOffset dy="2" />
            <feGaussianBlur stdDeviation="2.5" />
            <feColorMatrix type="matrix" values="0 0 0 0 0 0 0 0 0 0 0 0 0 0 0 0 0 0 0.1 0" />
            <feBlend mode="normal" in2="BackgroundImageFix" result="effect1_dropShadow_0_5748" />
            <feBlend mode="normal" in="SourceGraphic" in2="effect1_dropShadow_0_5748" result="shape" />
        </filter>
        <filter id="filter4_d_0_5748" x="303" y="249" width="62" height="62" filterUnits="userSpaceOnUse"
            color-interpolation-filters="sRGB">
            <feFlood flood-opacity="0" result="BackgroundImageFix" />
            <feColorMatrix in="SourceAlpha" type="matrix" values="0 0 0 0 0 0 0 0 0 0 0 0 0 0 0 0 0 0 127 0"
                result="hardAlpha" />
            <feMorphology radius="2" operator="dilate" in="SourceAlpha" result="effect1_dropShadow_0_5748" />
            <feOffset dy="2" />
            <feGaussianBlur stdDeviation="2.5" />
            <feColorMatrix type="matrix" values="0 0 0 0 0 0 0 0 0 0 0 0 0 0 0 0 0 0 0.1 0" />
            <feBlend mode="normal" in2="BackgroundImageFix" result="effect1_dropShadow_0_5748" />
            <feBlend mode="normal" in="SourceGraphic" in2="effect1_dropShadow_0_5748" result="shape" />
        </filter>
    </defs>
</svg>