<?xml version="1.0" standalone="no"?>
<!DOCTYPE svg PUBLIC "-//W3C//DTD SVG 20010904//EN" "http://www.w3.org/TR/2001/REC-SVG-20010904/DTD/svg10.dtd">
<svg version="1.0" xmlns="http://www.w3.org/2000/svg" width="678.000000pt" height="678.000000pt"
    viewBox="0 0 678.000000 678.000000" preserveAspectRatio="xMidYMid meet">
    <metadata>
        Created by potrace 1.11, written by Peter Selinger 2001-2013
    </metadata>
    <g transform="translate(0.000000,678.000000) scale(0.100000,-0.100000)" fill="#FFF" stroke="none">
        <path d="M2889 5666 c-69 -40 -137 -79 -151 -87 -15 -8 -50 -28 -80 -45 -29
-17 -98 -57 -153 -89 -55 -32 -120 -69 -145 -84 -25 -14 -111 -63 -190 -109
-80 -46 -152 -88 -160 -93 -8 -5 -202 -117 -430 -248 l-415 -239 -1 -1278 c0
-704 2 -1285 4 -1292 3 -8 14 -18 26 -23 11 -5 28 -14 36 -19 24 -17 482 -280
487 -280 2 0 33 -19 69 -41 36 -23 68 -39 71 -35 3 3 6 581 6 1284 l0 1278 26
15 c14 9 148 86 296 171 704 406 827 477 832 482 7 6 8 794 1 801 -2 3 -60
-28 -129 -69z" />
        <path d="M3758 4718 l-3 -1023 -365 0 -365 0 -2 360 c-1 198 -2 370 -2 382 -1
22 -43 0 -410 -214 -17 -10 -88 -51 -159 -92 l-129 -74 0 -1308 c0 -719 3
-1312 6 -1318 5 -8 457 -273 611 -359 25 -13 49 -28 54 -33 6 -5 15 -9 20 -9
8 0 11 313 10 1019 l-1 1018 368 1 369 0 0 -379 0 -379 48 25 c26 14 62 34 80
45 50 31 411 239 462 267 25 14 60 34 78 45 l32 20 -2 1315 -3 1316 -225 129
c-124 72 -243 140 -265 153 -22 12 -75 43 -118 69 -43 25 -80 46 -82 46 -3 0
-6 -460 -7 -1022z" />
        <path d="M4918 3784 l-3 -1285 -330 -191 c-181 -105 -341 -197 -355 -204 -14
-8 -124 -71 -245 -142 l-220 -127 -3 -403 c-1 -221 1 -402 5 -402 5 1 29 13
54 28 26 15 141 81 255 147 115 66 211 123 212 127 2 5 8 8 13 8 5 0 287 161
626 357 340 196 634 366 654 377 l36 20 0 1288 0 1288 -36 21 c-20 12 -55 33
-79 46 -24 13 -163 94 -309 179 -146 85 -267 154 -269 154 -2 0 -5 -579 -6
-1286z" />
    </g>
</svg>